  0
SECTION
  2
HEADER
  9
$ACADVER
  1
AC1024
  9
$ACADMAINTVER
 70
     6
  9
$DWGCODEPAGE
  3
UNDEFINED
  9
$INSBASE
 10
0.0
 20
0.0
 30
0.0
  9
$EXTMIN
 10
1.000000000000000E+20
 20
1.000000000000000E+20
 30
1.000000000000000E+20
  9
$EXTMAX
 10
-1.000000000000000E+20
 20
-1.000000000000000E+20
 30
-1.000000000000000E+20
  9
$LIMMIN
 10
0.0
 20
0.0
  9
$LIMMAX
 10
12.0
 20
9.0
  9
$ORTHOMODE
 70
     0
  9
$REGENMODE
 70
     1
  9
$FILLMODE
 70
     1
  9
$QTEXTMODE
 70
     0
  9
$MIRRTEXT
 70
     1
  9
$LTSCALE
 40
1.0
  9
$ATTMODE
 70
     1
  9
$TEXTSIZE
 40
0.2
  9
$TRACEWID
 40
0.05
  9
$TEXTSTYLE
  7
Standard
  9
$CLAYER
  8
0
  9
$CELTYPE
  6
ByLayer
  9
$CECOLOR
 62
   256
  9
$CELTSCALE
 40
1.0
  9
$DISPSILH
 70
     0
  9
$DIMSCALE
 40
1.0
  9
$DIMASZ
 40
0.18
  9
$DIMEXO
 40
0.0625
  9
$DIMDLI
 40
0.38
  9
$DIMRND
 40
0.0
  9
$DIMDLE
 40
0.0
  9
$DIMEXE
 40
0.18
  9
$DIMTP
 40
0.0
  9
$DIMTM
 40
0.0
  9
$DIMTXT
 40
0.18
  9
$DIMCEN
 40
0.09
  9
$DIMTSZ
 40
0.0
  9
$DIMTOL
 70
     0
  9
$DIMLIM
 70
     0
  9
$DIMTIH
 70
     1
  9
$DIMTOH
 70
     1
  9
$DIMSE1
 70
     0
  9
$DIMSE2
 70
     0
  9
$DIMTAD
 70
     0
  9
$DIMZIN
 70
     0
  9
$DIMBLK
  1

  9
$DIMASO
 70
     1
  9
$DIMSHO
 70
     1
  9
$DIMPOST
  1

  9
$DIMAPOST
  1

  9
$DIMALT
 70
     0
  9
$DIMALTD
 70
     2
  9
$DIMALTF
 40
25.4
  9
$DIMLFAC
 40
1.0
  9
$DIMTOFL
 70
     0
  9
$DIMTVP
 40
0.0
  9
$DIMTIX
 70
     0
  9
$DIMSOXD
 70
     0
  9
$DIMSAH
 70
     0
  9
$DIMBLK1
  1

  9
$DIMBLK2
  1

  9
$DIMSTYLE
  2
Standard
  9
$DIMCLRD
 70
     0
  9
$DIMCLRE
 70
     0
  9
$DIMCLRT
 70
     0
  9
$DIMTFAC
 40
1.0
  9
$DIMGAP
 40
0.09
  9
$DIMJUST
 70
     0
  9
$DIMSD1
 70
     0
  9
$DIMSD2
 70
     0
  9
$DIMTOLJ
 70
     1
  9
$DIMTZIN
 70
     0
  9
$DIMALTZ
 70
     0
  9
$DIMALTTZ
 70
     0
  9
$DIMUPT
 70
     0
  9
$DIMDEC
 70
     4
  9
$DIMTDEC
 70
     4
  9
$DIMALTU
 70
     2
  9
$DIMALTTD
 70
     2
  9
$DIMTXSTY
  7
Standard
  9
$DIMAUNIT
 70
     0
  9
$DIMADEC
 70
     0
  9
$DIMALTRND
 40
0.0
  9
$DIMAZIN
 70
     0
  9
$DIMDSEP
 70
    46
  9
$DIMATFIT
 70
     3
  9
$DIMFRAC
 70
     0
  9
$DIMLDRBLK
  1

  9
$DIMLUNIT
 70
     2
  9
$DIMLWD
 70
    -2
  9
$DIMLWE
 70
    -2
  9
$DIMTMOVE
 70
     0
  9
$DIMFXL
 40
1.0
  9
$DIMFXLON
 70
     0
  9
$DIMJOGANG
 40
0.7853981633974483
  9
$DIMTFILL
 70
     0
  9
$DIMTFILLCLR
 70
     0
  9
$DIMARCSYM
 70
     0
  9
$DIMLTYPE
  6

  9
$DIMLTEX1
  6

  9
$DIMLTEX2
  6

  9
$DIMTXTDIRECTION
 70
     0
  9
$LUNITS
 70
     2
  9
$LUPREC
 70
     4
  9
$SKETCHINC
 40
0.1
  9
$FILLETRAD
 40
0.5
  9
$AUNITS
 70
     0
  9
$AUPREC
 70
     0
  9
$MENU
  1
.
  9
$ELEVATION
 40
0.0
  9
$PELEVATION
 40
0.0
  9
$THICKNESS
 40
0.0
  9
$LIMCHECK
 70
     0
  9
$CHAMFERA
 40
0.5
  9
$CHAMFERB
 40
0.5
  9
$CHAMFERC
 40
1.0
  9
$CHAMFERD
 40
0.0
  9
$SKPOLY
 70
     0
  9
$TDCREATE
 40
2455781.397222222
  9
$TDUCREATE
 40
2455781.730555556
  9
$TDUPDATE
 40
2455781.397222222
  9
$TDUUPDATE
 40
2455781.730555567
  9
$TDINDWG
 40
0.0000000116
  9
$TDUSRTIMER
 40
0.0000000116
  9
$USRTIMER
 70
     1
  9
$ANGBASE
 50
0.0
  9
$ANGDIR
 70
     0
  9
$PDMODE
 70
     0
  9
$PDSIZE
 40
0.0
  9
$PLINEWID
 40
0.0
  9
$SPLFRAME
 70
     0
  9
$SPLINETYPE
 70
     6
  9
$SPLINESEGS
 70
     8
  9
$HANDSEED
  5
346
  9
$SURFTAB1
 70
     6
  9
$SURFTAB2
 70
     6
  9
$SURFTYPE
 70
     6
  9
$SURFU
 70
     6
  9
$SURFV
 70
     6
  9
$UCSBASE
  2

  9
$UCSNAME
  2

  9
$UCSORG
 10
0.0
 20
0.0
 30
0.0
  9
$UCSXDIR
 10
1.0
 20
0.0
 30
0.0
  9
$UCSYDIR
 10
0.0
 20
1.0
 30
0.0
  9
$UCSORTHOREF
  2

  9
$UCSORTHOVIEW
 70
     0
  9
$UCSORGTOP
 10
0.0
 20
0.0
 30
0.0
  9
$UCSORGBOTTOM
 10
0.0
 20
0.0
 30
0.0
  9
$UCSORGLEFT
 10
0.0
 20
0.0
 30
0.0
  9
$UCSORGRIGHT
 10
0.0
 20
0.0
 30
0.0
  9
$UCSORGFRONT
 10
0.0
 20
0.0
 30
0.0
  9
$UCSORGBACK
 10
0.0
 20
0.0
 30
0.0
  9
$PUCSBASE
  2

  9
$PUCSNAME
  2

  9
$PUCSORG
 10
0.0
 20
0.0
 30
0.0
  9
$PUCSXDIR
 10
1.0
 20
0.0
 30
0.0
  9
$PUCSYDIR
 10
0.0
 20
1.0
 30
0.0
  9
$PUCSORTHOREF
  2

  9
$PUCSORTHOVIEW
 70
     0
  9
$PUCSORGTOP
 10
0.0
 20
0.0
 30
0.0
  9
$PUCSORGBOTTOM
 10
0.0
 20
0.0
 30
0.0
  9
$PUCSORGLEFT
 10
0.0
 20
0.0
 30
0.0
  9
$PUCSORGRIGHT
 10
0.0
 20
0.0
 30
0.0
  9
$PUCSORGFRONT
 10
0.0
 20
0.0
 30
0.0
  9
$PUCSORGBACK
 10
0.0
 20
0.0
 30
0.0
  9
$USERI1
 70
     0
  9
$USERI2
 70
     0
  9
$USERI3
 70
     0
  9
$USERI4
 70
     0
  9
$USERI5
 70
     0
  9
$USERR1
 40
0.0
  9
$USERR2
 40
0.0
  9
$USERR3
 40
0.0
  9
$USERR4
 40
0.0
  9
$USERR5
 40
0.0
  9
$WORLDVIEW
 70
     1
  9
$SHADEDGE
 70
     3
  9
$SHADEDIF
 70
    70
  9
$TILEMODE
 70
     1
  9
$MAXACTVP
 70
    64
  9
$PINSBASE
 10
0.0
 20
0.0
 30
0.0
  9
$PLIMCHECK
 70
     0
  9
$PEXTMIN
 10
1.000000000000000E+20
 20
1.000000000000000E+20
 30
1.000000000000000E+20
  9
$PEXTMAX
 10
-1.000000000000000E+20
 20
-1.000000000000000E+20
 30
-1.000000000000000E+20
  9
$PLIMMIN
 10
0.0
 20
0.0
  9
$PLIMMAX
 10
12.0
 20
9.0
  9
$UNITMODE
 70
     0
  9
$VISRETAIN
 70
     1
  9
$PLINEGEN
 70
     0
  9
$PSLTSCALE
 70
     1
  9
$TREEDEPTH
 70
  3020
  9
$CMLSTYLE
  2
Standard
  9
$CMLJUST
 70
     0
  9
$CMLSCALE
 40
1.0
  9
$PROXYGRAPHICS
 70
     1
  9
$MEASUREMENT
 70
     0
  9
$CELWEIGHT
370
    -1
  9
$ENDCAPS
280
     0
  9
$JOINSTYLE
280
     0
  9
$LWDISPLAY
290
     0
  9
$INSUNITS
 70
     1
  9
$HYPERLINKBASE
  1

  9
$STYLESHEET
  1

  9
$XEDIT
290
     1
  9
$CEPSNTYPE
380
     0
  9
$PSTYLEMODE
290
     1
  9
$FINGERPRINTGUID
  2
{AAD66A86-30F9-7F91-B3C9-597E670F0605}
  9
$VERSIONGUID
  2
{FAEB1C32-E019-11D5-929B-00C0DF256EC4}
  9
$EXTNAMES
290
     1
  9
$PSVPSCALE
 40
0.0
  9
$OLESTARTUP
290
     0
  9
$SORTENTS
280
   127
  9
$INDEXCTL
280
     0
  9
$HIDETEXT
280
     1
  9
$XCLIPFRAME
280
     2
  9
$HALOGAP
280
     0
  9
$OBSCOLOR
 70
   257
  9
$OBSLTYPE
280
     0
  9
$INTERSECTIONDISPLAY
280
     0
  9
$INTERSECTIONCOLOR
 70
   257
  9
$DIMASSOC
280
     2
  9
$PROJECTNAME
  1

  9
$CAMERADISPLAY
290
     0
  9
$LENSLENGTH
 40
50.0
  9
$CAMERAHEIGHT
 40
0.0
  9
$STEPSPERSEC
 40
2.0
  9
$STEPSIZE
 40
6.0
  9
$3DDWFPREC
 40
2.0
  9
$PSOLWIDTH
 40
0.25
  9
$PSOLHEIGHT
 40
4.0
  9
$LOFTANG1
 40
1.570796326794897
  9
$LOFTANG2
 40
1.570796326794897
  9
$LOFTMAG1
 40
0.0
  9
$LOFTMAG2
 40
0.0
  9
$LOFTPARAM
 70
     7
  9
$LOFTNORMALS
280
     1
  9
$LATITUDE
 40
37.795
  9
$LONGITUDE
 40
-122.394
  9
$NORTHDIRECTION
 40
0.0
  9
$TIMEZONE
 70
 -8000
  9
$LIGHTGLYPHDISPLAY
280
     1
  9
$TILEMODELIGHTSYNCH
280
     1
  9
$SOLIDHIST
280
     1
  9
$SHOWHIST
280
     1
  9
$DWFFRAME
280
     2
  9
$DGNFRAME
280
     2
  9
$REALWORLDSCALE
290
     1
  9
$INTERFERECOLOR
 62
   256
  9
$CSHADOW
280
     0
  9
$SHADOWPLANELOCATION
 40
0.0
  0
ENDSEC
  0
SECTION
  2
CLASSES
  0
CLASS
  1
ACDBDICTIONARYWDFLT
  2
AcDbDictionaryWithDefault
  3
ObjectDBX Classes
 90
        0
 91
        4
280
     0
281
     0
  0
CLASS
  1
VISUALSTYLE
  2
AcDbVisualStyle
  3
ObjectDBX Classes
 90
     4095
 91
        4
280
     0
281
     0
  0
CLASS
  1
MATERIAL
  2
AcDbMaterial
  3
ObjectDBX Classes
 90
     1153
 91
        4
280
     0
281
     0
  0
ENDSEC
  0
SECTION
  2
TABLES
  0
TABLE
  2
VPORT
  5
8
330
0
100
AcDbSymbolTable
 70
     1
  0
VPORT
  5
29
330
8
100
AcDbSymbolTableRecord
100
AcDbViewportTableRecord
  2
*Active
 70
     0
 10
0.0
 20
0.0
 11
1.0
 21
1.0
 12
0.0
 22
0.0
 13
0.0
 23
0.0
 14
0.5
 24
0.5
 15
0.5
 25
0.5
 16
0.0
 26
0.0
 36
1.0
 17
0.0
 27
0.0
 37
-1000.0
 40
47.35959066186017
 41
1.499267935578331
 42
50.0
 43
34.29244421334226
 44
83.71298737186277
 50
0.0
 51
0.0
 71
     0
 72
   100
 73
     1
 74
     3
 75
     0
 76
     0
 77
     0
 78
     0
281
     0
 65
     1
110
0.0
120
0.0
130
0.0
111
1.0
121
0.0
131
0.0
112
0.0
122
1.0
132
0.0
 79
     0
146
0.0
 60
     3
 61
     5
292
     1
282
     1
141
0.0
142
0.0
 63
   250
  0
ENDTAB
  0
TABLE
  2
LTYPE
  5
5
330
0
100
AcDbSymbolTable
 70
     1
  0
LTYPE
  5
14
330
5
100
AcDbSymbolTableRecord
100
AcDbLinetypeTableRecord
  2
ByBlock
 70
     0
  3

 72
    65
 73
     0
 40
0.0
  0
LTYPE
  5
15
330
5
100
AcDbSymbolTableRecord
100
AcDbLinetypeTableRecord
  2
ByLayer
 70
     0
  3

 72
    65
 73
     0
 40
0.0
  0
LTYPE
  5
16
330
5
100
AcDbSymbolTableRecord
100
AcDbLinetypeTableRecord
  2
Continuous
 70
     0
  3
Solid line
 72
    65
 73
     0
 40
0.0
  0
ENDTAB
  0
TABLE
  2
LAYER
  5
2
330
0
100
AcDbSymbolTable
 70
     3
  0
LAYER
  5
10
330
2
100
AcDbSymbolTableRecord
100
AcDbLayerTableRecord
  2
0
 70
     0
 62
     7
  6
Continuous
370
    -3
390
F
347
3E
  0
LAYER
  5
3F
330
2
100
AcDbSymbolTableRecord
100
AcDbLayerTableRecord
  2
ProfileEdges
 70
     0
 62
     7
  6
Continuous
370
    -3
390
F
347
3E
  0
LAYER
  5
40
330
2
100
AcDbSymbolTableRecord
100
AcDbLayerTableRecord
  2
SectionCutEdges
 70
     0
 62
     7
  6
Continuous
370
    -3
390
F
347
3E
  0
ENDTAB
  0
TABLE
  2
STYLE
  5
3
330
0
100
AcDbSymbolTable
 70
     1
  0
STYLE
  5
11
330
3
100
AcDbSymbolTableRecord
100
AcDbTextStyleTableRecord
  2
Standard
 70
     0
 40
0.0
 41
1.0
 50
0.0
 71
     0
 42
0.2
  3
txt
  4

  0
ENDTAB
  0
TABLE
  2
VIEW
  5
6
330
0
100
AcDbSymbolTable
 70
     0
  0
ENDTAB
  0
TABLE
  2
UCS
  5
7
330
0
100
AcDbSymbolTable
 70
     0
  0
ENDTAB
  0
TABLE
  2
APPID
  5
9
330
0
100
AcDbSymbolTable
 70
     1
  0
APPID
  5
12
330
9
100
AcDbSymbolTableRecord
100
AcDbRegAppTableRecord
  2
ACAD
 70
     0
  0
ENDTAB
  0
TABLE
  2
DIMSTYLE
  5
A
330
0
100
AcDbSymbolTable
 70
     1
100
AcDbDimStyleTable
  0
DIMSTYLE
105
27
330
A
100
AcDbSymbolTableRecord
100
AcDbDimStyleTableRecord
  2
Standard
 70
     0
340
11
  0
ENDTAB
  0
TABLE
  2
BLOCK_RECORD
  5
1
330
0
100
AcDbSymbolTable
 70
     1
  0
BLOCK_RECORD
  5
1F
330
1
100
AcDbSymbolTableRecord
100
AcDbBlockTableRecord
  2
*Model_Space
340
22
 70
     0
280
     1
281
     0
  0
BLOCK_RECORD
  5
1B
330
1
100
AcDbSymbolTableRecord
100
AcDbBlockTableRecord
  2
*Paper_Space
340
1E
 70
     0
280
     1
281
     0
  0
BLOCK_RECORD
  5
23
330
1
100
AcDbSymbolTableRecord
100
AcDbBlockTableRecord
  2
*Paper_Space0
340
26
 70
     0
280
     1
281
     0
  0
ENDTAB
  0
ENDSEC
  0
SECTION
  2
BLOCKS
  0
BLOCK
  5
20
330
1F
100
AcDbEntity
  8
0
100
AcDbBlockBegin
  2
*Model_Space
 70
     0
 10
0.0
 20
0.0
 30
0.0
  3
*Model_Space
  1

  0
ENDBLK
  5
21
330
1F
100
AcDbEntity
  8
0
100
AcDbBlockEnd
  0
BLOCK
  5
1C
330
1B
100
AcDbEntity
 67
     1
  8
0
100
AcDbBlockBegin
  2
*Paper_Space
 70
     0
 10
0.0
 20
0.0
 30
0.0
  3
*Paper_Space
  1

  0
ENDBLK
  5
1D
330
1B
100
AcDbEntity
 67
     1
  8
0
100
AcDbBlockEnd
  0
BLOCK
  5
24
330
23
100
AcDbEntity
  8
0
100
AcDbBlockBegin
  2
*Paper_Space0
 70
     0
 10
0.0
 20
0.0
 30
0.0
  3
*Paper_Space0
  1

  0
ENDBLK
  5
25
330
23
100
AcDbEntity
  8
0
100
AcDbBlockEnd
  0
ENDSEC
  0
SECTION
  2
ENTITIES
  0
LINE
  5
41
330
1F
100
AcDbEntity
  8
0
 62
   178
420
        0
100
AcDbLine
 10
-6.880939978788485
 20
3.927445790829058
 30
0.0
 11
-5.909642667156512
 21
3.6895770614498
 31
0.0
  0
LINE
  5
42
330
1F
100
AcDbEntity
  8
0
 62
   178
420
        0
100
AcDbLine
 10
-6.999874343478115
 20
-21.7821993762458
 30
0.0
 11
-6.999874343478114
 21
3.441797135013072
 31
0.0
  0
LINE
  5
43
330
1F
100
AcDbEntity
  8
0
 62
   178
420
        0
100
AcDbLine
 10
-5.143735847492213
 20
2.875780453528154
 30
0.0
 11
-5.113865343664798
 21
2.888917079029522
 31
0.0
  0
LINE
  5
44
330
1F
100
AcDbEntity
  8
0
 62
   178
420
        0
100
AcDbLine
 10
-4.93834535552454
 20
3.451708332070542
 30
0.0
 11
-3.967048043892566
 21
3.21383960269128
 31
0.0
  0
LINE
  5
45
330
1F
100
AcDbEntity
  8
0
 62
   178
420
        0
100
AcDbLine
 10
-4.085982408582198
 20
-22.49580556438358
 30
0.0
 11
-6.999874343478115
 21
-21.7821993762458
 31
0.0
  0
LINE
  5
46
330
1F
100
AcDbEntity
  8
0
 62
   178
420
        0
100
AcDbLine
 10
-5.057279720214169
 20
2.966059676254556
 30
0.0
 11
-4.93834535552454
 21
3.451708332070542
 31
0.0
  0
LINE
  5
47
330
1F
100
AcDbEntity
  8
0
 62
   178
420
        0
100
AcDbLine
 10
-5.175988547451515
 20
2.870822502963446
 30
0.0
 11
-5.143735847492213
 21
2.875780453528154
 31
0.0
  0
LINE
  5
48
330
1F
100
AcDbEntity
  8
0
 62
   178
420
        0
100
AcDbLine
 10
-5.113865343664798
 20
2.888917079029522
 30
0.0
 11
-5.088412661441762
 21
2.909337140148921
 31
0.0
  0
LINE
  5
49
330
1F
100
AcDbEntity
  8
0
 62
   178
420
        0
100
AcDbLine
 10
-5.088412661441762
 20
2.909337140148921
 30
0.0
 11
-5.069112359054071
 21
2.935649043466814
 31
0.0
  0
LINE
  5
4A
330
1F
100
AcDbEntity
  8
0
 62
   178
420
        0
100
AcDbLine
 10
-5.069112359054071
 20
2.935649043466814
 30
0.0
 11
-5.057279720214169
 21
2.966059676254556
 31
0.0
  0
LINE
  5
4B
330
1F
100
AcDbEntity
  8
0
 62
   178
420
        0
100
AcDbLine
 10
-3.967048043892566
 20
3.21383960269128
 30
0.0
 11
-4.085982408582195
 21
2.728190946875294
 31
0.0
  0
LINE
  5
4C
330
1F
100
AcDbEntity
  8
0
 62
   178
420
        0
100
AcDbLine
 10
-4.085982408582195
 20
2.728190946875294
 30
0.0
 11
-4.082265709685645
 21
-17.84765009284178
 31
0.0
  0
LINE
  5
4D
330
1F
100
AcDbEntity
  8
0
 62
   178
420
        0
100
AcDbLine
 10
-5.182098858156671
 20
-17.57830319933867
 30
0.0
 11
-5.178540257647152
 21
-17.54586627144961
 31
0.0
  0
LINE
  5
4E
330
1F
100
AcDbEntity
  8
0
 62
   178
420
        0
100
AcDbLine
 10
-5.178540257647152
 20
-17.54586627144961
 30
0.0
 11
-5.183498208211857
 21
-17.51361357149031
 31
0.0
  0
LINE
  5
4F
330
1F
100
AcDbEntity
  8
0
 62
   178
420
        0
100
AcDbLine
 10
-5.183498208211857
 20
-17.51361357149031
 30
0.0
 11
-5.196634833713225
 21
-17.4837430676629
 31
0.0
  0
LINE
  5
50
330
1F
100
AcDbEntity
  8
0
 62
   178
420
        0
100
AcDbLine
 10
-5.196634833713225
 20
-17.4837430676629
 30
0.0
 11
-5.217054894832623
 21
-17.45829038543987
 31
0.0
  0
LINE
  5
51
330
1F
100
AcDbEntity
  8
0
 62
   178
420
        0
100
AcDbLine
 10
-5.217054894832623
 20
-17.45829038543987
 30
0.0
 11
-5.24336679815052
 21
-17.43899008305217
 31
0.0
  0
LINE
  5
52
330
1F
100
AcDbEntity
  8
0
 62
   178
420
        0
100
AcDbLine
 10
-5.24336679815052
 20
-17.43899008305217
 30
0.0
 11
-5.27377743093826
 21
-17.42715744421227
 31
0.0
  0
LINE
  5
53
330
1F
100
AcDbEntity
  8
0
 62
   178
420
        0
100
AcDbLine
 10
-5.27377743093826
 20
-17.42715744421227
 30
0.0
 11
-5.306214358827319
 21
-17.42359884370275
 31
0.0
  0
LINE
  5
54
330
1F
100
AcDbEntity
  8
0
 62
   178
420
        0
100
AcDbLine
 10
-5.306214358827319
 20
-17.42359884370275
 30
0.0
 11
-5.33846705878662
 21
-17.42855679426746
 31
0.0
  0
LINE
  5
55
330
1F
100
AcDbEntity
  8
0
 62
   178
420
        0
100
AcDbLine
 10
-5.33846705878662
 20
-17.42855679426746
 30
0.0
 11
-5.368337562614034
 21
-17.44169341976882
 31
0.0
  0
LINE
  5
56
330
1F
100
AcDbEntity
  8
0
 62
   178
420
        0
100
AcDbLine
 10
-5.368337562614034
 20
-17.44169341976882
 30
0.0
 11
-5.393790244837071
 21
-17.46211348088822
 31
0.0
  0
LINE
  5
57
330
1F
100
AcDbEntity
  8
0
 62
   178
420
        0
100
AcDbLine
 10
-5.393790244837071
 20
-17.46211348088822
 30
0.0
 11
-5.413090547224761
 21
-17.48842538420611
 31
0.0
  0
LINE
  5
58
330
1F
100
AcDbEntity
  8
0
 62
   178
420
        0
100
AcDbLine
 10
-5.413090547224761
 20
-17.48842538420611
 30
0.0
 11
-5.424923186064664
 21
-17.51883601699386
 31
0.0
  0
LINE
  5
59
330
1F
100
AcDbEntity
  8
0
 62
   178
420
        0
100
AcDbLine
 10
-5.551290948547395
 20
-18.03483771379834
 30
0.0
 11
-5.554849549056915
 21
-18.0672746416874
 31
0.0
  0
LINE
  5
5A
330
1F
100
AcDbEntity
  8
0
 62
   178
420
        0
100
AcDbLine
 10
-5.554849549056915
 20
-18.0672746416874
 30
0.0
 11
-5.549891598492209
 21
-18.0995273416467
 31
0.0
  0
LINE
  5
5B
330
1F
100
AcDbEntity
  8
0
 62
   178
420
        0
100
AcDbLine
 10
-5.549891598492209
 20
-18.0995273416467
 30
0.0
 11
-5.536754972990841
 21
-18.12939784547412
 31
0.0
  0
LINE
  5
5C
330
1F
100
AcDbEntity
  8
0
 62
   178
420
        0
100
AcDbLine
 10
-5.536754972990841
 20
-18.12939784547412
 30
0.0
 11
-5.516334911871443
 21
-18.15485052769715
 31
0.0
  0
LINE
  5
5D
330
1F
100
AcDbEntity
  8
0
 62
   178
420
        0
100
AcDbLine
 10
-5.516334911871443
 20
-18.15485052769715
 30
0.0
 11
-5.490023008553547
 21
-18.17415083008485
 31
0.0
  0
LINE
  5
5E
330
1F
100
AcDbEntity
  8
0
 62
   178
420
        0
100
AcDbLine
 10
-5.490023008553547
 20
-18.17415083008485
 30
0.0
 11
-5.459612375765806
 21
-18.18598346892475
 31
0.0
  0
LINE
  5
5F
330
1F
100
AcDbEntity
  8
0
 62
   178
420
        0
100
AcDbLine
 10
-5.459612375765806
 20
-18.18598346892475
 30
0.0
 11
-5.427175447876748
 21
-18.18954206943427
 31
0.0
  0
LINE
  5
60
330
1F
100
AcDbEntity
  8
0
 62
   178
420
        0
100
AcDbLine
 10
-5.427175447876748
 20
-18.18954206943427
 30
0.0
 11
-5.394922747917446
 21
-18.18458411886956
 31
0.0
  0
LINE
  5
61
330
1F
100
AcDbEntity
  8
0
 62
   178
420
        0
100
AcDbLine
 10
-5.394922747917446
 20
-18.18458411886956
 30
0.0
 11
-5.365052244090032
 21
-18.17144749336819
 31
0.0
  0
LINE
  5
62
330
1F
100
AcDbEntity
  8
0
 62
   178
420
        0
100
AcDbLine
 10
-5.365052244090032
 20
-18.17144749336819
 30
0.0
 11
-5.339599561866995
 21
-18.1510274322488
 31
0.0
  0
LINE
  5
63
330
1F
100
AcDbEntity
  8
0
 62
   178
420
        0
100
AcDbLine
 10
-5.339599561866995
 20
-18.1510274322488
 30
0.0
 11
-5.320299259479306
 21
-18.1247155289309
 31
0.0
  0
LINE
  5
64
330
1F
100
AcDbEntity
  8
0
 62
   178
420
        0
100
AcDbLine
 10
-5.320299259479306
 20
-18.1247155289309
 30
0.0
 11
-5.308466620639402
 21
-18.09430489614316
 31
0.0
  0
LINE
  5
65
330
1F
100
AcDbEntity
  8
0
 62
   178
420
        0
100
AcDbLine
 10
-5.308466620639402
 20
-18.09430489614316
 30
0.0
 11
-4.089699107478745
 21
-18.39277857283556
 31
0.0
  0
LINE
  5
66
330
1F
100
AcDbEntity
  8
0
 62
   178
420
        0
100
AcDbLine
 10
-4.089699107478745
 20
-18.39277857283556
 30
0.0
 11
-4.085982408582198
 21
-22.49580556438358
 31
0.0
  0
LINE
  5
67
330
1F
100
AcDbEntity
  8
0
 62
   178
420
        0
100
AcDbLine
 10
-6.999874343478114
 20
3.441797135013072
 30
0.0
 11
-6.880939978788485
 21
3.927445790829058
 31
0.0
  0
LINE
  5
68
330
1F
100
AcDbEntity
  8
0
 62
   178
420
        0
100
AcDbLine
 10
-5.909642667156512
 20
3.6895770614498
 30
0.0
 11
-6.028577031846141
 21
3.203928405633814
 31
0.0
  0
LINE
  5
69
330
1F
100
AcDbEntity
  8
0
 62
   178
420
        0
100
AcDbLine
 10
-6.028577031846141
 20
3.203928405633814
 30
0.0
 11
-6.03213563235566
 21
3.171491477744755
 31
0.0
  0
LINE
  5
6A
330
1F
100
AcDbEntity
  8
0
 62
   178
420
        0
100
AcDbLine
 10
-6.03213563235566
 20
3.171491477744755
 30
0.0
 11
-6.027177681790955
 21
3.139238777785458
 31
0.0
  0
LINE
  5
6B
330
1F
100
AcDbEntity
  8
0
 62
   178
420
        0
100
AcDbLine
 10
-6.027177681790955
 20
3.139238777785458
 30
0.0
 11
-6.014041056289587
 21
3.10936827395804
 31
0.0
  0
LINE
  5
6C
330
1F
100
AcDbEntity
  8
0
 62
   178
420
        0
100
AcDbLine
 10
-6.014041056289587
 20
3.10936827395804
 30
0.0
 11
-5.993620995170189
 21
3.083915591735007
 31
0.0
  0
LINE
  5
6D
330
1F
100
AcDbEntity
  8
0
 62
   178
420
        0
100
AcDbLine
 10
-5.993620995170189
 20
3.083915591735007
 30
0.0
 11
-5.967309091852293
 21
3.064615289347309
 31
0.0
  0
LINE
  5
6E
330
1F
100
AcDbEntity
  8
0
 62
   178
420
        0
100
AcDbLine
 10
-5.967309091852293
 20
3.064615289347309
 30
0.0
 11
-5.936898459064552
 21
3.05278265050741
 31
0.0
  0
LINE
  5
6F
330
1F
100
AcDbEntity
  8
0
 62
   178
420
        0
100
AcDbLine
 10
-5.936898459064552
 20
3.05278265050741
 30
0.0
 11
-5.904461531175494
 21
3.049224049997889
 31
0.0
  0
LINE
  5
70
330
1F
100
AcDbEntity
  8
0
 62
   178
420
        0
100
AcDbLine
 10
-5.904461531175494
 20
3.049224049997889
 30
0.0
 11
-5.872208831216192
 21
3.054182000562601
 31
0.0
  0
LINE
  5
71
330
1F
100
AcDbEntity
  8
0
 62
   178
420
        0
100
AcDbLine
 10
-5.872208831216192
 20
3.054182000562601
 30
0.0
 11
-5.842338327388777
 21
3.067318626063965
 31
0.0
  0
LINE
  5
72
330
1F
100
AcDbEntity
  8
0
 62
   178
420
        0
100
AcDbLine
 10
-5.842338327388777
 20
3.067318626063965
 30
0.0
 11
-5.816885645165741
 21
3.087738687183364
 31
0.0
  0
LINE
  5
73
330
1F
100
AcDbEntity
  8
0
 62
   178
420
        0
100
AcDbLine
 10
-5.816885645165741
 20
3.087738687183364
 30
0.0
 11
-5.797585342778051
 21
3.114050590501257
 31
0.0
  0
LINE
  5
74
330
1F
100
AcDbEntity
  8
0
 62
   178
420
        0
100
AcDbLine
 10
-5.797585342778051
 20
3.114050590501257
 30
0.0
 11
-5.785752703938147
 21
3.144461223288999
 31
0.0
  0
LINE
  5
75
330
1F
100
AcDbEntity
  8
0
 62
   178
420
        0
100
AcDbLine
 10
-5.785752703938147
 20
3.144461223288999
 30
0.0
 11
-5.300104048122162
 21
3.02552685859937
 31
0.0
  0
LINE
  5
76
330
1F
100
AcDbEntity
  8
0
 62
   178
420
        0
100
AcDbLine
 10
-5.300104048122162
 20
3.02552685859937
 30
0.0
 11
-5.30366264863168
 21
2.993089930710308
 31
0.0
  0
LINE
  5
77
330
1F
100
AcDbEntity
  8
0
 62
   178
420
        0
100
AcDbLine
 10
-5.30366264863168
 20
2.993089930710308
 30
0.0
 11
-5.298704698066976
 21
2.960837230751014
 31
0.0
  0
LINE
  5
78
330
1F
100
AcDbEntity
  8
0
 62
   178
420
        0
100
AcDbLine
 10
-5.298704698066976
 20
2.960837230751014
 30
0.0
 11
-5.285568072565606
 21
2.930966726923597
 31
0.0
  0
LINE
  5
79
330
1F
100
AcDbEntity
  8
0
 62
   178
420
        0
100
AcDbLine
 10
-5.285568072565606
 20
2.930966726923597
 30
0.0
 11
-5.265148011446209
 21
2.905514044700563
 31
0.0
  0
LINE
  5
7A
330
1F
100
AcDbEntity
  8
0
 62
   178
420
        0
100
AcDbLine
 10
-5.265148011446209
 20
2.905514044700563
 30
0.0
 11
-5.238836108128313
 21
2.886213742312865
 31
0.0
  0
LINE
  5
7B
330
1F
100
AcDbEntity
  8
0
 62
   178
420
        0
100
AcDbLine
 10
-5.238836108128313
 20
2.886213742312865
 30
0.0
 11
-5.208425475340572
 21
2.874381103472967
 31
0.0
  0
LINE
  5
7C
330
1F
100
AcDbEntity
  8
0
 62
   178
420
        0
100
AcDbLine
 10
-5.208425475340572
 20
2.874381103472967
 30
0.0
 11
-5.175988547451515
 21
2.870822502963446
 31
0.0
  0
LINE
  5
7D
330
1F
100
AcDbEntity
  8
0
 62
   178
420
        0
100
AcDbLine
 10
-5.182098858156671
 20
-17.57830319933867
 30
0.0
 11
-4.082265709685645
 21
-17.84765009284178
 31
0.0
  0
LINE
  5
7E
330
1F
100
AcDbEntity
  8
0
 62
   178
420
        0
100
AcDbLine
 10
-5.551290948547395
 20
-18.03483771379834
 30
0.0
 11
-5.424923186064664
 21
-17.51883601699386
 31
0.0
  0
LINE
  5
7F
330
1F
100
AcDbEntity
  8
0
 62
   178
420
        0
100
AcDbLine
 10
-2.995750732260598
 20
3.941797135012916
 30
0.0
 11
-2.024453420628626
 21
3.703928405633658
 31
0.0
  0
LINE
  5
80
330
1F
100
AcDbEntity
  8
0
 62
   178
420
        0
100
AcDbLine
 10
-3.114685096950228
 20
-21.76784803206194
 30
0.0
 11
-3.114685096950227
 21
3.45614847919693
 31
0.0
  0
LINE
  5
81
330
1F
100
AcDbEntity
  8
0
 62
   178
420
        0
100
AcDbLine
 10
-1.258546600964326
 20
2.890131797712012
 30
0.0
 11
-1.228676097136911
 21
2.90326842321338
 31
0.0
  0
LINE
  5
82
330
1F
100
AcDbEntity
  8
0
 62
   178
420
        0
100
AcDbLine
 10
-1.053156108996653
 20
3.4660596762544
 30
0.0
 11
-0.0818587973646796
 21
3.228190946875138
 31
0.0
  0
LINE
  5
83
330
1F
100
AcDbEntity
  8
0
 62
   178
420
        0
100
AcDbLine
 10
-0.2007931620543112
 20
-22.48145422019972
 30
0.0
 11
-3.114685096950228
 21
-21.76784803206194
 31
0.0
  0
LINE
  5
84
330
1F
100
AcDbEntity
  8
0
 62
   178
420
        0
100
AcDbLine
 10
-1.172090473686282
 20
2.980411020438414
 30
0.0
 11
-1.053156108996653
 21
3.4660596762544
 31
0.0
  0
LINE
  5
85
330
1F
100
AcDbEntity
  8
0
 62
   178
420
        0
100
AcDbLine
 10
-1.290799300923628
 20
2.885173847147303
 30
0.0
 11
-1.258546600964326
 21
2.890131797712012
 31
0.0
  0
LINE
  5
86
330
1F
100
AcDbEntity
  8
0
 62
   178
420
        0
100
AcDbLine
 10
-1.228676097136911
 20
2.90326842321338
 30
0.0
 11
-1.203223414913875
 21
2.923688484332779
 31
0.0
  0
LINE
  5
87
330
1F
100
AcDbEntity
  8
0
 62
   178
420
        0
100
AcDbLine
 10
-1.203223414913875
 20
2.923688484332779
 30
0.0
 11
-1.183923112526185
 21
2.950000387650672
 31
0.0
  0
LINE
  5
88
330
1F
100
AcDbEntity
  8
0
 62
   178
420
        0
100
AcDbLine
 10
-1.183923112526185
 20
2.950000387650672
 30
0.0
 11
-1.172090473686282
 21
2.980411020438414
 31
0.0
  0
LINE
  5
89
330
1F
100
AcDbEntity
  8
0
 62
   178
420
        0
100
AcDbLine
 10
-0.0818587973646796
 20
3.228190946875138
 30
0.0
 11
-0.2007931620543086
 21
2.742542291059152
 31
0.0
  0
LINE
  5
8A
330
1F
100
AcDbEntity
  8
0
 62
   178
420
        0
100
AcDbLine
 10
-0.2007931620543086
 20
2.742542291059152
 30
0.0
 11
-0.1970764631577584
 21
-17.83329874865792
 31
0.0
  0
LINE
  5
8B
330
1F
100
AcDbEntity
  8
0
 62
   178
420
        0
100
AcDbLine
 10
-1.296909611628784
 20
-17.56395185515482
 30
0.0
 11
-1.293351011119266
 21
-17.53151492726575
 31
0.0
  0
LINE
  5
8C
330
1F
100
AcDbEntity
  8
0
 62
   178
420
        0
100
AcDbLine
 10
-1.293351011119266
 20
-17.53151492726575
 30
0.0
 11
-1.29830896168397
 21
-17.49926222730646
 31
0.0
  0
LINE
  5
8D
330
1F
100
AcDbEntity
  8
0
 62
   178
420
        0
100
AcDbLine
 10
-1.29830896168397
 20
-17.49926222730646
 30
0.0
 11
-1.311445587185339
 21
-17.46939172347904
 31
0.0
  0
LINE
  5
8E
330
1F
100
AcDbEntity
  8
0
 62
   178
420
        0
100
AcDbLine
 10
-1.311445587185339
 20
-17.46939172347904
 30
0.0
 11
-1.331865648304737
 21
-17.44393904125601
 31
0.0
  0
LINE
  5
8F
330
1F
100
AcDbEntity
  8
0
 62
   178
420
        0
100
AcDbLine
 10
-1.331865648304737
 20
-17.44393904125601
 30
0.0
 11
-1.358177551622633
 21
-17.42463873886831
 31
0.0
  0
LINE
  5
90
330
1F
100
AcDbEntity
  8
0
 62
   178
420
        0
100
AcDbLine
 10
-1.358177551622633
 20
-17.42463873886831
 30
0.0
 11
-1.388588184410374
 21
-17.41280610002841
 31
0.0
  0
LINE
  5
91
330
1F
100
AcDbEntity
  8
0
 62
   178
420
        0
100
AcDbLine
 10
-1.388588184410374
 20
-17.41280610002841
 30
0.0
 11
-1.421025112299432
 21
-17.40924749951889
 31
0.0
  0
LINE
  5
92
330
1F
100
AcDbEntity
  8
0
 62
   178
420
        0
100
AcDbLine
 10
-1.421025112299432
 20
-17.40924749951889
 30
0.0
 11
-1.453277812258733
 21
-17.4142054500836
 31
0.0
  0
LINE
  5
93
330
1F
100
AcDbEntity
  8
0
 62
   178
420
        0
100
AcDbLine
 10
-1.453277812258733
 20
-17.4142054500836
 30
0.0
 11
-1.483148316086147
 21
-17.42734207558497
 31
0.0
  0
LINE
  5
94
330
1F
100
AcDbEntity
  8
0
 62
   178
420
        0
100
AcDbLine
 10
-1.483148316086147
 20
-17.42734207558497
 30
0.0
 11
-1.508600998309184
 21
-17.44776213670436
 31
0.0
  0
LINE
  5
95
330
1F
100
AcDbEntity
  8
0
 62
   178
420
        0
100
AcDbLine
 10
-1.508600998309184
 20
-17.44776213670436
 30
0.0
 11
-1.527901300696874
 21
-17.47407404002226
 31
0.0
  0
LINE
  5
96
330
1F
100
AcDbEntity
  8
0
 62
   178
420
        0
100
AcDbLine
 10
-1.527901300696874
 20
-17.47407404002226
 30
0.0
 11
-1.539733939536777
 21
-17.50448467281
 31
0.0
  0
LINE
  5
97
330
1F
100
AcDbEntity
  8
0
 62
   178
420
        0
100
AcDbLine
 10
-1.666101702019509
 20
-18.02048636961448
 30
0.0
 11
-1.669660302529028
 21
-18.05292329750355
 31
0.0
  0
LINE
  5
98
330
1F
100
AcDbEntity
  8
0
 62
   178
420
        0
100
AcDbLine
 10
-1.669660302529028
 20
-18.05292329750355
 30
0.0
 11
-1.664702351964323
 21
-18.08517599746284
 31
0.0
  0
LINE
  5
99
330
1F
100
AcDbEntity
  8
0
 62
   178
420
        0
100
AcDbLine
 10
-1.664702351964323
 20
-18.08517599746284
 30
0.0
 11
-1.651565726462954
 21
-18.11504650129026
 31
0.0
  0
LINE
  5
9A
330
1F
100
AcDbEntity
  8
0
 62
   178
420
        0
100
AcDbLine
 10
-1.651565726462954
 20
-18.11504650129026
 30
0.0
 11
-1.631145665343556
 21
-18.14049918351329
 31
0.0
  0
LINE
  5
9B
330
1F
100
AcDbEntity
  8
0
 62
   178
420
        0
100
AcDbLine
 10
-1.631145665343556
 20
-18.14049918351329
 30
0.0
 11
-1.604833762025661
 21
-18.15979948590099
 31
0.0
  0
LINE
  5
9C
330
1F
100
AcDbEntity
  8
0
 62
   178
420
        0
100
AcDbLine
 10
-1.604833762025661
 20
-18.15979948590099
 30
0.0
 11
-1.574423129237919
 21
-18.17163212474089
 31
0.0
  0
LINE
  5
9D
330
1F
100
AcDbEntity
  8
0
 62
   178
420
        0
100
AcDbLine
 10
-1.574423129237919
 20
-18.17163212474089
 30
0.0
 11
-1.541986201348862
 21
-18.17519072525041
 31
0.0
  0
LINE
  5
9E
330
1F
100
AcDbEntity
  8
0
 62
   178
420
        0
100
AcDbLine
 10
-1.541986201348862
 20
-18.17519072525041
 30
0.0
 11
-1.50973350138956
 21
-18.1702327746857
 31
0.0
  0
LINE
  5
9F
330
1F
100
AcDbEntity
  8
0
 62
   178
420
        0
100
AcDbLine
 10
-1.50973350138956
 20
-18.1702327746857
 30
0.0
 11
-1.479862997562146
 21
-18.15709614918433
 31
0.0
  0
LINE
  5
A0
330
1F
100
AcDbEntity
  8
0
 62
   178
420
        0
100
AcDbLine
 10
-1.479862997562146
 20
-18.15709614918433
 30
0.0
 11
-1.454410315339109
 21
-18.13667608806494
 31
0.0
  0
LINE
  5
A1
330
1F
100
AcDbEntity
  8
0
 62
   178
420
        0
100
AcDbLine
 10
-1.454410315339109
 20
-18.13667608806494
 30
0.0
 11
-1.435110012951419
 21
-18.11036418474704
 31
0.0
  0
LINE
  5
A2
330
1F
100
AcDbEntity
  8
0
 62
   178
420
        0
100
AcDbLine
 10
-1.435110012951419
 20
-18.11036418474704
 30
0.0
 11
-1.423277374111516
 21
-18.0799535519593
 31
0.0
  0
LINE
  5
A3
330
1F
100
AcDbEntity
  8
0
 62
   178
420
        0
100
AcDbLine
 10
-1.423277374111516
 20
-18.0799535519593
 30
0.0
 11
-0.2045098609508589
 21
-18.37842722865171
 31
0.0
  0
LINE
  5
A4
330
1F
100
AcDbEntity
  8
0
 62
   178
420
        0
100
AcDbLine
 10
-0.2045098609508589
 20
-18.37842722865171
 30
0.0
 11
-0.2007931620543112
 21
-22.48145422019972
 31
0.0
  0
LINE
  5
A5
330
1F
100
AcDbEntity
  8
0
 62
   178
420
        0
100
AcDbLine
 10
-3.114685096950227
 20
3.45614847919693
 30
0.0
 11
-2.995750732260598
 21
3.941797135012916
 31
0.0
  0
LINE
  5
A6
330
1F
100
AcDbEntity
  8
0
 62
   178
420
        0
100
AcDbLine
 10
-2.024453420628626
 20
3.703928405633658
 30
0.0
 11
-2.143387785318255
 21
3.218279749817672
 31
0.0
  0
LINE
  5
A7
330
1F
100
AcDbEntity
  8
0
 62
   178
420
        0
100
AcDbLine
 10
-2.143387785318255
 20
3.218279749817672
 30
0.0
 11
-2.146946385827773
 21
3.185842821928613
 31
0.0
  0
LINE
  5
A8
330
1F
100
AcDbEntity
  8
0
 62
   178
420
        0
100
AcDbLine
 10
-2.146946385827773
 20
3.185842821928613
 30
0.0
 11
-2.141988435263069
 21
3.153590121969316
 31
0.0
  0
LINE
  5
A9
330
1F
100
AcDbEntity
  8
0
 62
   178
420
        0
100
AcDbLine
 10
-2.141988435263069
 20
3.153590121969316
 30
0.0
 11
-2.1288518097617
 21
3.123719618141898
 31
0.0
  0
LINE
  5
AA
330
1F
100
AcDbEntity
  8
0
 62
   178
420
        0
100
AcDbLine
 10
-2.1288518097617
 20
3.123719618141898
 30
0.0
 11
-2.108431748642302
 21
3.098266935918865
 31
0.0
  0
LINE
  5
AB
330
1F
100
AcDbEntity
  8
0
 62
   178
420
        0
100
AcDbLine
 10
-2.108431748642302
 20
3.098266935918865
 30
0.0
 11
-2.082119845324407
 21
3.078966633531167
 31
0.0
  0
LINE
  5
AC
330
1F
100
AcDbEntity
  8
0
 62
   178
420
        0
100
AcDbLine
 10
-2.082119845324407
 20
3.078966633531167
 30
0.0
 11
-2.051709212536665
 21
3.067133994691268
 31
0.0
  0
LINE
  5
AD
330
1F
100
AcDbEntity
  8
0
 62
   178
420
        0
100
AcDbLine
 10
-2.051709212536665
 20
3.067133994691268
 30
0.0
 11
-2.019272284647608
 21
3.063575394181747
 31
0.0
  0
LINE
  5
AE
330
1F
100
AcDbEntity
  8
0
 62
   178
420
        0
100
AcDbLine
 10
-2.019272284647608
 20
3.063575394181747
 30
0.0
 11
-1.987019584688306
 21
3.068533344746459
 31
0.0
  0
LINE
  5
AF
330
1F
100
AcDbEntity
  8
0
 62
   178
420
        0
100
AcDbLine
 10
-1.987019584688306
 20
3.068533344746459
 30
0.0
 11
-1.957149080860891
 21
3.081669970247823
 31
0.0
  0
LINE
  5
B0
330
1F
100
AcDbEntity
  8
0
 62
   178
420
        0
100
AcDbLine
 10
-1.957149080860891
 20
3.081669970247823
 30
0.0
 11
-1.931696398637855
 21
3.102090031367222
 31
0.0
  0
LINE
  5
B1
330
1F
100
AcDbEntity
  8
0
 62
   178
420
        0
100
AcDbLine
 10
-1.931696398637855
 20
3.102090031367222
 30
0.0
 11
-1.912396096250164
 21
3.128401934685115
 31
0.0
  0
LINE
  5
B2
330
1F
100
AcDbEntity
  8
0
 62
   178
420
        0
100
AcDbLine
 10
-1.912396096250164
 20
3.128401934685115
 30
0.0
 11
-1.900563457410261
 21
3.158812567472857
 31
0.0
  0
LINE
  5
B3
330
1F
100
AcDbEntity
  8
0
 62
   178
420
        0
100
AcDbLine
 10
-1.900563457410261
 20
3.158812567472857
 30
0.0
 11
-1.414914801594275
 21
3.039878202783228
 31
0.0
  0
LINE
  5
B4
330
1F
100
AcDbEntity
  8
0
 62
   178
420
        0
100
AcDbLine
 10
-1.414914801594275
 20
3.039878202783228
 30
0.0
 11
-1.418473402103793
 21
3.007441274894166
 31
0.0
  0
LINE
  5
B5
330
1F
100
AcDbEntity
  8
0
 62
   178
420
        0
100
AcDbLine
 10
-1.418473402103793
 20
3.007441274894166
 30
0.0
 11
-1.413515451539089
 21
2.975188574934872
 31
0.0
  0
LINE
  5
B6
330
1F
100
AcDbEntity
  8
0
 62
   178
420
        0
100
AcDbLine
 10
-1.413515451539089
 20
2.975188574934872
 30
0.0
 11
-1.40037882603772
 21
2.945318071107454
 31
0.0
  0
LINE
  5
B7
330
1F
100
AcDbEntity
  8
0
 62
   178
420
        0
100
AcDbLine
 10
-1.40037882603772
 20
2.945318071107454
 30
0.0
 11
-1.379958764918323
 21
2.919865388884421
 31
0.0
  0
LINE
  5
B8
330
1F
100
AcDbEntity
  8
0
 62
   178
420
        0
100
AcDbLine
 10
-1.379958764918323
 20
2.919865388884421
 30
0.0
 11
-1.353646861600427
 21
2.900565086496723
 31
0.0
  0
LINE
  5
B9
330
1F
100
AcDbEntity
  8
0
 62
   178
420
        0
100
AcDbLine
 10
-1.353646861600427
 20
2.900565086496723
 30
0.0
 11
-1.323236228812686
 21
2.888732447656825
 31
0.0
  0
LINE
  5
BA
330
1F
100
AcDbEntity
  8
0
 62
   178
420
        0
100
AcDbLine
 10
-1.323236228812686
 20
2.888732447656825
 30
0.0
 11
-1.290799300923628
 21
2.885173847147303
 31
0.0
  0
LINE
  5
BB
330
1F
100
AcDbEntity
  8
0
 62
   178
420
        0
100
AcDbLine
 10
-1.296909611628784
 20
-17.56395185515482
 30
0.0
 11
-0.1970764631577584
 21
-17.83329874865792
 31
0.0
  0
LINE
  5
BC
330
1F
100
AcDbEntity
  8
0
 62
   178
420
        0
100
AcDbLine
 10
-1.666101702019509
 20
-18.02048636961448
 30
0.0
 11
-1.539733939536777
 21
-17.50448467281
 31
0.0
  0
LINE
  5
BD
330
1F
100
AcDbEntity
  8
0
 62
   178
420
        0
100
AcDbLine
 10
0.889438514267292
 20
3.941797135012919
 30
0.0
 11
1.860735825899265
 21
3.703928405633661
 31
0.0
  0
LINE
  5
BE
330
1F
100
AcDbEntity
  8
0
 62
   178
420
        0
100
AcDbLine
 10
0.7705041495776621
 20
-21.76784803206194
 30
0.0
 11
0.770504149577663
 21
3.456148479196933
 31
0.0
  0
LINE
  5
BF
330
1F
100
AcDbEntity
  8
0
 62
   178
420
        0
100
AcDbLine
 10
2.626642645563564
 20
2.890131797712016
 30
0.0
 11
2.656513149390979
 21
2.903268423213383
 31
0.0
  0
LINE
  5
C0
330
1F
100
AcDbEntity
  8
0
 62
   178
420
        0
100
AcDbLine
 10
2.832033137531237
 20
3.466059676254403
 30
0.0
 11
3.803330449163211
 21
3.228190946875142
 31
0.0
  0
LINE
  5
C1
330
1F
100
AcDbEntity
  8
0
 62
   178
420
        0
100
AcDbLine
 10
3.684396084473579
 20
-22.48145422019972
 30
0.0
 11
0.7705041495776621
 21
-21.76784803206194
 31
0.0
  0
LINE
  5
C2
330
1F
100
AcDbEntity
  8
0
 62
   178
420
        0
100
AcDbLine
 10
2.713098772841608
 20
2.980411020438417
 30
0.0
 11
2.832033137531237
 21
3.466059676254403
 31
0.0
  0
LINE
  5
C3
330
1F
100
AcDbEntity
  8
0
 62
   178
420
        0
100
AcDbLine
 10
2.594389945604262
 20
2.885173847147307
 30
0.0
 11
2.626642645563564
 21
2.890131797712016
 31
0.0
  0
LINE
  5
C4
330
1F
100
AcDbEntity
  8
0
 62
   178
420
        0
100
AcDbLine
 10
2.656513149390979
 20
2.903268423213383
 30
0.0
 11
2.681965831614015
 21
2.923688484332782
 31
0.0
  0
LINE
  5
C5
330
1F
100
AcDbEntity
  8
0
 62
   178
420
        0
100
AcDbLine
 10
2.681965831614015
 20
2.923688484332782
 30
0.0
 11
2.701266134001705
 21
2.950000387650675
 31
0.0
  0
LINE
  5
C6
330
1F
100
AcDbEntity
  8
0
 62
   178
420
        0
100
AcDbLine
 10
2.701266134001705
 20
2.950000387650675
 30
0.0
 11
2.713098772841608
 21
2.980411020438417
 31
0.0
  0
LINE
  5
C7
330
1F
100
AcDbEntity
  8
0
 62
   178
420
        0
100
AcDbLine
 10
3.803330449163211
 20
3.228190946875142
 30
0.0
 11
3.684396084473581
 21
2.742542291059156
 31
0.0
  0
LINE
  5
C8
330
1F
100
AcDbEntity
  8
0
 62
   178
420
        0
100
AcDbLine
 10
3.684396084473581
 20
2.742542291059156
 30
0.0
 11
3.688112783370132
 21
-17.83329874865792
 31
0.0
  0
LINE
  5
C9
330
1F
100
AcDbEntity
  8
0
 62
   178
420
        0
100
AcDbLine
 10
2.588279634899106
 20
-17.56395185515481
 30
0.0
 11
2.591838235408624
 21
-17.53151492726575
 31
0.0
  0
LINE
  5
CA
330
1F
100
AcDbEntity
  8
0
 62
   178
420
        0
100
AcDbLine
 10
2.591838235408624
 20
-17.53151492726575
 30
0.0
 11
2.58688028484392
 21
-17.49926222730645
 31
0.0
  0
LINE
  5
CB
330
1F
100
AcDbEntity
  8
0
 62
   178
420
        0
100
AcDbLine
 10
2.58688028484392
 20
-17.49926222730645
 30
0.0
 11
2.573743659342552
 21
-17.46939172347904
 31
0.0
  0
LINE
  5
CC
330
1F
100
AcDbEntity
  8
0
 62
   178
420
        0
100
AcDbLine
 10
2.573743659342552
 20
-17.46939172347904
 30
0.0
 11
2.553323598223153
 21
-17.44393904125601
 31
0.0
  0
LINE
  5
CD
330
1F
100
AcDbEntity
  8
0
 62
   178
420
        0
100
AcDbLine
 10
2.553323598223153
 20
-17.44393904125601
 30
0.0
 11
2.527011694905257
 21
-17.42463873886831
 31
0.0
  0
LINE
  5
CE
330
1F
100
AcDbEntity
  8
0
 62
   178
420
        0
100
AcDbLine
 10
2.527011694905257
 20
-17.42463873886831
 30
0.0
 11
2.496601062117517
 21
-17.41280610002841
 31
0.0
  0
LINE
  5
CF
330
1F
100
AcDbEntity
  8
0
 62
   178
420
        0
100
AcDbLine
 10
2.496601062117517
 20
-17.41280610002841
 30
0.0
 11
2.464164134228458
 21
-17.40924749951888
 31
0.0
  0
LINE
  5
D0
330
1F
100
AcDbEntity
  8
0
 62
   178
420
        0
100
AcDbLine
 10
2.464164134228458
 20
-17.40924749951888
 30
0.0
 11
2.431911434269157
 21
-17.4142054500836
 31
0.0
  0
LINE
  5
D1
330
1F
100
AcDbEntity
  8
0
 62
   178
420
        0
100
AcDbLine
 10
2.431911434269157
 20
-17.4142054500836
 30
0.0
 11
2.402040930441743
 21
-17.42734207558496
 31
0.0
  0
LINE
  5
D2
330
1F
100
AcDbEntity
  8
0
 62
   178
420
        0
100
AcDbLine
 10
2.402040930441743
 20
-17.42734207558496
 30
0.0
 11
2.376588248218706
 21
-17.44776213670436
 31
0.0
  0
LINE
  5
D3
330
1F
100
AcDbEntity
  8
0
 62
   178
420
        0
100
AcDbLine
 10
2.376588248218706
 20
-17.44776213670436
 30
0.0
 11
2.357287945831016
 21
-17.47407404002225
 31
0.0
  0
LINE
  5
D4
330
1F
100
AcDbEntity
  8
0
 62
   178
420
        0
100
AcDbLine
 10
2.357287945831016
 20
-17.47407404002225
 30
0.0
 11
2.345455306991113
 21
-17.50448467281
 31
0.0
  0
LINE
  5
D5
330
1F
100
AcDbEntity
  8
0
 62
   178
420
        0
100
AcDbLine
 10
2.219087544508382
 20
-18.02048636961448
 30
0.0
 11
2.215528943998862
 21
-18.05292329750354
 31
0.0
  0
LINE
  5
D6
330
1F
100
AcDbEntity
  8
0
 62
   178
420
        0
100
AcDbLine
 10
2.215528943998862
 20
-18.05292329750354
 30
0.0
 11
2.220486894563567
 21
-18.08517599746284
 31
0.0
  0
LINE
  5
D7
330
1F
100
AcDbEntity
  8
0
 62
   178
420
        0
100
AcDbLine
 10
2.220486894563567
 20
-18.08517599746284
 30
0.0
 11
2.233623520064936
 21
-18.11504650129026
 31
0.0
  0
LINE
  5
D8
330
1F
100
AcDbEntity
  8
0
 62
   178
420
        0
100
AcDbLine
 10
2.233623520064936
 20
-18.11504650129026
 30
0.0
 11
2.254043581184334
 21
-18.14049918351329
 31
0.0
  0
LINE
  5
D9
330
1F
100
AcDbEntity
  8
0
 62
   178
420
        0
100
AcDbLine
 10
2.254043581184334
 20
-18.14049918351329
 30
0.0
 11
2.28035548450223
 21
-18.15979948590099
 31
0.0
  0
LINE
  5
DA
330
1F
100
AcDbEntity
  8
0
 62
   178
420
        0
100
AcDbLine
 10
2.28035548450223
 20
-18.15979948590099
 30
0.0
 11
2.310766117289971
 21
-18.17163212474088
 31
0.0
  0
LINE
  5
DB
330
1F
100
AcDbEntity
  8
0
 62
   178
420
        0
100
AcDbLine
 10
2.310766117289971
 20
-18.17163212474088
 30
0.0
 11
2.343203045179028
 21
-18.17519072525041
 31
0.0
  0
LINE
  5
DC
330
1F
100
AcDbEntity
  8
0
 62
   178
420
        0
100
AcDbLine
 10
2.343203045179028
 20
-18.17519072525041
 30
0.0
 11
2.37545574513833
 21
-18.1702327746857
 31
0.0
  0
LINE
  5
DD
330
1F
100
AcDbEntity
  8
0
 62
   178
420
        0
100
AcDbLine
 10
2.37545574513833
 20
-18.1702327746857
 30
0.0
 11
2.405326248965745
 21
-18.15709614918433
 31
0.0
  0
LINE
  5
DE
330
1F
100
AcDbEntity
  8
0
 62
   178
420
        0
100
AcDbLine
 10
2.405326248965745
 20
-18.15709614918433
 30
0.0
 11
2.430778931188781
 21
-18.13667608806493
 31
0.0
  0
LINE
  5
DF
330
1F
100
AcDbEntity
  8
0
 62
   178
420
        0
100
AcDbLine
 10
2.430778931188781
 20
-18.13667608806493
 30
0.0
 11
2.450079233576471
 21
-18.11036418474704
 31
0.0
  0
LINE
  5
E0
330
1F
100
AcDbEntity
  8
0
 62
   178
420
        0
100
AcDbLine
 10
2.450079233576471
 20
-18.11036418474704
 30
0.0
 11
2.461911872416374
 21
-18.0799535519593
 31
0.0
  0
LINE
  5
E1
330
1F
100
AcDbEntity
  8
0
 62
   178
420
        0
100
AcDbLine
 10
2.461911872416374
 20
-18.0799535519593
 30
0.0
 11
3.680679385577031
 21
-18.3784272286517
 31
0.0
  0
LINE
  5
E2
330
1F
100
AcDbEntity
  8
0
 62
   178
420
        0
100
AcDbLine
 10
3.680679385577031
 20
-18.3784272286517
 30
0.0
 11
3.684396084473579
 21
-22.48145422019972
 31
0.0
  0
LINE
  5
E3
330
1F
100
AcDbEntity
  8
0
 62
   178
420
        0
100
AcDbLine
 10
0.770504149577663
 20
3.456148479196933
 30
0.0
 11
0.889438514267292
 21
3.941797135012919
 31
0.0
  0
LINE
  5
E4
330
1F
100
AcDbEntity
  8
0
 62
   178
420
        0
100
AcDbLine
 10
1.860735825899265
 20
3.703928405633661
 30
0.0
 11
1.741801461209636
 21
3.218279749817675
 31
0.0
  0
LINE
  5
E5
330
1F
100
AcDbEntity
  8
0
 62
   178
420
        0
100
AcDbLine
 10
1.741801461209636
 20
3.218279749817675
 30
0.0
 11
1.738242860700117
 21
3.185842821928617
 31
0.0
  0
LINE
  5
E6
330
1F
100
AcDbEntity
  8
0
 62
   178
420
        0
100
AcDbLine
 10
1.738242860700117
 20
3.185842821928617
 30
0.0
 11
1.743200811264821
 21
3.153590121969319
 31
0.0
  0
LINE
  5
E7
330
1F
100
AcDbEntity
  8
0
 62
   178
420
        0
100
AcDbLine
 10
1.743200811264821
 20
3.153590121969319
 30
0.0
 11
1.75633743676619
 21
3.123719618141902
 31
0.0
  0
LINE
  5
E8
330
1F
100
AcDbEntity
  8
0
 62
   178
420
        0
100
AcDbLine
 10
1.75633743676619
 20
3.123719618141902
 30
0.0
 11
1.776757497885588
 21
3.098266935918868
 31
0.0
  0
LINE
  5
E9
330
1F
100
AcDbEntity
  8
0
 62
   178
420
        0
100
AcDbLine
 10
1.776757497885588
 20
3.098266935918868
 30
0.0
 11
1.803069401203484
 21
3.07896663353117
 31
0.0
  0
LINE
  5
EA
330
1F
100
AcDbEntity
  8
0
 62
   178
420
        0
100
AcDbLine
 10
1.803069401203484
 20
3.07896663353117
 30
0.0
 11
1.833480033991225
 21
3.067133994691272
 31
0.0
  0
LINE
  5
EB
330
1F
100
AcDbEntity
  8
0
 62
   178
420
        0
100
AcDbLine
 10
1.833480033991225
 20
3.067133994691272
 30
0.0
 11
1.865916961880282
 21
3.063575394181751
 31
0.0
  0
LINE
  5
EC
330
1F
100
AcDbEntity
  8
0
 62
   178
420
        0
100
AcDbLine
 10
1.865916961880282
 20
3.063575394181751
 30
0.0
 11
1.898169661839584
 21
3.068533344746463
 31
0.0
  0
LINE
  5
ED
330
1F
100
AcDbEntity
  8
0
 62
   178
420
        0
100
AcDbLine
 10
1.898169661839584
 20
3.068533344746463
 30
0.0
 11
1.928040165666999
 21
3.081669970247827
 31
0.0
  0
LINE
  5
EE
330
1F
100
AcDbEntity
  8
0
 62
   178
420
        0
100
AcDbLine
 10
1.928040165666999
 20
3.081669970247827
 30
0.0
 11
1.953492847890035
 21
3.102090031367226
 31
0.0
  0
LINE
  5
EF
330
1F
100
AcDbEntity
  8
0
 62
   178
420
        0
100
AcDbLine
 10
1.953492847890035
 20
3.102090031367226
 30
0.0
 11
1.972793150277726
 21
3.128401934685119
 31
0.0
  0
LINE
  5
F0
330
1F
100
AcDbEntity
  8
0
 62
   178
420
        0
100
AcDbLine
 10
1.972793150277726
 20
3.128401934685119
 30
0.0
 11
1.984625789117629
 21
3.158812567472861
 31
0.0
  0
LINE
  5
F1
330
1F
100
AcDbEntity
  8
0
 62
   178
420
        0
100
AcDbLine
 10
1.984625789117629
 20
3.158812567472861
 30
0.0
 11
2.470274444933615
 21
3.039878202783232
 31
0.0
  0
LINE
  5
F2
330
1F
100
AcDbEntity
  8
0
 62
   178
420
        0
100
AcDbLine
 10
2.470274444933615
 20
3.039878202783232
 30
0.0
 11
2.466715844424097
 21
3.00744127489417
 31
0.0
  0
LINE
  5
F3
330
1F
100
AcDbEntity
  8
0
 62
   178
420
        0
100
AcDbLine
 10
2.466715844424097
 20
3.00744127489417
 30
0.0
 11
2.471673794988801
 21
2.975188574934876
 31
0.0
  0
LINE
  5
F4
330
1F
100
AcDbEntity
  8
0
 62
   178
420
        0
100
AcDbLine
 10
2.471673794988801
 20
2.975188574934876
 30
0.0
 11
2.48481042049017
 21
2.945318071107458
 31
0.0
  0
LINE
  5
F5
330
1F
100
AcDbEntity
  8
0
 62
   178
420
        0
100
AcDbLine
 10
2.48481042049017
 20
2.945318071107458
 30
0.0
 11
2.505230481609567
 21
2.919865388884425
 31
0.0
  0
LINE
  5
F6
330
1F
100
AcDbEntity
  8
0
 62
   178
420
        0
100
AcDbLine
 10
2.505230481609567
 20
2.919865388884425
 30
0.0
 11
2.531542384927463
 21
2.900565086496727
 31
0.0
  0
LINE
  5
F7
330
1F
100
AcDbEntity
  8
0
 62
   178
420
        0
100
AcDbLine
 10
2.531542384927463
 20
2.900565086496727
 30
0.0
 11
2.561953017715204
 21
2.888732447656828
 31
0.0
  0
LINE
  5
F8
330
1F
100
AcDbEntity
  8
0
 62
   178
420
        0
100
AcDbLine
 10
2.561953017715204
 20
2.888732447656828
 30
0.0
 11
2.594389945604262
 21
2.885173847147307
 31
0.0
  0
LINE
  5
F9
330
1F
100
AcDbEntity
  8
0
 62
   178
420
        0
100
AcDbLine
 10
2.588279634899106
 20
-17.56395185515481
 30
0.0
 11
3.688112783370132
 21
-17.83329874865792
 31
0.0
  0
LINE
  5
FA
330
1F
100
AcDbEntity
  8
0
 62
   178
420
        0
100
AcDbLine
 10
2.219087544508382
 20
-18.02048636961448
 30
0.0
 11
2.345455306991113
 21
-17.50448467281
 31
0.0
  0
LINE
  5
FB
330
1F
100
AcDbEntity
  8
0
 62
   178
420
        0
100
AcDbLine
 10
1.780992619850362
 20
13.8782760578739
 30
0.0
 11
1.80688096749868
 21
13.89814088569863
 31
0.0
  0
LINE
  5
FC
330
1F
100
AcDbEntity
  8
0
 62
   178
420
        0
100
AcDbLine
 10
1.80688096749868
 20
13.89814088569863
 30
0.0
 11
1.837028586860865
 21
13.91062843851171
 31
0.0
  0
LINE
  5
FD
330
1F
100
AcDbEntity
  8
0
 62
   178
420
        0
100
AcDbLine
 10
-2.228946911019379
 20
16.64008956853828
 30
0.0
 11
-2.259094530381564
 21
16.65257712135136
 31
0.0
  0
LINE
  5
FE
330
1F
100
AcDbEntity
  8
0
 62
   178
420
        0
100
AcDbLine
 10
-1.743469530381563
 20
15.97599477464476
 30
0.0
 11
-1.773617149743748
 21
15.96350722183168
 31
0.0
  0
LINE
  5
FF
330
1F
100
AcDbEntity
  8
0
 62
   178
420
        0
100
AcDbLine
 10
1.176519315146998
 20
13.17024936257726
 30
0.0
 11
1.15063096749868
 21
13.15038453475253
 31
0.0
  0
LINE
  5
100
330
1F
100
AcDbEntity
  8
0
 62
   178
420
        0
100
AcDbLine
 10
1.208871695784813
 20
13.8222400908634
 30
0.0
 11
1.21313096749868
 21
13.78988771022558
 31
0.0
  0
LINE
  5
101
330
1F
100
AcDbEntity
  8
0
 62
   178
420
        0
100
AcDbLine
 10
0.9798777920256247
 20
13.85238771022558
 30
0.0
 11
0.9997426198503616
 21
13.8782760578739
 31
0.0
  0
LINE
  5
102
330
1F
100
AcDbEntity
  8
0
 62
   178
420
        0
100
AcDbLine
 10
1.21313096749868
 20
13.78988771022558
 30
0.0
 11
1.74438096749868
 21
13.78988771022558
 31
0.0
  0
LINE
  5
103
330
1F
100
AcDbEntity
  8
0
 62
   178
420
        0
100
AcDbLine
 10
3.990121695784813
 20
13.8222400908634
 30
0.0
 11
3.99438096749868
 21
13.78988771022558
 31
0.0
  0
LINE
  5
104
330
1F
100
AcDbEntity
  8
0
 62
   178
420
        0
100
AcDbLine
 10
-2.304847705854617
 20
10.35019512362675
 30
0.0
 11
-2.284982878029881
 21
10.37608347127506
 31
0.0
  0
LINE
  5
105
330
1F
100
AcDbEntity
  8
0
 62
   178
420
        0
100
AcDbLine
 10
3.780992619850361
 20
13.8782760578739
 30
0.0
 11
3.80688096749868
 21
13.89814088569863
 31
0.0
  0
LINE
  5
106
330
1F
100
AcDbEntity
  8
0
 62
   178
420
        0
100
AcDbLine
 10
1.02563096749868
 20
13.89814088569863
 30
0.0
 11
1.055778586860865
 21
13.91062843851171
 31
0.0
  0
LINE
  5
107
330
1F
100
AcDbEntity
  8
0
 62
   178
420
        0
100
AcDbLine
 10
-2.228946911019377
 20
10.40843585191288
 30
0.0
 11
-2.196594530381562
 21
10.41269512362675
 31
0.0
  0
LINE
  5
108
330
1F
100
AcDbEntity
  8
0
 62
   178
420
        0
100
AcDbLine
 10
-2.284982878029881
 20
10.37608347127506
 30
0.0
 11
-2.259094530381562
 21
10.3959482990998
 31
0.0
  0
LINE
  5
109
330
1F
100
AcDbEntity
  8
0
 62
   178
420
        0
100
AcDbLine
 10
1.055778586860865
 20
13.91062843851171
 30
0.0
 11
1.08813096749868
 21
13.91488771022558
 31
0.0
  0
LINE
  5
10A
330
1F
100
AcDbEntity
  8
0
 62
   178
420
        0
100
AcDbLine
 10
2.96313096749868
 20
13.78988771022558
 30
0.0
 11
2.967390239212547
 21
13.8222400908634
 31
0.0
  0
LINE
  5
10B
330
1F
100
AcDbEntity
  8
0
 62
   178
420
        0
100
AcDbLine
 10
-2.164242149743747
 20
10.40843585191288
 30
0.0
 11
-2.134094530381562
 21
10.3959482990998
 31
0.0
  0
LINE
  5
10C
330
1F
100
AcDbEntity
  8
0
 62
   178
420
        0
100
AcDbLine
 10
3.93188096749868
 20
13.89814088569863
 30
0.0
 11
3.957769315146999
 21
13.8782760578739
 31
0.0
  0
LINE
  5
10D
330
1F
100
AcDbEntity
  8
0
 62
   178
420
        0
100
AcDbLine
 10
-2.259094530381562
 20
10.17944194815369
 30
0.0
 11
-2.284982878029881
 21
10.19930677597843
 31
0.0
  0
LINE
  5
10E
330
1F
100
AcDbEntity
  8
0
 62
   178
420
        0
100
AcDbLine
 10
-0.2251528063349442
 20
12.46305565854003
 30
0.0
 11
-0.2208935346210783
 21
12.43070327790222
 31
0.0
  0
LINE
  5
10F
330
1F
100
AcDbEntity
  8
0
 62
   178
420
        0
100
AcDbLine
 10
3.977634142971734
 20
13.85238771022558
 30
0.0
 11
3.990121695784813
 21
13.8222400908634
 31
0.0
  0
LINE
  5
110
330
1F
100
AcDbEntity
  8
0
 62
   178
420
        0
100
AcDbLine
 10
-0.2251528063349442
 20
12.3983508972644
 30
0.0
 11
-0.2376403591480232
 21
12.36820327790222
 31
0.0
  0
LINE
  5
111
330
1F
100
AcDbEntity
  8
0
 62
   178
420
        0
100
AcDbLine
 10
-1.220893534621079
 20
10.69865247033334
 30
0.0
 11
-1.225152806334946
 21
10.66630008969553
 31
0.0
  0
LINE
  5
112
330
1F
100
AcDbEntity
  8
0
 62
   178
420
        0
100
AcDbLine
 10
-1.67401853462108
 20
10.1303232990998
 30
0.0
 11
-1.648130186972761
 21
10.11045847127506
 31
0.0
  0
LINE
  5
113
330
1F
100
AcDbEntity
  8
0
 62
   178
420
        0
100
AcDbLine
 10
3.120483348136494
 20
13.91062843851171
 30
0.0
 11
3.15063096749868
 21
13.89814088569863
 31
0.0
  0
LINE
  5
114
330
1F
100
AcDbEntity
  8
0
 62
   178
420
        0
100
AcDbLine
 10
3.21313096749868
 20
13.78988771022558
 30
0.0
 11
3.74438096749868
 21
13.78988771022558
 31
0.0
  0
LINE
  5
115
330
1F
100
AcDbEntity
  8
0
 62
   178
420
        0
100
AcDbLine
 10
-1.257505186972761
 20
10.78704081798166
 30
0.0
 11
-1.237640359148025
 21
10.76115247033334
 31
0.0
  0
LINE
  5
116
330
1F
100
AcDbEntity
  8
0
 62
   178
420
        0
100
AcDbLine
 10
-2.284982878029882
 20
16.84921864447273
 30
0.0
 11
-2.259094530381564
 21
16.86908347229747
 31
0.0
  0
LINE
  5
117
330
1F
100
AcDbEntity
  8
0
 62
   178
420
        0
100
AcDbLine
 10
3.99438096749868
 20
13.25863771022558
 30
0.0
 11
3.990121695784813
 21
13.22628532958776
 31
0.0
  0
LINE
  5
118
330
1F
100
AcDbEntity
  8
0
 62
   178
420
        0
100
AcDbLine
 10
-1.704166153983266
 20
17.14719602511055
 30
0.0
 11
-1.67401853462108
 21
17.13470847229747
 31
0.0
  0
LINE
  5
119
330
1F
100
AcDbEntity
  8
0
 62
   178
420
        0
100
AcDbLine
 10
-1.317335258667696
 20
15.06113186989335
 30
0.0
 11
-1.304847705854617
 21
15.09127948925553
 31
0.0
  0
LINE
  5
11A
330
1F
100
AcDbEntity
  8
0
 62
   178
420
        0
100
AcDbLine
 10
-1.134094530381562
 20
14.92052631378248
 30
0.0
 11
-1.164242149743747
 21
14.9080387609694
 31
0.0
  0
LINE
  5
11B
330
1F
100
AcDbEntity
  8
0
 62
   178
420
        0
100
AcDbLine
 10
-0.2833935346210783
 20
12.53895645337527
 30
0.0
 11
-0.2575051869727591
 21
12.51909162555054
 31
0.0
  0
LINE
  5
11C
330
1F
100
AcDbEntity
  8
0
 62
   178
420
        0
100
AcDbLine
 10
-1.40839353462108
 20
16.45812612559087
 30
0.0
 11
-1.674018534621081
 21
16.91820212135136
 31
0.0
  0
LINE
  5
11D
330
1F
100
AcDbEntity
  8
0
 62
   178
420
        0
100
AcDbLine
 10
-1.284982878029881
 20
14.94039114160721
 30
0.0
 11
-1.304847705854617
 21
14.96627948925553
 31
0.0
  0
LINE
  5
11E
330
1F
100
AcDbEntity
  8
0
 62
   178
420
        0
100
AcDbLine
 10
-2.304847705854619
 20
16.82333029682441
 30
0.0
 11
-2.284982878029882
 21
16.84921864447273
 31
0.0
  0
LINE
  5
11F
330
1F
100
AcDbEntity
  8
0
 62
   178
420
        0
100
AcDbLine
 10
-1.237640359148025
 20
10.76115247033334
 30
0.0
 11
-1.225152806334946
 21
10.73100485097116
 31
0.0
  0
LINE
  5
120
330
1F
100
AcDbEntity
  8
0
 62
   178
420
        0
100
AcDbLine
 10
-1.313541153983265
 20
16.47061367840395
 30
0.0
 11
-1.28339353462108
 21
16.45812612559087
 31
0.0
  0
LINE
  5
121
330
1F
100
AcDbEntity
  8
0
 62
   178
420
        0
100
AcDbLine
 10
-0.2833935346210783
 20
12.53895645337527
 30
0.0
 11
-0.7434695303815548
 21
12.80458145337527
 31
0.0
  0
LINE
  5
122
330
1F
100
AcDbEntity
  8
0
 62
   178
420
        0
100
AcDbLine
 10
-0.868469530381561
 20
12.58807510242916
 30
0.0
 11
-1.134094530381561
 21
12.12799910666868
 31
0.0
  0
LINE
  5
123
330
1F
100
AcDbEntity
  8
0
 62
   178
420
        0
100
AcDbLine
 10
-1.259094530381556
 20
11.91149275572257
 30
0.0
 11
-0.7990185346210792
 21
11.64586775572257
 31
0.0
  0
LINE
  5
124
330
1F
100
AcDbEntity
  8
0
 62
   178
420
        0
100
AcDbLine
 10
-0.6879205261420438
 20
11.83829515102797
 30
0.0
 11
-0.4083935346210783
 21
12.32245010242916
 31
0.0
  0
LINE
  5
125
330
1F
100
AcDbEntity
  8
0
 62
   178
420
        0
100
AcDbLine
 10
-2.259094530381562
 20
10.17944194815369
 30
0.0
 11
-1.79901853462108
 21
9.913816948153691
 31
0.0
  0
LINE
  5
126
330
1F
100
AcDbEntity
  8
0
 62
   178
420
        0
100
AcDbLine
 10
-1.67401853462108
 20
10.1303232990998
 30
0.0
 11
-1.408393534621079
 21
10.59039929486028
 31
0.0
  0
LINE
  5
127
330
1F
100
AcDbEntity
  8
0
 62
   178
420
        0
100
AcDbLine
 10
-1.28339353462108
 20
10.8069056458064
 30
0.0
 11
-1.743469530381557
 21
11.07253064580639
 31
0.0
  0
LINE
  5
128
330
1F
100
AcDbEntity
  8
0
 62
   178
420
        0
100
AcDbLine
 10
-1.868469530381562
 20
10.85602429486029
 30
0.0
 11
-2.134094530381562
 21
10.3959482990998
 31
0.0
  0
LINE
  5
129
330
1F
100
AcDbEntity
  8
0
 62
   178
420
        0
100
AcDbLine
 10
0.9631309674986799
 20
13.78988771022558
 30
0.0
 11
0.9631309674986799
 21
13.25863771022559
 31
0.0
  0
LINE
  5
12A
330
1F
100
AcDbEntity
  8
0
 62
   178
420
        0
100
AcDbLine
 10
1.21313096749868
 20
13.25863771022558
 30
0.0
 11
1.74438096749868
 21
13.25863771022558
 31
0.0
  0
LINE
  5
12B
330
1F
100
AcDbEntity
  8
0
 62
   178
420
        0
100
AcDbLine
 10
1.99438096749868
 20
13.25863771022559
 30
0.0
 11
1.99438096749868
 21
13.78988771022558
 31
0.0
  0
LINE
  5
12C
330
1F
100
AcDbEntity
  8
0
 62
   178
420
        0
100
AcDbLine
 10
3.99438096749868
 20
13.25863771022558
 30
0.0
 11
3.99438096749868
 21
13.78988771022558
 31
0.0
  0
LINE
  5
12D
330
1F
100
AcDbEntity
  8
0
 62
   178
420
        0
100
AcDbLine
 10
2.96313096749868
 20
13.78988771022558
 30
0.0
 11
2.96313096749868
 21
13.25863771022559
 31
0.0
  0
LINE
  5
12E
330
1F
100
AcDbEntity
  8
0
 62
   178
420
        0
100
AcDbLine
 10
3.21313096749868
 20
13.25863771022558
 30
0.0
 11
3.74438096749868
 21
13.25863771022558
 31
0.0
  0
LINE
  5
12F
330
1F
100
AcDbEntity
  8
0
 62
   178
420
        0
100
AcDbLine
 10
-0.7434695303815617
 20
14.24394396707589
 30
0.0
 11
-0.2833935346210854
 21
14.50956896707588
 31
0.0
  0
LINE
  5
130
330
1F
100
AcDbEntity
  8
0
 62
   178
420
        0
100
AcDbLine
 10
-0.4083935346210792
 20
14.72607531802199
 30
0.0
 11
-0.6879205261420447
 21
15.21023026942318
 31
0.0
  0
LINE
  5
131
330
1F
100
AcDbEntity
  8
0
 62
   178
420
        0
100
AcDbLine
 10
-0.7990185346210854
 20
15.40265766472858
 30
0.0
 11
-1.259094530381562
 21
15.13703266472859
 31
0.0
  0
LINE
  5
132
330
1F
100
AcDbEntity
  8
0
 62
   178
420
        0
100
AcDbLine
 10
-1.134094530381562
 20
14.92052631378248
 30
0.0
 11
-0.8684695303815619
 21
14.46045031802199
 31
0.0
  0
LINE
  5
133
330
1F
100
AcDbEntity
  8
0
 62
   178
420
        0
100
AcDbLine
 10
-1.799018534621086
 20
17.13470847229746
 30
0.0
 11
-2.259094530381564
 21
16.86908347229747
 31
0.0
  0
LINE
  5
134
330
1F
100
AcDbEntity
  8
0
 62
   178
420
        0
100
AcDbLine
 10
-2.134094530381564
 20
16.65257712135136
 30
0.0
 11
-1.868469530381563
 21
16.19250112559087
 31
0.0
  0
LINE
  5
135
330
1F
100
AcDbEntity
  8
0
 62
   178
420
        0
100
AcDbLine
 10
-1.743469530381563
 20
15.97599477464476
 30
0.0
 11
-1.283393534621085
 21
16.24161977464476
 31
0.0
  0
LINE
  5
136
330
1F
100
AcDbEntity
  8
0
 62
   178
420
        0
100
AcDbLine
 10
-1.283393534621079
 20
10.59039929486029
 30
0.0
 11
-1.313541153983264
 21
10.57791174204721
 31
0.0
  0
LINE
  5
137
330
1F
100
AcDbEntity
  8
0
 62
   178
420
        0
100
AcDbLine
 10
3.176519315146999
 20
13.8782760578739
 30
0.0
 11
3.196384142971734
 21
13.85238771022558
 31
0.0
  0
LINE
  5
138
330
1F
100
AcDbEntity
  8
0
 62
   178
420
        0
100
AcDbLine
 10
-1.304847705854617
 20
14.96627948925553
 30
0.0
 11
-1.317335258667696
 21
14.99642710861772
 31
0.0
  0
LINE
  5
139
330
1F
100
AcDbEntity
  8
0
 62
   178
420
        0
100
AcDbLine
 10
-1.914222705854618
 20
16.02174795011782
 30
0.0
 11
-1.926710258667697
 21
16.05189556948
 31
0.0
  0
LINE
  5
13A
330
1F
100
AcDbEntity
  8
0
 62
   178
420
        0
100
AcDbLine
 10
-1.838321911019378
 20
15.96350722183168
 30
0.0
 11
-1.868469530381564
 21
15.97599477464476
 31
0.0
  0
LINE
  5
13B
330
1F
100
AcDbEntity
  8
0
 62
   178
420
        0
100
AcDbLine
 10
1.748640239212547
 20
13.8222400908634
 30
0.0
 11
1.761127792025625
 21
13.85238771022558
 31
0.0
  0
LINE
  5
13C
330
1F
100
AcDbEntity
  8
0
 62
   178
420
        0
100
AcDbLine
 10
-1.304847705854617
 20
15.09127948925553
 30
0.0
 11
-1.284982878029881
 21
15.11716783690385
 31
0.0
  0
LINE
  5
13D
330
1F
100
AcDbEntity
  8
0
 62
   178
420
        0
100
AcDbLine
 10
-1.237640359148026
 20
16.41237295011782
 30
0.0
 11
-1.225152806334947
 21
16.38222533075563
 31
0.0
  0
LINE
  5
13E
330
1F
100
AcDbEntity
  8
0
 62
   178
420
        0
100
AcDbLine
 10
-2.284982878029882
 20
16.67244194917609
 30
0.0
 11
-2.304847705854619
 21
16.69833029682441
 31
0.0
  0
LINE
  5
13F
330
1F
100
AcDbEntity
  8
0
 62
   178
420
        0
100
AcDbLine
 10
-1.284982878029881
 20
15.11716783690385
 30
0.0
 11
-1.259094530381562
 21
15.13703266472859
 31
0.0
  0
LINE
  5
140
330
1F
100
AcDbEntity
  8
0
 62
   178
420
        0
100
AcDbLine
 10
3.055778586860866
 20
13.91062843851171
 30
0.0
 11
3.08813096749868
 21
13.91488771022558
 31
0.0
  0
LINE
  5
141
330
1F
100
AcDbEntity
  8
0
 62
   178
420
        0
100
AcDbLine
 10
-2.259094530381564
 20
16.65257712135136
 30
0.0
 11
-2.284982878029882
 21
16.67244194917609
 31
0.0
  0
LINE
  5
142
330
1F
100
AcDbEntity
  8
0
 62
   178
420
        0
100
AcDbLine
 10
-1.257505186972761
 20
10.61026412268502
 30
0.0
 11
-1.283393534621079
 21
10.59039929486029
 31
0.0
  0
LINE
  5
143
330
1F
100
AcDbEntity
  8
0
 62
   178
420
        0
100
AcDbLine
 10
-2.164242149743749
 20
16.64008956853828
 30
0.0
 11
-2.196594530381564
 21
16.63583029682441
 31
0.0
  0
LINE
  5
144
330
1F
100
AcDbEntity
  8
0
 62
   178
420
        0
100
AcDbLine
 10
-1.257505186972762
 20
16.43826129776614
 30
0.0
 11
-1.237640359148026
 21
16.41237295011782
 31
0.0
  0
LINE
  5
145
330
1F
100
AcDbEntity
  8
0
 62
   178
420
        0
100
AcDbLine
 10
1.99438096749868
 20
13.25863771022559
 30
0.0
 11
1.990121695784813
 21
13.22628532958776
 31
0.0
  0
LINE
  5
146
330
1F
100
AcDbEntity
  8
0
 62
   178
420
        0
100
AcDbLine
 10
-0.6472558327288587
 20
15.25089496283637
 30
0.0
 11
-0.6649113752097158
 21
15.22788581190404
 31
0.0
  0
LINE
  5
147
330
1F
100
AcDbEntity
  8
0
 62
   178
420
        0
100
AcDbLine
 10
-0.4083935346210792
 20
14.72607531802199
 30
0.0
 11
-0.3782459152588942
 21
14.73856287083507
 31
0.0
  0
LINE
  5
148
330
1F
100
AcDbEntity
  8
0
 62
   178
420
        0
100
AcDbLine
 10
-0.63615709474238
 20
15.27768968660855
 30
0.0
 11
-0.6472558327288587
 21
15.25089496283637
 31
0.0
  0
LINE
  5
149
330
1F
100
AcDbEntity
  8
0
 62
   178
420
        0
100
AcDbLine
 10
-0.6649113752097158
 20
15.38500212224773
 30
0.0
 11
-0.6472558327288587
 21
15.3619929713154
 31
0.0
  0
LINE
  5
14A
330
1F
100
AcDbEntity
  8
0
 62
   178
420
        0
100
AcDbLine
 10
-0.9142227058546171
 20
14.28969714254894
 30
0.0
 11
-0.9267102586676961
 21
14.31984476191112
 31
0.0
  0
LINE
  5
14B
330
1F
100
AcDbEntity
  8
0
 62
   178
420
        0
100
AcDbLine
 10
-0.3458935346210792
 20
14.74282214254894
 30
0.0
 11
-0.3135411539832642
 21
14.73856287083507
 31
0.0
  0
LINE
  5
14C
330
1F
100
AcDbEntity
  8
0
 62
   178
420
        0
100
AcDbLine
 10
3.761127792025626
 20
13.85238771022558
 30
0.0
 11
3.780992619850361
 21
13.8782760578739
 31
0.0
  0
LINE
  5
14D
330
1F
100
AcDbEntity
  8
0
 62
   178
420
        0
100
AcDbLine
 10
-1.615777806334947
 20
16.9941029161866
 30
0.0
 11
-1.628265359148026
 21
16.96395529682441
 31
0.0
  0
LINE
  5
14E
330
1F
100
AcDbEntity
  8
0
 62
   178
420
        0
100
AcDbLine
 10
-0.6649113752097158
 20
15.22788581190404
 30
0.0
 11
-0.6879205261420447
 21
15.21023026942318
 31
0.0
  0
LINE
  5
14F
330
1F
100
AcDbEntity
  8
0
 62
   178
420
        0
100
AcDbLine
 10
-0.9267102586676961
 20
14.38454952318676
 30
0.0
 11
-0.9142227058546171
 21
14.41469714254894
 31
0.0
  0
LINE
  5
150
330
1F
100
AcDbEntity
  8
0
 62
   178
420
        0
100
AcDbLine
 10
-0.63615709474238
 20
15.33519824754322
 30
0.0
 11
-0.6323715219025274
 21
15.30644396707589
 31
0.0
  0
LINE
  5
151
330
1F
100
AcDbEntity
  8
0
 62
   178
420
        0
100
AcDbLine
 10
-0.3135411539832642
 20
14.73856287083507
 30
0.0
 11
-0.2833935346210792
 21
14.72607531802199
 31
0.0
  0
LINE
  5
152
330
1F
100
AcDbEntity
  8
0
 62
   178
420
        0
100
AcDbLine
 10
-0.2833935346210792
 20
14.72607531802199
 30
0.0
 11
-0.2575051869727609
 21
14.70621049019726
 31
0.0
  0
LINE
  5
153
330
1F
100
AcDbEntity
  8
0
 62
   178
420
        0
100
AcDbLine
 10
3.748640239212547
 20
13.8222400908634
 30
0.0
 11
3.761127792025626
 21
13.85238771022558
 31
0.0
  0
LINE
  5
154
330
1F
100
AcDbEntity
  8
0
 62
   178
420
        0
100
AcDbLine
 10
-0.7434695303815617
 20
14.24394396707589
 30
0.0
 11
-0.773617149743747
 21
14.23145641426281
 31
0.0
  0
LINE
  5
155
330
1F
100
AcDbEntity
  8
0
 62
   178
420
        0
100
AcDbLine
 10
-0.7990185346210854
 20
15.40265766472858
 30
0.0
 11
-0.7722238108488977
 21
15.41375640271507
 31
0.0
  0
LINE
  5
156
330
1F
100
AcDbEntity
  8
0
 62
   178
420
        0
100
AcDbLine
 10
-1.317335258667695
 20
12.05209831183344
 30
0.0
 11
-1.304847705854616
 21
12.08224593119562
 31
0.0
  0
LINE
  5
157
330
1F
100
AcDbEntity
  8
0
 62
   178
420
        0
100
AcDbLine
 10
3.196384142971734
 20
13.19613771022558
 30
0.0
 11
3.176519315146999
 21
13.17024936257726
 31
0.0
  0
LINE
  5
158
330
1F
100
AcDbEntity
  8
0
 62
   178
420
        0
100
AcDbLine
 10
-0.6879205261420447
 20
15.40265766472859
 30
0.0
 11
-0.6649113752097158
 21
15.38500212224773
 31
0.0
  0
LINE
  5
159
330
1F
100
AcDbEntity
  8
0
 62
   178
420
        0
100
AcDbLine
 10
1.120483348136495
 20
13.13789698193945
 30
0.0
 11
1.08813096749868
 21
13.13363771022558
 31
0.0
  0
LINE
  5
15A
330
1F
100
AcDbEntity
  8
0
 62
   178
420
        0
100
AcDbLine
 10
-2.259094530381562
 20
10.3959482990998
 30
0.0
 11
-2.228946911019377
 21
10.40843585191288
 31
0.0
  0
LINE
  5
15B
330
1F
100
AcDbEntity
  8
0
 62
   178
420
        0
100
AcDbLine
 10
-2.196594530381562
 20
10.41269512362675
 30
0.0
 11
-2.164242149743747
 21
10.40843585191288
 31
0.0
  0
LINE
  5
15C
330
1F
100
AcDbEntity
  8
0
 62
   178
420
        0
100
AcDbLine
 10
1.196384142971735
 20
13.85238771022558
 30
0.0
 11
1.208871695784813
 21
13.8222400908634
 31
0.0
  0
LINE
  5
15D
330
1F
100
AcDbEntity
  8
0
 62
   178
420
        0
100
AcDbLine
 10
-2.321594530381562
 20
10.28769512362675
 30
0.0
 11
-2.317335258667696
 21
10.32004750426456
 31
0.0
  0
LINE
  5
15E
330
1F
100
AcDbEntity
  8
0
 62
   178
420
        0
100
AcDbLine
 10
1.15063096749868
 20
13.15038453475253
 30
0.0
 11
1.120483348136495
 21
13.13789698193945
 31
0.0
  0
LINE
  5
15F
330
1F
100
AcDbEntity
  8
0
 62
   178
420
        0
100
AcDbLine
 10
-2.284982878029881
 20
10.19930677597843
 30
0.0
 11
-2.304847705854617
 21
10.22519512362675
 31
0.0
  0
LINE
  5
160
330
1F
100
AcDbEntity
  8
0
 62
   178
420
        0
100
AcDbLine
 10
1.748640239212547
 20
13.22628532958776
 30
0.0
 11
1.74438096749868
 21
13.25863771022558
 31
0.0
  0
LINE
  5
161
330
1F
100
AcDbEntity
  8
0
 62
   178
420
        0
100
AcDbLine
 10
3.86938096749868
 20
13.91488771022558
 30
0.0
 11
3.901733348136494
 21
13.91062843851171
 31
0.0
  0
LINE
  5
162
330
1F
100
AcDbEntity
  8
0
 62
   178
420
        0
100
AcDbLine
 10
1.15063096749868
 20
13.89814088569863
 30
0.0
 11
1.176519315146998
 21
13.8782760578739
 31
0.0
  0
LINE
  5
163
330
1F
100
AcDbEntity
  8
0
 62
   178
420
        0
100
AcDbLine
 10
-2.304847705854617
 20
10.22519512362675
 30
0.0
 11
-2.317335258667696
 21
10.25534274298893
 31
0.0
  0
LINE
  5
164
330
1F
100
AcDbEntity
  8
0
 62
   178
420
        0
100
AcDbLine
 10
-1.894357878029881
 20
10.87588912268502
 30
0.0
 11
-1.914222705854617
 21
10.90177747033334
 31
0.0
  0
LINE
  5
165
330
1F
100
AcDbEntity
  8
0
 62
   178
420
        0
100
AcDbLine
 10
0.9673902392125466
 20
13.8222400908634
 30
0.0
 11
0.9798777920256247
 21
13.85238771022558
 31
0.0
  0
LINE
  5
166
330
1F
100
AcDbEntity
  8
0
 62
   178
420
        0
100
AcDbLine
 10
3.80688096749868
 20
13.89814088569863
 30
0.0
 11
3.837028586860866
 21
13.91062843851171
 31
0.0
  0
LINE
  5
167
330
1F
100
AcDbEntity
  8
0
 62
   178
420
        0
100
AcDbLine
 10
-2.317335258667696
 20
10.32004750426456
 30
0.0
 11
-2.304847705854617
 21
10.35019512362675
 31
0.0
  0
LINE
  5
168
330
1F
100
AcDbEntity
  8
0
 62
   178
420
        0
100
AcDbLine
 10
-0.7147152499142262
 20
15.41375640271507
 30
0.0
 11
-0.6879205261420447
 21
15.40265766472859
 31
0.0
  0
LINE
  5
169
330
1F
100
AcDbEntity
  8
0
 62
   178
420
        0
100
AcDbLine
 10
1.208871695784813
 20
13.22628532958776
 30
0.0
 11
1.196384142971735
 21
13.19613771022558
 31
0.0
  0
LINE
  5
16A
330
1F
100
AcDbEntity
  8
0
 62
   178
420
        0
100
AcDbLine
 10
-1.313541153983264
 20
10.57791174204721
 30
0.0
 11
-1.345893534621079
 21
10.57365247033334
 31
0.0
  0
LINE
  5
16B
330
1F
100
AcDbEntity
  8
0
 62
   178
420
        0
100
AcDbLine
 10
-1.225152806334946
 20
10.66630008969553
 30
0.0
 11
-1.237640359148024
 21
10.63615247033334
 31
0.0
  0
LINE
  5
16C
330
1F
100
AcDbEntity
  8
0
 62
   178
420
        0
100
AcDbLine
 10
-1.317335258667696
 20
14.99642710861772
 30
0.0
 11
-1.321594530381562
 21
15.02877948925553
 31
0.0
  0
LINE
  5
16D
330
1F
100
AcDbEntity
  8
0
 62
   178
420
        0
100
AcDbLine
 10
-1.378245915258894
 20
10.57791174204721
 30
0.0
 11
-1.408393534621079
 21
10.59039929486028
 31
0.0
  0
LINE
  5
16E
330
1F
100
AcDbEntity
  8
0
 62
   178
420
        0
100
AcDbLine
 10
1.837028586860865
 20
13.91062843851171
 30
0.0
 11
1.86938096749868
 21
13.91488771022558
 31
0.0
  0
LINE
  5
16F
330
1F
100
AcDbEntity
  8
0
 62
   178
420
        0
100
AcDbLine
 10
-1.628265359148026
 20
17.08895529682441
 30
0.0
 11
-1.615777806334947
 21
17.05880767746223
 31
0.0
  0
LINE
  5
170
330
1F
100
AcDbEntity
  8
0
 62
   178
420
        0
100
AcDbLine
 10
-1.868469530381564
 20
15.97599477464476
 30
0.0
 11
-1.894357878029881
 21
15.9958596024695
 31
0.0
  0
LINE
  5
171
330
1F
100
AcDbEntity
  8
0
 62
   178
420
        0
100
AcDbLine
 10
-1.321594530381562
 20
15.02877948925553
 30
0.0
 11
-1.317335258667696
 21
15.06113186989335
 31
0.0
  0
LINE
  5
172
330
1F
100
AcDbEntity
  8
0
 62
   178
420
        0
100
AcDbLine
 10
1.901733348136495
 20
13.91062843851171
 30
0.0
 11
1.93188096749868
 21
13.89814088569863
 31
0.0
  0
LINE
  5
173
330
1F
100
AcDbEntity
  8
0
 62
   178
420
        0
100
AcDbLine
 10
-1.773617149743748
 20
15.96350722183168
 30
0.0
 11
-1.805969530381563
 21
15.95924795011782
 31
0.0
  0
LINE
  5
174
330
1F
100
AcDbEntity
  8
0
 62
   178
420
        0
100
AcDbLine
 10
-1.805969530381563
 20
15.95924795011782
 30
0.0
 11
-1.838321911019378
 21
15.96350722183168
 31
0.0
  0
LINE
  5
175
330
1F
100
AcDbEntity
  8
0
 62
   178
420
        0
100
AcDbLine
 10
-1.259094530381562
 20
14.92052631378248
 30
0.0
 11
-1.284982878029881
 21
14.94039114160721
 31
0.0
  0
LINE
  5
176
330
1F
100
AcDbEntity
  8
0
 62
   178
420
        0
100
AcDbLine
 10
1.74438096749868
 20
13.78988771022558
 30
0.0
 11
1.748640239212547
 21
13.8222400908634
 31
0.0
  0
LINE
  5
177
330
1F
100
AcDbEntity
  8
0
 62
   178
420
        0
100
AcDbLine
 10
-1.237640359148024
 20
10.63615247033334
 30
0.0
 11
-1.257505186972761
 21
10.61026412268502
 31
0.0
  0
LINE
  5
178
330
1F
100
AcDbEntity
  8
0
 62
   178
420
        0
100
AcDbLine
 10
-1.196594530381562
 20
14.90377948925553
 30
0.0
 11
-1.228946911019378
 21
14.9080387609694
 31
0.0
  0
LINE
  5
179
330
1F
100
AcDbEntity
  8
0
 62
   178
420
        0
100
AcDbLine
 10
-1.345893534621079
 20
10.57365247033334
 30
0.0
 11
-1.378245915258894
 21
10.57791174204721
 31
0.0
  0
LINE
  5
17A
330
1F
100
AcDbEntity
  8
0
 62
   178
420
        0
100
AcDbLine
 10
-1.28339353462108
 20
10.8069056458064
 30
0.0
 11
-1.257505186972761
 21
10.78704081798166
 31
0.0
  0
LINE
  5
17B
330
1F
100
AcDbEntity
  8
0
 62
   178
420
        0
100
AcDbLine
 10
-1.22089353462108
 20
16.34987295011782
 30
0.0
 11
-1.225152806334947
 21
16.31752056948
 31
0.0
  0
LINE
  5
17C
330
1F
100
AcDbEntity
  8
0
 62
   178
420
        0
100
AcDbLine
 10
3.21313096749868
 20
13.25863771022558
 30
0.0
 11
3.208871695784813
 21
13.22628532958776
 31
0.0
  0
LINE
  5
17D
330
1F
100
AcDbEntity
  8
0
 62
   178
420
        0
100
AcDbLine
 10
3.990121695784813
 20
13.22628532958776
 30
0.0
 11
3.977634142971734
 21
13.19613771022558
 31
0.0
  0
LINE
  5
17E
330
1F
100
AcDbEntity
  8
0
 62
   178
420
        0
100
AcDbLine
 10
3.93188096749868
 20
13.15038453475253
 30
0.0
 11
3.901733348136494
 21
13.13789698193945
 31
0.0
  0
LINE
  5
17F
330
1F
100
AcDbEntity
  8
0
 62
   178
420
        0
100
AcDbLine
 10
-0.8943578780298811
 20
14.26380879490062
 30
0.0
 11
-0.9142227058546171
 21
14.28969714254894
 31
0.0
  0
LINE
  5
180
330
1F
100
AcDbEntity
  8
0
 62
   178
420
        0
100
AcDbLine
 10
3.901733348136494
 20
13.91062843851171
 30
0.0
 11
3.93188096749868
 21
13.89814088569863
 31
0.0
  0
LINE
  5
181
330
1F
100
AcDbEntity
  8
0
 62
   178
420
        0
100
AcDbLine
 10
-0.7434695303815619
 20
15.41754197555492
 30
0.0
 11
-0.7147152499142262
 21
15.41375640271507
 31
0.0
  0
LINE
  5
182
330
1F
100
AcDbEntity
  8
0
 62
   178
420
        0
100
AcDbLine
 10
-2.317335258667696
 20
10.25534274298893
 30
0.0
 11
-2.321594530381562
 21
10.28769512362675
 31
0.0
  0
LINE
  5
183
330
1F
100
AcDbEntity
  8
0
 62
   178
420
        0
100
AcDbLine
 10
-0.8684695303815619
 20
14.24394396707589
 30
0.0
 11
-0.8943578780298811
 21
14.26380879490062
 31
0.0
  0
LINE
  5
184
330
1F
100
AcDbEntity
  8
0
 62
   178
420
        0
100
AcDbLine
 10
3.957769315146999
 20
13.8782760578739
 30
0.0
 11
3.977634142971734
 21
13.85238771022558
 31
0.0
  0
LINE
  5
185
330
1F
100
AcDbEntity
  8
0
 62
   178
420
        0
100
AcDbLine
 10
-0.6323715219025274
 20
15.30644396707589
 30
0.0
 11
-0.63615709474238
 21
15.27768968660855
 31
0.0
  0
LINE
  5
186
330
1F
100
AcDbEntity
  8
0
 62
   178
420
        0
100
AcDbLine
 10
2.967390239212547
 20
13.8222400908634
 30
0.0
 11
2.979877792025626
 21
13.85238771022558
 31
0.0
  0
LINE
  5
187
330
1F
100
AcDbEntity
  8
0
 62
   178
420
        0
100
AcDbLine
 10
-0.8383219110193778
 20
14.23145641426281
 30
0.0
 11
-0.8684695303815619
 21
14.24394396707589
 31
0.0
  0
LINE
  5
188
330
1F
100
AcDbEntity
  8
0
 62
   178
420
        0
100
AcDbLine
 10
-0.6472558327288587
 20
15.3619929713154
 30
0.0
 11
-0.63615709474238
 21
15.33519824754322
 31
0.0
  0
LINE
  5
189
330
1F
100
AcDbEntity
  8
0
 62
   178
420
        0
100
AcDbLine
 10
-1.40839353462108
 20
16.45812612559087
 30
0.0
 11
-1.378245915258896
 21
16.47061367840395
 31
0.0
  0
LINE
  5
18A
330
1F
100
AcDbEntity
  8
0
 62
   178
420
        0
100
AcDbLine
 10
-0.3782459152588942
 20
14.73856287083507
 30
0.0
 11
-0.3458935346210792
 21
14.74282214254894
 31
0.0
  0
LINE
  5
18B
330
1F
100
AcDbEntity
  8
0
 62
   178
420
        0
100
AcDbLine
 10
3.837028586860866
 20
13.91062843851171
 30
0.0
 11
3.86938096749868
 21
13.91488771022558
 31
0.0
  0
LINE
  5
18C
330
1F
100
AcDbEntity
  8
0
 62
   178
420
        0
100
AcDbLine
 10
-0.9267102586676961
 20
14.31984476191112
 30
0.0
 11
-0.9309695303815619
 21
14.35219714254894
 31
0.0
  0
LINE
  5
18D
330
1F
100
AcDbEntity
  8
0
 62
   178
420
        0
100
AcDbLine
 10
1.837028586860865
 20
13.13789698193945
 30
0.0
 11
1.80688096749868
 21
13.15038453475253
 31
0.0
  0
LINE
  5
18E
330
1F
100
AcDbEntity
  8
0
 62
   178
420
        0
100
AcDbLine
 10
2.979877792025626
 20
13.85238771022558
 30
0.0
 11
2.999742619850361
 21
13.8782760578739
 31
0.0
  0
LINE
  5
18F
330
1F
100
AcDbEntity
  8
0
 62
   178
420
        0
100
AcDbLine
 10
-0.2376403591480241
 20
14.68032214254894
 30
0.0
 11
-0.2251528063349451
 21
14.65017452318676
 31
0.0
  0
LINE
  5
190
330
1F
100
AcDbEntity
  8
0
 62
   178
420
        0
100
AcDbLine
 10
-0.8059695303815619
 20
14.22719714254894
 30
0.0
 11
-0.8383219110193778
 21
14.23145641426281
 31
0.0
  0
LINE
  5
191
330
1F
100
AcDbEntity
  8
0
 62
   178
420
        0
100
AcDbLine
 10
-0.2251528063349451
 20
14.58546976191112
 30
0.0
 11
-0.2376403591480241
 21
14.55532214254894
 31
0.0
  0
LINE
  5
192
330
1F
100
AcDbEntity
  8
0
 62
   178
420
        0
100
AcDbLine
 10
-0.7722238108488977
 20
15.41375640271507
 30
0.0
 11
-0.7434695303815619
 21
15.41754197555492
 31
0.0
  0
LINE
  5
193
330
1F
100
AcDbEntity
  8
0
 62
   178
420
        0
100
AcDbLine
 10
-1.284982878029879
 20
12.10813427884394
 30
0.0
 11
-1.259094530381561
 21
12.12799910666868
 31
0.0
  0
LINE
  5
194
330
1F
100
AcDbEntity
  8
0
 62
   178
420
        0
100
AcDbLine
 10
-0.9142227058546171
 20
14.41469714254894
 30
0.0
 11
-0.8943578780298811
 21
14.44058549019726
 31
0.0
  0
LINE
  5
195
330
1F
100
AcDbEntity
  8
0
 62
   178
420
        0
100
AcDbLine
 10
-1.378245915258896
 20
16.47061367840395
 30
0.0
 11
-1.34589353462108
 21
16.47487295011782
 31
0.0
  0
LINE
  5
196
330
1F
100
AcDbEntity
  8
0
 62
   178
420
        0
100
AcDbLine
 10
-1.34589353462108
 20
16.47487295011782
 30
0.0
 11
-1.313541153983265
 21
16.47061367840395
 31
0.0
  0
LINE
  5
197
330
1F
100
AcDbEntity
  8
0
 62
   178
420
        0
100
AcDbLine
 10
1.055778586860865
 20
13.13789698193945
 30
0.0
 11
1.02563096749868
 21
13.15038453475253
 31
0.0
  0
LINE
  5
198
330
1F
100
AcDbEntity
  8
0
 62
   178
420
        0
100
AcDbLine
 10
-0.2575051869727609
 20
14.70621049019726
 30
0.0
 11
-0.2376403591480241
 21
14.68032214254894
 31
0.0
  0
LINE
  5
199
330
1F
100
AcDbEntity
  8
0
 62
   178
420
        0
100
AcDbLine
 10
0.9673902392125466
 20
13.22628532958776
 30
0.0
 11
0.9631309674986799
 21
13.25863771022559
 31
0.0
  0
LINE
  5
19A
330
1F
100
AcDbEntity
  8
0
 62
   178
420
        0
100
AcDbLine
 10
-0.2251528063349451
 20
14.65017452318676
 30
0.0
 11
-0.2208935346210792
 21
14.61782214254894
 31
0.0
  0
LINE
  5
19B
330
1F
100
AcDbEntity
  8
0
 62
   178
420
        0
100
AcDbLine
 10
1.02563096749868
 20
13.15038453475253
 30
0.0
 11
0.9997426198503616
 21
13.17024936257726
 31
0.0
  0
LINE
  5
19C
330
1F
100
AcDbEntity
  8
0
 62
   178
420
        0
100
AcDbLine
 10
3.761127792025626
 20
13.19613771022558
 30
0.0
 11
3.748640239212547
 21
13.22628532958776
 31
0.0
  0
LINE
  5
19D
330
1F
100
AcDbEntity
  8
0
 62
   178
420
        0
100
AcDbLine
 10
-0.2376403591480241
 20
14.55532214254894
 30
0.0
 11
-0.25750518697276
 21
14.52943379490062
 31
0.0
  0
LINE
  5
19E
330
1F
100
AcDbEntity
  8
0
 62
   178
420
        0
100
AcDbLine
 10
0.9631309674986799
 20
13.78988771022558
 30
0.0
 11
0.9673902392125466
 21
13.8222400908634
 31
0.0
  0
LINE
  5
19F
330
1F
100
AcDbEntity
  8
0
 62
   178
420
        0
100
AcDbLine
 10
-0.8943578780298811
 20
14.44058549019726
 30
0.0
 11
-0.8684695303815619
 21
14.46045031802199
 31
0.0
  0
LINE
  5
1A0
330
1F
100
AcDbEntity
  8
0
 62
   178
420
        0
100
AcDbLine
 10
-0.773617149743747
 20
14.23145641426281
 30
0.0
 11
-0.8059695303815619
 21
14.22719714254894
 31
0.0
  0
LINE
  5
1A1
330
1F
100
AcDbEntity
  8
0
 62
   178
420
        0
100
AcDbLine
 10
-1.648130186972763
 20
16.93806694917609
 30
0.0
 11
-1.674018534621081
 21
16.91820212135136
 31
0.0
  0
LINE
  5
1A2
330
1F
100
AcDbEntity
  8
0
 62
   178
420
        0
100
AcDbLine
 10
1.08813096749868
 20
13.13363771022558
 30
0.0
 11
1.055778586860865
 21
13.13789698193945
 31
0.0
  0
LINE
  5
1A3
330
1F
100
AcDbEntity
  8
0
 62
   178
420
        0
100
AcDbLine
 10
-1.225152806334947
 20
16.38222533075563
 30
0.0
 11
-1.22089353462108
 21
16.34987295011782
 31
0.0
  0
LINE
  5
1A4
330
1F
100
AcDbEntity
  8
0
 62
   178
420
        0
100
AcDbLine
 10
-1.225152806334947
 20
16.31752056948
 30
0.0
 11
-1.237640359148025
 21
16.28737295011782
 31
0.0
  0
LINE
  5
1A5
330
1F
100
AcDbEntity
  8
0
 62
   178
420
        0
100
AcDbLine
 10
-0.25750518697276
 20
14.52943379490062
 30
0.0
 11
-0.2833935346210854
 21
14.50956896707588
 31
0.0
  0
LINE
  5
1A6
330
1F
100
AcDbEntity
  8
0
 62
   178
420
        0
100
AcDbLine
 10
-1.930969530381562
 20
10.96427747033334
 30
0.0
 11
-1.926710258667695
 21
10.99662985097116
 31
0.0
  0
LINE
  5
1A7
330
1F
100
AcDbEntity
  8
0
 62
   178
420
        0
100
AcDbLine
 10
-0.2208935346210792
 20
14.61782214254894
 30
0.0
 11
-0.2251528063349451
 21
14.58546976191112
 31
0.0
  0
LINE
  5
1A8
330
1F
100
AcDbEntity
  8
0
 62
   178
420
        0
100
AcDbLine
 10
1.761127792025625
 20
13.19613771022558
 30
0.0
 11
1.748640239212547
 21
13.22628532958776
 31
0.0
  0
LINE
  5
1A9
330
1F
100
AcDbEntity
  8
0
 62
   178
420
        0
100
AcDbLine
 10
1.780992619850362
 20
13.17024936257726
 30
0.0
 11
1.761127792025625
 21
13.19613771022558
 31
0.0
  0
LINE
  5
1AA
330
1F
100
AcDbEntity
  8
0
 62
   178
420
        0
100
AcDbLine
 10
1.196384142971735
 20
13.19613771022558
 30
0.0
 11
1.176519315146998
 21
13.17024936257726
 31
0.0
  0
LINE
  5
1AB
330
1F
100
AcDbEntity
  8
0
 62
   178
420
        0
100
AcDbLine
 10
1.21313096749868
 20
13.25863771022558
 30
0.0
 11
1.208871695784813
 21
13.22628532958776
 31
0.0
  0
LINE
  5
1AC
330
1F
100
AcDbEntity
  8
0
 62
   178
420
        0
100
AcDbLine
 10
1.93188096749868
 20
13.15038453475253
 30
0.0
 11
1.901733348136495
 21
13.13789698193945
 31
0.0
  0
LINE
  5
1AD
330
1F
100
AcDbEntity
  8
0
 62
   178
420
        0
100
AcDbLine
 10
-1.611518534621081
 20
17.02645529682441
 30
0.0
 11
-1.615777806334947
 21
16.9941029161866
 31
0.0
  0
LINE
  5
1AE
330
1F
100
AcDbEntity
  8
0
 62
   178
420
        0
100
AcDbLine
 10
-1.926710258667695
 20
10.93192508969553
 30
0.0
 11
-1.930969530381562
 21
10.96427747033334
 31
0.0
  0
LINE
  5
1AF
330
1F
100
AcDbEntity
  8
0
 62
   178
420
        0
100
AcDbLine
 10
1.08813096749868
 20
13.91488771022558
 30
0.0
 11
1.120483348136495
 21
13.91062843851171
 31
0.0
  0
LINE
  5
1B0
330
1F
100
AcDbEntity
  8
0
 62
   178
420
        0
100
AcDbLine
 10
0.9997426198503616
 20
13.17024936257726
 30
0.0
 11
0.9798777920256256
 21
13.19613771022558
 31
0.0
  0
LINE
  5
1B1
330
1F
100
AcDbEntity
  8
0
 62
   178
420
        0
100
AcDbLine
 10
0.9997426198503616
 20
13.8782760578739
 30
0.0
 11
1.02563096749868
 21
13.89814088569863
 31
0.0
  0
LINE
  5
1B2
330
1F
100
AcDbEntity
  8
0
 62
   178
420
        0
100
AcDbLine
 10
-1.868469530381562
 20
10.85602429486029
 30
0.0
 11
-1.894357878029881
 21
10.87588912268502
 31
0.0
  0
LINE
  5
1B3
330
1F
100
AcDbEntity
  8
0
 62
   178
420
        0
100
AcDbLine
 10
1.120483348136495
 20
13.91062843851171
 30
0.0
 11
1.15063096749868
 21
13.89814088569863
 31
0.0
  0
LINE
  5
1B4
330
1F
100
AcDbEntity
  8
0
 62
   178
420
        0
100
AcDbLine
 10
1.176519315146998
 20
13.8782760578739
 30
0.0
 11
1.196384142971735
 21
13.85238771022558
 31
0.0
  0
LINE
  5
1B5
330
1F
100
AcDbEntity
  8
0
 62
   178
420
        0
100
AcDbLine
 10
1.990121695784813
 20
13.22628532958776
 30
0.0
 11
1.977634142971735
 21
13.19613771022558
 31
0.0
  0
LINE
  5
1B6
330
1F
100
AcDbEntity
  8
0
 62
   178
420
        0
100
AcDbLine
 10
1.977634142971735
 20
13.19613771022558
 30
0.0
 11
1.957769315146998
 21
13.17024936257726
 31
0.0
  0
LINE
  5
1B7
330
1F
100
AcDbEntity
  8
0
 62
   178
420
        0
100
AcDbLine
 10
1.901733348136495
 20
13.13789698193945
 30
0.0
 11
1.86938096749868
 21
13.13363771022558
 31
0.0
  0
LINE
  5
1B8
330
1F
100
AcDbEntity
  8
0
 62
   178
420
        0
100
AcDbLine
 10
1.80688096749868
 20
13.15038453475253
 30
0.0
 11
1.780992619850362
 21
13.17024936257726
 31
0.0
  0
LINE
  5
1B9
330
1F
100
AcDbEntity
  8
0
 62
   178
420
        0
100
AcDbLine
 10
3.86938096749868
 20
13.13363771022558
 30
0.0
 11
3.837028586860866
 21
13.13789698193945
 31
0.0
  0
LINE
  5
1BA
330
1F
100
AcDbEntity
  8
0
 62
   178
420
        0
100
AcDbLine
 10
-1.259094530381561
 20
12.12799910666868
 30
0.0
 11
-1.228946911019376
 21
12.14048665948176
 31
0.0
  0
LINE
  5
1BB
330
1F
100
AcDbEntity
  8
0
 62
   178
420
        0
100
AcDbLine
 10
-1.284982878029879
 20
11.93135758354731
 30
0.0
 11
-1.304847705854616
 21
11.95724593119562
 31
0.0
  0
LINE
  5
1BC
330
1F
100
AcDbEntity
  8
0
 62
   178
420
        0
100
AcDbLine
 10
-1.259094530381556
 20
11.91149275572257
 30
0.0
 11
-1.284982878029879
 21
11.93135758354731
 31
0.0
  0
LINE
  5
1BD
330
1F
100
AcDbEntity
  8
0
 62
   178
420
        0
100
AcDbLine
 10
-0.868469530381561
 20
12.58807510242916
 30
0.0
 11
-0.8943578780298793
 21
12.6079399302539
 31
0.0
  0
LINE
  5
1BE
330
1F
100
AcDbEntity
  8
0
 62
   178
420
        0
100
AcDbLine
 10
-0.8943578780298793
 20
12.6079399302539
 30
0.0
 11
-0.9142227058546162
 21
12.63382827790222
 31
0.0
  0
LINE
  5
1BF
330
1F
100
AcDbEntity
  8
0
 62
   178
420
        0
100
AcDbLine
 10
-0.9309695303815619
 20
14.35219714254894
 30
0.0
 11
-0.9267102586676961
 21
14.38454952318676
 31
0.0
  0
LINE
  5
1C0
330
1F
100
AcDbEntity
  8
0
 62
   178
420
        0
100
AcDbLine
 10
-0.9142227058546162
 20
12.63382827790222
 30
0.0
 11
-0.9267102586676952
 21
12.6639758972644
 31
0.0
  0
LINE
  5
1C1
330
1F
100
AcDbEntity
  8
0
 62
   178
420
        0
100
AcDbLine
 10
-0.9267102586676952
 20
12.6639758972644
 30
0.0
 11
-0.930969530381561
 21
12.69632827790222
 31
0.0
  0
LINE
  5
1C2
330
1F
100
AcDbEntity
  8
0
 62
   178
420
        0
100
AcDbLine
 10
-0.930969530381561
 20
12.69632827790222
 30
0.0
 11
-0.9267102586676952
 21
12.72868065854003
 31
0.0
  0
LINE
  5
1C3
330
1F
100
AcDbEntity
  8
0
 62
   178
420
        0
100
AcDbLine
 10
-0.9267102586676952
 20
12.72868065854003
 30
0.0
 11
-0.9142227058546162
 21
12.75882827790222
 31
0.0
  0
LINE
  5
1C4
330
1F
100
AcDbEntity
  8
0
 62
   178
420
        0
100
AcDbLine
 10
-0.9142227058546162
 20
12.75882827790222
 30
0.0
 11
-0.8943578780298802
 21
12.78471662555054
 31
0.0
  0
LINE
  5
1C5
330
1F
100
AcDbEntity
  8
0
 62
   178
420
        0
100
AcDbLine
 10
-0.8943578780298802
 20
12.78471662555054
 30
0.0
 11
-0.868469530381561
 21
12.80458145337527
 31
0.0
  0
LINE
  5
1C6
330
1F
100
AcDbEntity
  8
0
 62
   178
420
        0
100
AcDbLine
 10
3.837028586860866
 20
13.13789698193945
 30
0.0
 11
3.80688096749868
 21
13.15038453475253
 31
0.0
  0
LINE
  5
1C7
330
1F
100
AcDbEntity
  8
0
 62
   178
420
        0
100
AcDbLine
 10
-0.868469530381561
 20
12.80458145337527
 30
0.0
 11
-0.838321911019376
 21
12.81706900618835
 31
0.0
  0
LINE
  5
1C8
330
1F
100
AcDbEntity
  8
0
 62
   178
420
        0
100
AcDbLine
 10
-0.838321911019376
 20
12.81706900618835
 30
0.0
 11
-0.805969530381561
 21
12.82132827790222
 31
0.0
  0
LINE
  5
1C9
330
1F
100
AcDbEntity
  8
0
 62
   178
420
        0
100
AcDbLine
 10
2.979877792025626
 20
13.19613771022558
 30
0.0
 11
2.967390239212547
 21
13.22628532958776
 31
0.0
  0
LINE
  5
1CA
330
1F
100
AcDbEntity
  8
0
 62
   178
420
        0
100
AcDbLine
 10
3.80688096749868
 20
13.15038453475253
 30
0.0
 11
3.780992619850361
 21
13.17024936257726
 31
0.0
  0
LINE
  5
1CB
330
1F
100
AcDbEntity
  8
0
 62
   178
420
        0
100
AcDbLine
 10
-0.805969530381561
 20
12.82132827790222
 30
0.0
 11
-0.7736171497437461
 21
12.81706900618835
 31
0.0
  0
LINE
  5
1CC
330
1F
100
AcDbEntity
  8
0
 62
   178
420
        0
100
AcDbLine
 10
-0.7736171497437461
 20
12.81706900618835
 30
0.0
 11
-0.7434695303815548
 21
12.80458145337527
 31
0.0
  0
LINE
  5
1CD
330
1F
100
AcDbEntity
  8
0
 62
   178
420
        0
100
AcDbLine
 10
-1.914222705854617
 20
11.02677747033334
 30
0.0
 11
-1.89435787802988
 21
11.05266581798166
 31
0.0
  0
LINE
  5
1CE
330
1F
100
AcDbEntity
  8
0
 62
   178
420
        0
100
AcDbLine
 10
-1.89435787802988
 20
11.05266581798166
 30
0.0
 11
-1.868469530381562
 21
11.0725306458064
 31
0.0
  0
LINE
  5
1CF
330
1F
100
AcDbEntity
  8
0
 62
   178
420
        0
100
AcDbLine
 10
-1.914222705854617
 20
10.90177747033334
 30
0.0
 11
-1.926710258667695
 21
10.93192508969553
 31
0.0
  0
LINE
  5
1D0
330
1F
100
AcDbEntity
  8
0
 62
   178
420
        0
100
AcDbLine
 10
0.9798777920256256
 20
13.19613771022558
 30
0.0
 11
0.9673902392125466
 21
13.22628532958776
 31
0.0
  0
LINE
  5
1D1
330
1F
100
AcDbEntity
  8
0
 62
   178
420
        0
100
AcDbLine
 10
-1.868469530381562
 20
11.0725306458064
 30
0.0
 11
-1.838321911019377
 21
11.08501819861947
 31
0.0
  0
LINE
  5
1D2
330
1F
100
AcDbEntity
  8
0
 62
   178
420
        0
100
AcDbLine
 10
-1.838321911019377
 20
11.08501819861947
 30
0.0
 11
-1.805969530381562
 21
11.08927747033334
 31
0.0
  0
LINE
  5
1D3
330
1F
100
AcDbEntity
  8
0
 62
   178
420
        0
100
AcDbLine
 10
-1.805969530381562
 20
11.08927747033334
 30
0.0
 11
-1.773617149743747
 21
11.08501819861947
 31
0.0
  0
LINE
  5
1D4
330
1F
100
AcDbEntity
  8
0
 62
   178
420
        0
100
AcDbLine
 10
-1.773617149743747
 20
11.08501819861947
 30
0.0
 11
-1.743469530381557
 21
11.07253064580639
 31
0.0
  0
LINE
  5
1D5
330
1F
100
AcDbEntity
  8
0
 62
   178
420
        0
100
AcDbLine
 10
-1.926710258667695
 20
10.99662985097116
 30
0.0
 11
-1.914222705854617
 21
11.02677747033334
 31
0.0
  0
LINE
  5
1D6
330
1F
100
AcDbEntity
  8
0
 62
   178
420
        0
100
AcDbLine
 10
3.208871695784813
 20
13.22628532958776
 30
0.0
 11
3.196384142971734
 21
13.19613771022558
 31
0.0
  0
LINE
  5
1D7
330
1F
100
AcDbEntity
  8
0
 62
   178
420
        0
100
AcDbLine
 10
-1.768870915258896
 20
17.14719602511055
 30
0.0
 11
-1.736518534621081
 21
17.15145529682441
 31
0.0
  0
LINE
  5
1D8
330
1F
100
AcDbEntity
  8
0
 62
   178
420
        0
100
AcDbLine
 10
-1.648130186972763
 20
17.11484364447273
 30
0.0
 11
-1.628265359148026
 21
17.08895529682441
 31
0.0
  0
LINE
  5
1D9
330
1F
100
AcDbEntity
  8
0
 62
   178
420
        0
100
AcDbLine
 10
-1.615777806334947
 20
17.05880767746223
 30
0.0
 11
-1.611518534621081
 21
17.02645529682441
 31
0.0
  0
LINE
  5
1DA
330
1F
100
AcDbEntity
  8
0
 62
   178
420
        0
100
AcDbLine
 10
-1.628265359148026
 20
16.96395529682441
 30
0.0
 11
-1.648130186972763
 21
16.93806694917609
 31
0.0
  0
LINE
  5
1DB
330
1F
100
AcDbEntity
  8
0
 62
   178
420
        0
100
AcDbLine
 10
-1.237640359148025
 20
16.28737295011782
 30
0.0
 11
-1.257505186972761
 21
16.2614846024695
 31
0.0
  0
LINE
  5
1DC
330
1F
100
AcDbEntity
  8
0
 62
   178
420
        0
100
AcDbLine
 10
-1.257505186972761
 20
16.2614846024695
 30
0.0
 11
-1.283393534621085
 21
16.24161977464476
 31
0.0
  0
LINE
  5
1DD
330
1F
100
AcDbEntity
  8
0
 62
   178
420
        0
100
AcDbLine
 10
-1.799018534621086
 20
17.13470847229746
 30
0.0
 11
-1.768870915258896
 21
17.14719602511055
 31
0.0
  0
LINE
  5
1DE
330
1F
100
AcDbEntity
  8
0
 62
   178
420
        0
100
AcDbLine
 10
-1.28339353462108
 20
16.45812612559087
 30
0.0
 11
-1.257505186972762
 21
16.43826129776614
 31
0.0
  0
LINE
  5
1DF
330
1F
100
AcDbEntity
  8
0
 62
   178
420
        0
100
AcDbLine
 10
-1.67401853462108
 20
17.13470847229747
 30
0.0
 11
-1.648130186972763
 21
17.11484364447273
 31
0.0
  0
LINE
  5
1E0
330
1F
100
AcDbEntity
  8
0
 62
   178
420
        0
100
AcDbLine
 10
-1.736518534621081
 20
17.15145529682441
 30
0.0
 11
-1.704166153983266
 21
17.14719602511055
 31
0.0
  0
LINE
  5
1E1
330
1F
100
AcDbEntity
  8
0
 62
   178
420
        0
100
AcDbLine
 10
-1.164242149743747
 20
14.9080387609694
 30
0.0
 11
-1.196594530381562
 21
14.90377948925553
 31
0.0
  0
LINE
  5
1E2
330
1F
100
AcDbEntity
  8
0
 62
   178
420
        0
100
AcDbLine
 10
-1.228946911019378
 20
14.9080387609694
 30
0.0
 11
-1.259094530381562
 21
14.92052631378248
 31
0.0
  0
LINE
  5
1E3
330
1F
100
AcDbEntity
  8
0
 62
   178
420
        0
100
AcDbLine
 10
-2.196594530381564
 20
16.63583029682441
 30
0.0
 11
-2.228946911019379
 21
16.64008956853828
 31
0.0
  0
LINE
  5
1E4
330
1F
100
AcDbEntity
  8
0
 62
   178
420
        0
100
AcDbLine
 10
1.977634142971734
 20
13.85238771022558
 30
0.0
 11
1.990121695784813
 21
13.8222400908634
 31
0.0
  0
LINE
  5
1E5
330
1F
100
AcDbEntity
  8
0
 62
   178
420
        0
100
AcDbLine
 10
1.957769315146998
 20
13.8782760578739
 30
0.0
 11
1.977634142971734
 21
13.85238771022558
 31
0.0
  0
LINE
  5
1E6
330
1F
100
AcDbEntity
  8
0
 62
   178
420
        0
100
AcDbLine
 10
1.93188096749868
 20
13.89814088569863
 30
0.0
 11
1.957769315146998
 21
13.8782760578739
 31
0.0
  0
LINE
  5
1E7
330
1F
100
AcDbEntity
  8
0
 62
   178
420
        0
100
AcDbLine
 10
1.86938096749868
 20
13.91488771022558
 30
0.0
 11
1.901733348136495
 21
13.91062843851171
 31
0.0
  0
LINE
  5
1E8
330
1F
100
AcDbEntity
  8
0
 62
   178
420
        0
100
AcDbLine
 10
1.761127792025625
 20
13.85238771022558
 30
0.0
 11
1.780992619850362
 21
13.8782760578739
 31
0.0
  0
LINE
  5
1E9
330
1F
100
AcDbEntity
  8
0
 62
   178
420
        0
100
AcDbLine
 10
-1.225152806334946
 20
10.73100485097116
 30
0.0
 11
-1.220893534621079
 21
10.69865247033334
 31
0.0
  0
LINE
  5
1EA
330
1F
100
AcDbEntity
  8
0
 62
   178
420
        0
100
AcDbLine
 10
3.176519315146999
 20
13.17024936257726
 30
0.0
 11
3.15063096749868
 21
13.15038453475253
 31
0.0
  0
LINE
  5
1EB
330
1F
100
AcDbEntity
  8
0
 62
   178
420
        0
100
AcDbLine
 10
3.15063096749868
 20
13.89814088569863
 30
0.0
 11
3.176519315146999
 21
13.8782760578739
 31
0.0
  0
LINE
  5
1EC
330
1F
100
AcDbEntity
  8
0
 62
   178
420
        0
100
AcDbLine
 10
-2.304847705854619
 20
16.69833029682441
 30
0.0
 11
-2.317335258667697
 21
16.7284779161866
 31
0.0
  0
LINE
  5
1ED
330
1F
100
AcDbEntity
  8
0
 62
   178
420
        0
100
AcDbLine
 10
2.999742619850361
 20
13.17024936257726
 30
0.0
 11
2.979877792025626
 21
13.19613771022558
 31
0.0
  0
LINE
  5
1EE
330
1F
100
AcDbEntity
  8
0
 62
   178
420
        0
100
AcDbLine
 10
3.120483348136494
 20
13.13789698193945
 30
0.0
 11
3.08813096749868
 21
13.13363771022558
 31
0.0
  0
LINE
  5
1EF
330
1F
100
AcDbEntity
  8
0
 62
   178
420
        0
100
AcDbLine
 10
5.904886011069513
 20
12.58565591998423
 30
0.0
 11
5.945887339708325
 21
12.8970919306197
 31
0.0
  0
LINE
  5
1F0
330
1F
100
AcDbEntity
  8
0
 62
   178
420
        0
100
AcDbLine
 10
2.978755967498689
 20
8.328110287518951
 30
0.0
 11
3.246590177588853
 21
8.49223930255304
 31
0.0
  0
LINE
  5
1F1
330
1F
100
AcDbEntity
  8
0
 62
   178
420
        0
100
AcDbLine
 10
-3.021244032501341
 20
8.328110287518959
 30
0.0
 11
-2.745187030938621
 21
8.178223565095381
 31
0.0
  0
LINE
  5
1F2
330
1F
100
AcDbEntity
  8
0
 62
   178
420
        0
100
AcDbLine
 10
2.702698965935969
 20
8.178223565095376
 30
0.0
 11
2.978755967498689
 21
8.328110287518951
 31
0.0
  0
LINE
  5
1F3
330
1F
100
AcDbEntity
  8
0
 62
   178
420
        0
100
AcDbLine
 10
0.2927717049563414
 20
19.51603991875302
 30
0.0
 11
-0.0212440325013228
 21
19.52426271022558
 31
0.0
  0
LINE
  5
1F4
330
1F
100
AcDbEntity
  8
0
 62
   178
420
        0
100
AcDbLine
 10
-4.480112985365703
 20
9.509479072072448
 30
0.0
 11
-4.263884719620625
 21
9.281622023106312
 31
0.0
  0
LINE
  5
1F5
330
1F
100
AcDbEntity
  8
0
 62
   178
420
        0
100
AcDbLine
 10
-1.574158303116449
 20
19.31981766795999
 30
0.0
 11
-1.875345998751009
 21
19.2306018079965
 31
0.0
  0
LINE
  5
1F6
330
1F
100
AcDbEntity
  8
0
 62
   178
420
        0
100
AcDbLine
 10
-5.947374076072149
 20
12.58565591998421
 30
0.0
 11
-5.890129636904158
 21
12.27679256531904
 31
0.0
  0
LINE
  5
1F7
330
1F
100
AcDbEntity
  8
0
 62
   178
420
        0
100
AcDbLine
 10
4.22139665461798
 20
9.281622023106308
 30
0.0
 11
4.43762492036306
 21
9.509479072072445
 31
0.0
  0
LINE
  5
1F8
330
1F
100
AcDbEntity
  8
0
 62
   178
420
        0
100
AcDbLine
 10
-0.9598508227427169
 20
7.598132666654753
 30
0.0
 11
-0.6484148121072506
 21
7.557131338015939
 31
0.0
  0
LINE
  5
1F9
330
1F
100
AcDbEntity
  8
0
 62
   178
420
        0
100
AcDbLine
 10
5.970533176026125
 20
13.21024697276796
 30
0.0
 11
5.97875596749868
 21
13.52426271022558
 31
0.0
  0
LINE
  5
1FA
330
1F
100
AcDbEntity
  8
0
 62
   178
420
        0
100
AcDbLine
 10
-5.502516778356934
 20
11.0838428517708
 30
0.0
 11
-5.367283177631538
 21
10.80031971178832
 31
0.0
  0
LINE
  5
1FB
330
1F
100
AcDbEntity
  8
0
 62
   178
420
        0
100
AcDbLine
 10
2.419175825953483
 20
19.00553545608118
 30
0.0
 11
2.128963664770483
 21
19.12574526920879
 31
0.0
  0
LINE
  5
1FC
330
1F
100
AcDbEntity
  8
0
 62
   178
420
        0
100
AcDbLine
 10
5.460028713354285
 20
15.96468256868038
 30
0.0
 11
5.324795112628886
 21
16.24820570866286
 31
0.0
  0
LINE
  5
1FD
330
1F
100
AcDbEntity
  8
0
 62
   178
420
        0
100
AcDbLine
 10
-3.797166378800368
 20
8.861386941483772
 30
0.0
 11
-3.547955546256182
 21
8.67016074397591
 31
0.0
  0
LINE
  5
1FE
330
1F
100
AcDbEntity
  8
0
 62
   178
420
        0
100
AcDbLine
 10
-5.947374076072145
 20
14.46286950046697
 30
0.0
 11
-5.988375404710959
 21
14.15143348983151
 31
0.0
  0
LINE
  5
1FF
330
1F
100
AcDbEntity
  8
0
 62
   178
420
        0
100
AcDbLine
 10
-2.46166389095614
 20
8.04298996436998
 30
0.0
 11
-2.171451729773139
 21
7.922780151242375
 31
0.0
  0
LINE
  5
200
330
1F
100
AcDbEntity
  8
0
 62
   178
420
        0
100
AcDbLine
 10
1.832857933748365
 20
19.2306018079965
 30
0.0
 11
1.531670238113804
 21
19.31981766795999
 31
0.0
  0
LINE
  5
201
330
1F
100
AcDbEntity
  8
0
 62
   178
420
        0
100
AcDbLine
 10
5.010779375171239
 20
10.25642850013544
 30
0.0
 11
5.174908390205326
 21
10.5242627102256
 31
0.0
  0
LINE
  5
202
330
1F
100
AcDbEntity
  8
0
 62
   178
420
        0
100
AcDbLine
 10
5.847641571901514
 20
14.77173285513213
 30
0.0
 11
5.77431092523309
 21
15.0771769808407
 31
0.0
  0
LINE
  5
203
330
1F
100
AcDbEntity
  8
0
 62
   178
420
        0
100
AcDbLine
 10
5.847641571901521
 20
12.27679256531906
 30
0.0
 11
5.904886011069513
 21
12.58565591998423
 31
0.0
  0
LINE
  5
204
330
1F
100
AcDbEntity
  8
0
 62
   178
420
        0
100
AcDbLine
 10
5.685095065269602
 20
15.37836467647526
 30
0.0
 11
5.580238526481891
 21
15.67447040749738
 31
0.0
  0
LINE
  5
205
330
1F
100
AcDbEntity
  8
0
 62
   178
420
        0
100
AcDbLine
 10
-4.684119801243144
 20
17.3001850565246
 30
0.0
 11
-4.875345998751003
 21
17.05097422398042
 31
0.0
  0
LINE
  5
206
330
1F
100
AcDbEntity
  8
0
 62
   178
420
        0
100
AcDbLine
 10
-5.816798990235735
 20
11.97134843961047
 30
0.0
 11
-5.727583130272247
 21
11.67016074397591
 31
0.0
  0
LINE
  5
207
330
1F
100
AcDbEntity
  8
0
 62
   178
420
        0
100
AcDbLine
 10
-4.036027670654491
 20
9.065393757361232
 30
0.0
 11
-3.797166378800368
 21
8.861386941483772
 31
0.0
  0
LINE
  5
208
330
1F
100
AcDbEntity
  8
0
 62
   178
420
        0
100
AcDbLine
 10
4.437624920363046
 20
17.53904634837873
 30
0.0
 11
4.221396654617966
 21
17.76690339734486
 31
0.0
  0
LINE
  5
209
330
1F
100
AcDbEntity
  8
0
 62
   178
420
        0
100
AcDbLine
 10
0.6059267471045988
 20
19.49139408243522
 30
0.0
 11
0.2927717049563414
 21
19.51603991875302
 31
0.0
  0
LINE
  5
20A
330
1F
100
AcDbEntity
  8
0
 62
   178
420
        0
100
AcDbLine
 10
5.324795112628902
 20
10.80031971178832
 30
0.0
 11
5.4600287133543
 21
11.08384285177081
 31
0.0
  0
LINE
  5
20B
330
1F
100
AcDbEntity
  8
0
 62
   178
420
        0
100
AcDbLine
 10
3.993539605651831
 20
17.98313166308994
 30
0.0
 11
3.754678313797706
 21
18.1871384789674
 31
0.0
  0
LINE
  5
20C
330
1F
100
AcDbEntity
  8
0
 62
   178
420
        0
100
AcDbLine
 10
3.505467481253531
 20
8.670160743975902
 30
0.0
 11
3.754678313797717
 21
8.861386941483763
 31
0.0
  0
LINE
  5
20D
330
1F
100
AcDbEntity
  8
0
 62
   178
420
        0
100
AcDbLine
 10
-4.03602767065447
 20
17.98313166308994
 30
0.0
 11
-4.263884719620605
 21
17.76690339734486
 31
0.0
  0
LINE
  5
20E
330
1F
100
AcDbEntity
  8
0
 62
   178
420
        0
100
AcDbLine
 10
-4.684119801243162
 20
9.748340363926573
 30
0.0
 11
-4.480112985365703
 21
9.509479072072448
 31
0.0
  0
LINE
  5
20F
330
1F
100
AcDbEntity
  8
0
 62
   178
420
        0
100
AcDbLine
 10
-3.54795554625616
 20
18.37836467647526
 30
0.0
 11
-3.797166378800346
 21
18.1871384789674
 31
0.0
  0
LINE
  5
210
330
1F
100
AcDbEntity
  8
0
 62
   178
420
        0
100
AcDbLine
 10
-1.926710258667697
 20
16.05189556948
 30
0.0
 11
-1.930969530381563
 21
16.08424795011782
 31
0.0
  0
LINE
  5
211
330
1F
100
AcDbEntity
  8
0
 62
   178
420
        0
100
AcDbLine
 10
-5.988375404710959
 20
14.15143348983151
 30
0.0
 11
-6.013021241028762
 21
13.83827844768325
 31
0.0
  0
LINE
  5
212
330
1F
100
AcDbEntity
  8
0
 62
   178
420
        0
100
AcDbLine
 10
2.978755967498682
 20
18.72041513293221
 30
0.0
 11
2.702698965935962
 21
18.87030185535578
 31
0.0
  0
LINE
  5
213
330
1F
100
AcDbEntity
  8
0
 62
   178
420
        0
100
AcDbLine
 10
4.832857933748379
 20
9.99755119647076
 30
0.0
 11
5.010779375171239
 21
10.25642850013544
 31
0.0
  0
LINE
  5
214
330
1F
100
AcDbEntity
  8
0
 62
   178
420
        0
100
AcDbLine
 10
3.246590177588853
 20
8.49223930255304
 30
0.0
 11
3.505467481253531
 21
8.670160743975902
 31
0.0
  0
LINE
  5
215
330
1F
100
AcDbEntity
  8
0
 62
   178
420
        0
100
AcDbLine
 10
-4.263884719620625
 20
9.281622023106312
 30
0.0
 11
-4.036027670654491
 21
9.065393757361232
 31
0.0
  0
LINE
  5
216
330
1F
100
AcDbEntity
  8
0
 62
   178
420
        0
100
AcDbLine
 10
5.174908390205326
 20
10.5242627102256
 30
0.0
 11
5.324795112628902
 21
10.80031971178832
 31
0.0
  0
LINE
  5
217
330
1F
100
AcDbEntity
  8
0
 62
   178
420
        0
100
AcDbLine
 10
-6.013021241028764
 20
13.21024697276793
 30
0.0
 11
-5.988375404710962
 21
12.89709193061967
 31
0.0
  0
LINE
  5
218
330
1F
100
AcDbEntity
  8
0
 62
   178
420
        0
100
AcDbLine
 10
4.832857933748365
 20
17.05097422398042
 30
0.0
 11
4.641631736240505
 21
17.3001850565246
 31
0.0
  0
LINE
  5
219
330
1F
100
AcDbEntity
  8
0
 62
   178
420
        0
100
AcDbLine
 10
-4.875345998751003
 20
17.05097422398042
 30
0.0
 11
-5.053267440173862
 21
16.79209692031574
 31
0.0
  0
LINE
  5
21A
330
1F
100
AcDbEntity
  8
0
 62
   178
420
        0
100
AcDbLine
 10
-2.461663890956127
 20
19.00553545608118
 30
0.0
 11
-2.745187030938605
 21
18.87030185535578
 31
0.0
  0
LINE
  5
21B
330
1F
100
AcDbEntity
  8
0
 62
   178
420
        0
100
AcDbLine
 10
5.174908390205312
 20
16.52426271022558
 30
0.0
 11
5.010779375171223
 21
16.79209692031574
 31
0.0
  0
LINE
  5
21C
330
1F
100
AcDbEntity
  8
0
 62
   178
420
        0
100
AcDbLine
 10
3.15063096749868
 20
13.15038453475253
 30
0.0
 11
3.120483348136494
 21
13.13789698193945
 31
0.0
  0
LINE
  5
21D
330
1F
100
AcDbEntity
  8
0
 62
   178
420
        0
100
AcDbLine
 10
-1.268714177407889
 20
7.655377105822748
 30
0.0
 11
-0.9598508227427169
 21
7.598132666654753
 31
0.0
  0
LINE
  5
21E
330
1F
100
AcDbEntity
  8
0
 62
   178
420
        0
100
AcDbLine
 10
-6.02124403250132
 20
13.52426271022559
 30
0.0
 11
-6.013021241028764
 21
13.21024697276793
 31
0.0
  0
LINE
  5
21F
330
1F
100
AcDbEntity
  8
0
 62
   178
420
        0
100
AcDbLine
 10
4.641631736240505
 20
17.3001850565246
 30
0.0
 11
4.437624920363046
 21
17.53904634837873
 31
0.0
  0
LINE
  5
220
330
1F
100
AcDbEntity
  8
0
 62
   178
420
        0
100
AcDbLine
 10
-5.053267440173878
 20
10.25642850013543
 30
0.0
 11
-4.875345998751019
 21
9.99755119647076
 31
0.0
  0
LINE
  5
221
330
1F
100
AcDbEntity
  8
0
 62
   178
420
        0
100
AcDbLine
 10
-5.988375404710962
 20
12.89709193061967
 30
0.0
 11
-5.947374076072149
 21
12.58565591998421
 31
0.0
  0
LINE
  5
222
330
1F
100
AcDbEntity
  8
0
 62
   178
420
        0
100
AcDbLine
 10
-1.875345998751009
 20
19.2306018079965
 30
0.0
 11
-2.171451729773127
 21
19.12574526920879
 31
0.0
  0
LINE
  5
223
330
1F
100
AcDbEntity
  8
0
 62
   178
420
        0
100
AcDbLine
 10
-5.890129636904158
 20
12.27679256531904
 30
0.0
 11
-5.816798990235735
 21
11.97134843961047
 31
0.0
  0
LINE
  5
224
330
1F
100
AcDbEntity
  8
0
 62
   178
420
        0
100
AcDbLine
 10
-0.6484148121072444
 20
19.49139408243522
 30
0.0
 11
-0.9598508227427089
 21
19.4503927537964
 31
0.0
  0
LINE
  5
225
330
1F
100
AcDbEntity
  8
0
 62
   178
420
        0
100
AcDbLine
 10
-2.317335258667697
 20
16.7284779161866
 30
0.0
 11
-2.321594530381564
 21
16.76083029682441
 31
0.0
  0
LINE
  5
226
330
1F
100
AcDbEntity
  8
0
 62
   178
420
        0
100
AcDbLine
 10
-1.894357878029881
 20
15.9958596024695
 30
0.0
 11
-1.914222705854618
 21
16.02174795011782
 31
0.0
  0
LINE
  5
227
330
1F
100
AcDbEntity
  8
0
 62
   178
420
        0
100
AcDbLine
 10
1.531670238113804
 20
19.31981766795999
 30
0.0
 11
1.226226112405236
 21
19.39314831462841
 31
0.0
  0
LINE
  5
228
330
1F
100
AcDbEntity
  8
0
 62
   178
420
        0
100
AcDbLine
 10
-2.134094530381564
 20
16.65257712135136
 30
0.0
 11
-2.164242149743749
 21
16.64008956853828
 31
0.0
  0
LINE
  5
229
330
1F
100
AcDbEntity
  8
0
 62
   178
420
        0
100
AcDbLine
 10
1.226226112405236
 20
19.39314831462841
 30
0.0
 11
0.9173627577400643
 21
19.4503927537964
 31
0.0
  0
LINE
  5
22A
330
1F
100
AcDbEntity
  8
0
 62
   178
420
        0
100
AcDbLine
 10
3.246590177588844
 20
18.55628611789812
 30
0.0
 11
2.978755967498682
 21
18.72041513293221
 31
0.0
  0
LINE
  5
22B
330
1F
100
AcDbEntity
  8
0
 62
   178
420
        0
100
AcDbLine
 10
-3.547955546256182
 20
8.67016074397591
 30
0.0
 11
-3.289078242591505
 21
8.492239302553049
 31
0.0
  0
LINE
  5
22C
330
1F
100
AcDbEntity
  8
0
 62
   178
420
        0
100
AcDbLine
 10
-2.745187030938621
 20
8.178223565095381
 30
0.0
 11
-2.46166389095614
 21
8.04298996436998
 31
0.0
  0
LINE
  5
22D
330
1F
100
AcDbEntity
  8
0
 62
   178
420
        0
100
AcDbLine
 10
-3.289078242591505
 20
8.492239302553049
 30
0.0
 11
-3.021244032501341
 21
8.328110287518959
 31
0.0
  0
LINE
  5
22E
330
1F
100
AcDbEntity
  8
0
 62
   178
420
        0
100
AcDbLine
 10
4.43762492036306
 20
9.509479072072445
 30
0.0
 11
4.64163173624052
 21
9.748340363926571
 31
0.0
  0
LINE
  5
22F
330
1F
100
AcDbEntity
  8
0
 62
   178
420
        0
100
AcDbLine
 10
-0.0212440325013263
 20
7.524262710225578
 30
0.0
 11
0.2927717049563379
 21
7.532485501698135
 31
0.0
  0
LINE
  5
230
330
1F
100
AcDbEntity
  8
0
 62
   178
420
        0
100
AcDbLine
 10
-0.3352597699589914
 20
7.532485501698135
 30
0.0
 11
-0.0212440325013263
 21
7.524262710225578
 31
0.0
  0
LINE
  5
231
330
1F
100
AcDbEntity
  8
0
 62
   178
420
        0
100
AcDbLine
 10
-5.622726591484538
 20
11.3740550129538
 30
0.0
 11
-5.502516778356934
 21
11.0838428517708
 31
0.0
  0
LINE
  5
232
330
1F
100
AcDbEntity
  8
0
 62
   178
420
        0
100
AcDbLine
 10
-5.727583130272247
 20
11.67016074397591
 30
0.0
 11
-5.622726591484538
 21
11.3740550129538
 31
0.0
  0
LINE
  5
233
330
1F
100
AcDbEntity
  8
0
 62
   178
420
        0
100
AcDbLine
 10
5.4600287133543
 20
11.08384285177081
 30
0.0
 11
5.580238526481903
 21
11.37405501295381
 31
0.0
  0
LINE
  5
234
330
1F
100
AcDbEntity
  8
0
 62
   178
420
        0
100
AcDbLine
 10
-5.217396455207949
 20
16.52426271022558
 30
0.0
 11
-5.367283177631525
 21
16.24820570866287
 31
0.0
  0
LINE
  5
235
330
1F
100
AcDbEntity
  8
0
 62
   178
420
        0
100
AcDbLine
 10
-1.875345998751021
 20
7.817923612454662
 30
0.0
 11
-1.574158303116459
 21
7.728707752491172
 31
0.0
  0
LINE
  5
236
330
1F
100
AcDbEntity
  8
0
 62
   178
420
        0
100
AcDbLine
 10
-2.171451729773127
 20
19.12574526920879
 30
0.0
 11
-2.461663890956127
 21
19.00553545608118
 31
0.0
  0
LINE
  5
237
330
1F
100
AcDbEntity
  8
0
 62
   178
420
        0
100
AcDbLine
 10
0.2927717049563379
 20
7.532485501698135
 30
0.0
 11
0.6059267471045979
 21
7.557131338015938
 31
0.0
  0
LINE
  5
238
330
1F
100
AcDbEntity
  8
0
 62
   178
420
        0
100
AcDbLine
 10
-1.26871417740788
 20
19.39314831462841
 30
0.0
 11
-1.574158303116449
 21
19.31981766795999
 31
0.0
  0
LINE
  5
239
330
1F
100
AcDbEntity
  8
0
 62
   178
420
        0
100
AcDbLine
 10
-0.6484148121072506
 20
7.557131338015939
 30
0.0
 11
-0.3352597699589914
 21
7.532485501698135
 31
0.0
  0
LINE
  5
23A
330
1F
100
AcDbEntity
  8
0
 62
   178
420
        0
100
AcDbLine
 10
-2.745187030938605
 20
18.87030185535578
 30
0.0
 11
-3.021244032501324
 21
18.72041513293221
 31
0.0
  0
LINE
  5
23B
330
1F
100
AcDbEntity
  8
0
 62
   178
420
        0
100
AcDbLine
 10
-1.574158303116459
 20
7.728707752491172
 30
0.0
 11
-1.268714177407889
 21
7.655377105822748
 31
0.0
  0
LINE
  5
23C
330
1F
100
AcDbEntity
  8
0
 62
   178
420
        0
100
AcDbLine
 10
-5.367283177631525
 20
16.24820570866287
 30
0.0
 11
-5.502516778356923
 21
15.96468256868039
 31
0.0
  0
LINE
  5
23D
330
1F
100
AcDbEntity
  8
0
 62
   178
420
        0
100
AcDbLine
 10
5.97875596749868
 20
13.52426271022558
 30
0.0
 11
5.970533176026123
 21
13.83827844768324
 31
0.0
  0
LINE
  5
23E
330
1F
100
AcDbEntity
  8
0
 62
   178
420
        0
100
AcDbLine
 10
-5.053267440173862
 20
16.79209692031574
 30
0.0
 11
-5.217396455207949
 21
16.52426271022558
 31
0.0
  0
LINE
  5
23F
330
1F
100
AcDbEntity
  8
0
 62
   178
420
        0
100
AcDbLine
 10
-4.480112985365684
 20
17.53904634837873
 30
0.0
 11
-4.684119801243144
 21
17.3001850565246
 31
0.0
  0
LINE
  5
240
330
1F
100
AcDbEntity
  8
0
 62
   178
420
        0
100
AcDbLine
 10
-4.263884719620605
 20
17.76690339734486
 30
0.0
 11
-4.480112985365684
 21
17.53904634837873
 31
0.0
  0
LINE
  5
241
330
1F
100
AcDbEntity
  8
0
 62
   178
420
        0
100
AcDbLine
 10
-5.622726591484528
 20
15.67447040749739
 30
0.0
 11
-5.727583130272238
 21
15.37836467647527
 31
0.0
  0
LINE
  5
242
330
1F
100
AcDbEntity
  8
0
 62
   178
420
        0
100
AcDbLine
 10
-5.502516778356923
 20
15.96468256868039
 30
0.0
 11
-5.622726591484528
 21
15.67447040749739
 31
0.0
  0
LINE
  5
243
330
1F
100
AcDbEntity
  8
0
 62
   178
420
        0
100
AcDbLine
 10
0.9173627577400643
 20
19.4503927537964
 30
0.0
 11
0.6059267471045988
 21
19.49139408243522
 31
0.0
  0
LINE
  5
244
330
1F
100
AcDbEntity
  8
0
 62
   178
420
        0
100
AcDbLine
 10
-5.890129636904152
 20
14.77173285513214
 30
0.0
 11
-5.947374076072145
 21
14.46286950046697
 31
0.0
  0
LINE
  5
245
330
1F
100
AcDbEntity
  8
0
 62
   178
420
        0
100
AcDbLine
 10
5.774310925233101
 20
11.97134843961049
 30
0.0
 11
5.847641571901521
 21
12.27679256531906
 31
0.0
  0
LINE
  5
246
330
1F
100
AcDbEntity
  8
0
 62
   178
420
        0
100
AcDbLine
 10
4.64163173624052
 20
9.748340363926571
 30
0.0
 11
4.832857933748379
 21
9.99755119647076
 31
0.0
  0
LINE
  5
247
330
1F
100
AcDbEntity
  8
0
 62
   178
420
        0
100
AcDbLine
 10
-5.816798990235728
 20
15.07717698084071
 30
0.0
 11
-5.890129636904152
 21
14.77173285513214
 31
0.0
  0
LINE
  5
248
330
1F
100
AcDbEntity
  8
0
 62
   178
420
        0
100
AcDbLine
 10
-5.727583130272238
 20
15.37836467647527
 30
0.0
 11
-5.816798990235728
 21
15.07717698084071
 31
0.0
  0
LINE
  5
249
330
1F
100
AcDbEntity
  8
0
 62
   178
420
        0
100
AcDbLine
 10
-0.9598508227427089
 20
19.4503927537964
 30
0.0
 11
-1.26871417740788
 21
19.39314831462841
 31
0.0
  0
LINE
  5
24A
330
1F
100
AcDbEntity
  8
0
 62
   178
420
        0
100
AcDbLine
 10
5.970533176026123
 20
13.83827844768324
 30
0.0
 11
5.945887339708319
 21
14.1514334898315
 31
0.0
  0
LINE
  5
24B
330
1F
100
AcDbEntity
  8
0
 62
   178
420
        0
100
AcDbLine
 10
5.945887339708325
 20
12.8970919306197
 30
0.0
 11
5.970533176026125
 21
13.21024697276796
 31
0.0
  0
LINE
  5
24C
330
1F
100
AcDbEntity
  8
0
 62
   178
420
        0
100
AcDbLine
 10
3.754678313797706
 20
18.1871384789674
 30
0.0
 11
3.50546748125352
 21
18.37836467647526
 31
0.0
  0
LINE
  5
24D
330
1F
100
AcDbEntity
  8
0
 62
   178
420
        0
100
AcDbLine
 10
-1.930969530381563
 20
16.08424795011782
 30
0.0
 11
-1.926710258667697
 21
16.11660033075563
 31
0.0
  0
LINE
  5
24E
330
1F
100
AcDbEntity
  8
0
 62
   178
420
        0
100
AcDbLine
 10
-3.797166378800346
 20
18.1871384789674
 30
0.0
 11
-4.03602767065447
 21
17.98313166308994
 31
0.0
  0
LINE
  5
24F
330
1F
100
AcDbEntity
  8
0
 62
   178
420
        0
100
AcDbLine
 10
2.128963664770483
 20
19.12574526920879
 30
0.0
 11
1.832857933748365
 21
19.2306018079965
 31
0.0
  0
LINE
  5
250
330
1F
100
AcDbEntity
  8
0
 62
   178
420
        0
100
AcDbLine
 10
5.77431092523309
 20
15.0771769808407
 30
0.0
 11
5.685095065269602
 21
15.37836467647526
 31
0.0
  0
LINE
  5
251
330
1F
100
AcDbEntity
  8
0
 62
   178
420
        0
100
AcDbLine
 10
3.754678313797717
 20
8.861386941483763
 30
0.0
 11
3.993539605651842
 21
9.065393757361225
 31
0.0
  0
LINE
  5
252
330
1F
100
AcDbEntity
  8
0
 62
   178
420
        0
100
AcDbLine
 10
5.324795112628886
 20
16.24820570866286
 30
0.0
 11
5.174908390205312
 21
16.52426271022558
 31
0.0
  0
LINE
  5
253
330
1F
100
AcDbEntity
  8
0
 62
   178
420
        0
100
AcDbLine
 10
0.6059267471045979
 20
7.557131338015938
 30
0.0
 11
0.9173627577400643
 21
7.598132666654752
 31
0.0
  0
LINE
  5
254
330
1F
100
AcDbEntity
  8
0
 62
   178
420
        0
100
AcDbLine
 10
5.904886011069506
 20
14.46286950046696
 30
0.0
 11
5.847641571901514
 21
14.77173285513213
 31
0.0
  0
LINE
  5
255
330
1F
100
AcDbEntity
  8
0
 62
   178
420
        0
100
AcDbLine
 10
5.945887339708319
 20
14.1514334898315
 30
0.0
 11
5.904886011069506
 21
14.46286950046696
 31
0.0
  0
LINE
  5
256
330
1F
100
AcDbEntity
  8
0
 62
   178
420
        0
100
AcDbLine
 10
1.832857933748368
 20
7.817923612454658
 30
0.0
 11
2.128963664770486
 21
7.922780151242369
 31
0.0
  0
LINE
  5
257
330
1F
100
AcDbEntity
  8
0
 62
   178
420
        0
100
AcDbLine
 10
-6.013021241028762
 20
13.83827844768325
 30
0.0
 11
-6.02124403250132
 21
13.52426271022559
 31
0.0
  0
LINE
  5
258
330
1F
100
AcDbEntity
  8
0
 62
   178
420
        0
100
AcDbLine
 10
-2.171451729773139
 20
7.922780151242375
 30
0.0
 11
-1.875345998751021
 21
7.817923612454662
 31
0.0
  0
LINE
  5
259
330
1F
100
AcDbEntity
  8
0
 62
   178
420
        0
100
AcDbLine
 10
2.702698965935962
 20
18.87030185535578
 30
0.0
 11
2.419175825953483
 21
19.00553545608118
 31
0.0
  0
LINE
  5
25A
330
1F
100
AcDbEntity
  8
0
 62
   178
420
        0
100
AcDbLine
 10
5.010779375171223
 20
16.79209692031574
 30
0.0
 11
4.832857933748365
 21
17.05097422398042
 31
0.0
  0
LINE
  5
25B
330
1F
100
AcDbEntity
  8
0
 62
   178
420
        0
100
AcDbLine
 10
4.221396654617966
 20
17.76690339734486
 30
0.0
 11
3.993539605651831
 21
17.98313166308994
 31
0.0
  0
LINE
  5
25C
330
1F
100
AcDbEntity
  8
0
 62
   178
420
        0
100
AcDbLine
 10
3.50546748125352
 20
18.37836467647526
 30
0.0
 11
3.246590177588844
 21
18.55628611789812
 31
0.0
  0
LINE
  5
25D
330
1F
100
AcDbEntity
  8
0
 62
   178
420
        0
100
AcDbLine
 10
-4.875345998751019
 20
9.99755119647076
 30
0.0
 11
-4.684119801243162
 21
9.748340363926573
 31
0.0
  0
LINE
  5
25E
330
1F
100
AcDbEntity
  8
0
 62
   178
420
        0
100
AcDbLine
 10
-1.914222705854618
 20
16.14674795011782
 30
0.0
 11
-1.894357878029881
 21
16.17263629776614
 31
0.0
  0
LINE
  5
25F
330
1F
100
AcDbEntity
  8
0
 62
   178
420
        0
100
AcDbLine
 10
-0.0212440325013228
 20
19.52426271022558
 30
0.0
 11
-0.3352597699589861
 21
19.51603991875302
 31
0.0
  0
LINE
  5
260
330
1F
100
AcDbEntity
  8
0
 62
   178
420
        0
100
AcDbLine
 10
-0.3352597699589861
 20
19.51603991875302
 30
0.0
 11
-0.6484148121072444
 21
19.49139408243522
 31
0.0
  0
LINE
  5
261
330
1F
100
AcDbEntity
  8
0
 62
   178
420
        0
100
AcDbLine
 10
-2.317335258667697
 20
16.79318267746223
 30
0.0
 11
-2.304847705854619
 21
16.82333029682441
 31
0.0
  0
LINE
  5
262
330
1F
100
AcDbEntity
  8
0
 62
   178
420
        0
100
AcDbLine
 10
-5.217396455207964
 20
10.5242627102256
 30
0.0
 11
-5.053267440173878
 21
10.25642850013543
 31
0.0
  0
LINE
  5
263
330
1F
100
AcDbEntity
  8
0
 62
   178
420
        0
100
AcDbLine
 10
0.9173627577400643
 20
7.598132666654752
 30
0.0
 11
1.226226112405237
 21
7.655377105822745
 31
0.0
  0
LINE
  5
264
330
1F
100
AcDbEntity
  8
0
 62
   178
420
        0
100
AcDbLine
 10
-2.321594530381564
 20
16.76083029682441
 30
0.0
 11
-2.317335258667697
 21
16.79318267746223
 31
0.0
  0
LINE
  5
265
330
1F
100
AcDbEntity
  8
0
 62
   178
420
        0
100
AcDbLine
 10
3.993539605651842
 20
9.065393757361225
 30
0.0
 11
4.22139665461798
 21
9.281622023106308
 31
0.0
  0
LINE
  5
266
330
1F
100
AcDbEntity
  8
0
 62
   178
420
        0
100
AcDbLine
 10
1.531670238113807
 20
7.728707752491169
 30
0.0
 11
1.832857933748368
 21
7.817923612454658
 31
0.0
  0
LINE
  5
267
330
1F
100
AcDbEntity
  8
0
 62
   178
420
        0
100
AcDbLine
 10
-3.289078242591485
 20
18.55628611789812
 30
0.0
 11
-3.54795554625616
 21
18.37836467647526
 31
0.0
  0
LINE
  5
268
330
1F
100
AcDbEntity
  8
0
 62
   178
420
        0
100
AcDbLine
 10
5.580238526481891
 20
15.67447040749738
 30
0.0
 11
5.460028713354285
 21
15.96468256868038
 31
0.0
  0
LINE
  5
269
330
1F
100
AcDbEntity
  8
0
 62
   178
420
        0
100
AcDbLine
 10
5.580238526481903
 20
11.37405501295381
 30
0.0
 11
5.685095065269612
 21
11.67016074397593
 31
0.0
  0
LINE
  5
26A
330
1F
100
AcDbEntity
  8
0
 62
   178
420
        0
100
AcDbLine
 10
1.226226112405237
 20
7.655377105822745
 30
0.0
 11
1.531670238113807
 21
7.728707752491169
 31
0.0
  0
LINE
  5
26B
330
1F
100
AcDbEntity
  8
0
 62
   178
420
        0
100
AcDbLine
 10
-1.926710258667697
 20
16.11660033075563
 30
0.0
 11
-1.914222705854618
 21
16.14674795011782
 31
0.0
  0
LINE
  5
26C
330
1F
100
AcDbEntity
  8
0
 62
   178
420
        0
100
AcDbLine
 10
2.419175825953488
 20
8.042989964369976
 30
0.0
 11
2.702698965935969
 21
8.178223565095376
 31
0.0
  0
LINE
  5
26D
330
1F
100
AcDbEntity
  8
0
 62
   178
420
        0
100
AcDbLine
 10
2.128963664770486
 20
7.922780151242369
 30
0.0
 11
2.419175825953488
 21
8.042989964369976
 31
0.0
  0
LINE
  5
26E
330
1F
100
AcDbEntity
  8
0
 62
   178
420
        0
100
AcDbLine
 10
-1.894357878029881
 20
16.17263629776614
 30
0.0
 11
-1.868469530381563
 21
16.19250112559087
 31
0.0
  0
LINE
  5
26F
330
1F
100
AcDbEntity
  8
0
 62
   178
420
        0
100
AcDbLine
 10
-3.021244032501324
 20
18.72041513293221
 30
0.0
 11
-3.289078242591485
 21
18.55628611789812
 31
0.0
  0
LINE
  5
270
330
1F
100
AcDbEntity
  8
0
 62
   178
420
        0
100
AcDbLine
 10
-5.367283177631538
 20
10.80031971178832
 30
0.0
 11
-5.217396455207964
 21
10.5242627102256
 31
0.0
  0
LINE
  5
271
330
1F
100
AcDbEntity
  8
0
 62
   178
420
        0
100
AcDbLine
 10
5.685095065269612
 20
11.67016074397593
 30
0.0
 11
5.774310925233101
 21
11.97134843961049
 31
0.0
  0
LINE
  5
272
330
1F
100
AcDbEntity
  8
0
 62
   178
420
        0
100
AcDbLine
 10
-1.648130186972762
 20
9.933681775978428
 30
0.0
 11
-1.67401853462108
 21
9.913816948153691
 31
0.0
  0
LINE
  5
273
330
1F
100
AcDbEntity
  8
0
 62
   178
420
        0
100
AcDbLine
 10
-1.67401853462108
 20
9.913816948153691
 30
0.0
 11
-1.704166153983265
 21
9.901329395340614
 31
0.0
  0
LINE
  5
274
330
1F
100
AcDbEntity
  8
0
 62
   178
420
        0
100
AcDbLine
 10
-1.704166153983265
 20
9.901329395340614
 30
0.0
 11
-1.73651853462108
 21
9.897070123626747
 31
0.0
  0
LINE
  5
275
330
1F
100
AcDbEntity
  8
0
 62
   178
420
        0
100
AcDbLine
 10
-1.73651853462108
 20
9.897070123626747
 30
0.0
 11
-1.768870915258895
 21
9.901329395340614
 31
0.0
  0
LINE
  5
276
330
1F
100
AcDbEntity
  8
0
 62
   178
420
        0
100
AcDbLine
 10
-1.768870915258895
 20
9.901329395340614
 30
0.0
 11
-1.79901853462108
 21
9.913816948153691
 31
0.0
  0
LINE
  5
277
330
1F
100
AcDbEntity
  8
0
 62
   178
420
        0
100
AcDbLine
 10
-1.648130186972761
 20
10.11045847127506
 30
0.0
 11
-1.628265359148025
 21
10.08457012362675
 31
0.0
  0
LINE
  5
278
330
1F
100
AcDbEntity
  8
0
 62
   178
420
        0
100
AcDbLine
 10
-1.628265359148025
 20
10.08457012362675
 30
0.0
 11
-1.615777806334947
 21
10.05442250426456
 31
0.0
  0
LINE
  5
279
330
1F
100
AcDbEntity
  8
0
 62
   178
420
        0
100
AcDbLine
 10
-1.615777806334947
 20
10.05442250426456
 30
0.0
 11
-1.61151853462108
 21
10.02207012362675
 31
0.0
  0
LINE
  5
27A
330
1F
100
AcDbEntity
  8
0
 62
   178
420
        0
100
AcDbLine
 10
-1.61151853462108
 20
10.02207012362675
 30
0.0
 11
-1.615777806334947
 21
9.989717742988931
 31
0.0
  0
LINE
  5
27B
330
1F
100
AcDbEntity
  8
0
 62
   178
420
        0
100
AcDbLine
 10
-1.615777806334947
 20
9.989717742988931
 30
0.0
 11
-1.628265359148025
 21
9.959570123626747
 31
0.0
  0
LINE
  5
27C
330
1F
100
AcDbEntity
  8
0
 62
   178
420
        0
100
AcDbLine
 10
-1.628265359148025
 20
9.959570123626747
 30
0.0
 11
-1.648130186972762
 21
9.933681775978428
 31
0.0
  0
LINE
  5
27D
330
1F
100
AcDbEntity
  8
0
 62
   178
420
        0
100
AcDbLine
 10
-0.6649113752097158
 20
11.66352329820343
 30
0.0
 11
-0.6879205261420438
 21
11.64586775572257
 31
0.0
  0
LINE
  5
27E
330
1F
100
AcDbEntity
  8
0
 62
   178
420
        0
100
AcDbLine
 10
-0.6879205261420438
 20
11.64586775572257
 30
0.0
 11
-0.7147152499142262
 21
11.63476901773609
 31
0.0
  0
LINE
  5
27F
330
1F
100
AcDbEntity
  8
0
 62
   178
420
        0
100
AcDbLine
 10
-0.7147152499142262
 20
11.63476901773609
 30
0.0
 11
-0.743469530381561
 21
11.63098344489624
 31
0.0
  0
LINE
  5
280
330
1F
100
AcDbEntity
  8
0
 62
   178
420
        0
100
AcDbLine
 10
-0.743469530381561
 20
11.63098344489624
 30
0.0
 11
-0.7722238108488968
 21
11.63476901773609
 31
0.0
  0
LINE
  5
281
330
1F
100
AcDbEntity
  8
0
 62
   178
420
        0
100
AcDbLine
 10
-0.7722238108488968
 20
11.63476901773609
 30
0.0
 11
-0.7990185346210792
 21
11.64586775572257
 31
0.0
  0
LINE
  5
282
330
1F
100
AcDbEntity
  8
0
 62
   178
420
        0
100
AcDbLine
 10
-1.304847705854616
 20
11.95724593119562
 30
0.0
 11
-1.317335258667695
 21
11.98739355055781
 31
0.0
  0
LINE
  5
283
330
1F
100
AcDbEntity
  8
0
 62
   178
420
        0
100
AcDbLine
 10
-1.317335258667695
 20
11.98739355055781
 30
0.0
 11
-1.321594530381562
 21
12.01974593119562
 31
0.0
  0
LINE
  5
284
330
1F
100
AcDbEntity
  8
0
 62
   178
420
        0
100
AcDbLine
 10
-1.321594530381562
 20
12.01974593119562
 30
0.0
 11
-1.317335258667695
 21
12.05209831183344
 31
0.0
  0
LINE
  5
285
330
1F
100
AcDbEntity
  8
0
 62
   178
420
        0
100
AcDbLine
 10
-1.304847705854616
 20
12.08224593119562
 30
0.0
 11
-1.284982878029879
 21
12.10813427884394
 31
0.0
  0
LINE
  5
286
330
1F
100
AcDbEntity
  8
0
 62
   178
420
        0
100
AcDbLine
 10
-1.228946911019376
 20
12.14048665948176
 30
0.0
 11
-1.196594530381561
 21
12.14474593119562
 31
0.0
  0
LINE
  5
287
330
1F
100
AcDbEntity
  8
0
 62
   178
420
        0
100
AcDbLine
 10
-1.196594530381561
 20
12.14474593119562
 30
0.0
 11
-1.164242149743746
 21
12.14048665948176
 31
0.0
  0
LINE
  5
288
330
1F
100
AcDbEntity
  8
0
 62
   178
420
        0
100
AcDbLine
 10
-1.164242149743746
 20
12.14048665948176
 30
0.0
 11
-1.134094530381561
 21
12.12799910666868
 31
0.0
  0
LINE
  5
289
330
1F
100
AcDbEntity
  8
0
 62
   178
420
        0
100
AcDbLine
 10
-0.2575051869727591
 20
12.51909162555054
 30
0.0
 11
-0.2376403591480232
 21
12.49320327790222
 31
0.0
  0
LINE
  5
28A
330
1F
100
AcDbEntity
  8
0
 62
   178
420
        0
100
AcDbLine
 10
-0.2376403591480232
 20
12.49320327790222
 30
0.0
 11
-0.2251528063349442
 21
12.46305565854003
 31
0.0
  0
LINE
  5
28B
330
1F
100
AcDbEntity
  8
0
 62
   178
420
        0
100
AcDbLine
 10
-0.2208935346210783
 20
12.43070327790222
 30
0.0
 11
-0.2251528063349442
 21
12.3983508972644
 31
0.0
  0
LINE
  5
28C
330
1F
100
AcDbEntity
  8
0
 62
   178
420
        0
100
AcDbLine
 10
-0.2376403591480232
 20
12.36820327790222
 30
0.0
 11
-0.25750518697276
 21
12.3423149302539
 31
0.0
  0
LINE
  5
28D
330
1F
100
AcDbEntity
  8
0
 62
   178
420
        0
100
AcDbLine
 10
-0.25750518697276
 20
12.3423149302539
 30
0.0
 11
-0.2833935346210783
 21
12.32245010242916
 31
0.0
  0
LINE
  5
28E
330
1F
100
AcDbEntity
  8
0
 62
   178
420
        0
100
AcDbLine
 10
-0.2833935346210783
 20
12.32245010242916
 30
0.0
 11
-0.3135411539832633
 21
12.30996254961608
 31
0.0
  0
LINE
  5
28F
330
1F
100
AcDbEntity
  8
0
 62
   178
420
        0
100
AcDbLine
 10
-0.3135411539832633
 20
12.30996254961608
 30
0.0
 11
-0.3458935346210783
 21
12.30570327790222
 31
0.0
  0
LINE
  5
290
330
1F
100
AcDbEntity
  8
0
 62
   178
420
        0
100
AcDbLine
 10
-0.3458935346210783
 20
12.30570327790222
 30
0.0
 11
-0.3782459152588933
 21
12.30996254961608
 31
0.0
  0
LINE
  5
291
330
1F
100
AcDbEntity
  8
0
 62
   178
420
        0
100
AcDbLine
 10
-0.3782459152588933
 20
12.30996254961608
 30
0.0
 11
-0.4083935346210783
 21
12.32245010242916
 31
0.0
  0
LINE
  5
292
330
1F
100
AcDbEntity
  8
0
 62
   178
420
        0
100
AcDbLine
 10
-0.6879205261420438
 20
11.83829515102797
 30
0.0
 11
-0.6649113752097158
 21
11.82063960854712
 31
0.0
  0
LINE
  5
293
330
1F
100
AcDbEntity
  8
0
 62
   178
420
        0
100
AcDbLine
 10
-0.6649113752097158
 20
11.82063960854712
 30
0.0
 11
-0.6472558327288578
 21
11.79763045761479
 31
0.0
  0
LINE
  5
294
330
1F
100
AcDbEntity
  8
0
 62
   178
420
        0
100
AcDbLine
 10
-0.6472558327288578
 20
11.79763045761479
 30
0.0
 11
-0.63615709474238
 21
11.77083573384261
 31
0.0
  0
LINE
  5
295
330
1F
100
AcDbEntity
  8
0
 62
   178
420
        0
100
AcDbLine
 10
-0.63615709474238
 20
11.77083573384261
 30
0.0
 11
-0.6323715219025265
 21
11.74208145337527
 31
0.0
  0
LINE
  5
296
330
1F
100
AcDbEntity
  8
0
 62
   178
420
        0
100
AcDbLine
 10
-0.6323715219025265
 20
11.74208145337527
 30
0.0
 11
-0.63615709474238
 21
11.71332717290794
 31
0.0
  0
LINE
  5
297
330
1F
100
AcDbEntity
  8
0
 62
   178
420
        0
100
AcDbLine
 10
-0.63615709474238
 20
11.71332717290794
 30
0.0
 11
-0.6472558327288587
 21
11.68653244913575
 31
0.0
  0
LINE
  5
298
330
1F
100
AcDbEntity
  8
0
 62
   178
420
        0
100
AcDbLine
 10
-0.6472558327288587
 20
11.68653244913575
 30
0.0
 11
-0.6649113752097158
 21
11.66352329820343
 31
0.0
  0
LINE
  5
299
330
1F
100
AcDbEntity
  8
0
 62
   178
420
        0
100
AcDbLine
 10
3.977634142971734
 20
13.19613771022558
 30
0.0
 11
3.957769315146999
 21
13.17024936257726
 31
0.0
  0
LINE
  5
29A
330
1F
100
AcDbEntity
  8
0
 62
   178
420
        0
100
AcDbLine
 10
3.957769315146999
 20
13.17024936257726
 30
0.0
 11
3.93188096749868
 21
13.15038453475253
 31
0.0
  0
LINE
  5
29B
330
1F
100
AcDbEntity
  8
0
 62
   178
420
        0
100
AcDbLine
 10
3.901733348136494
 20
13.13789698193945
 30
0.0
 11
3.86938096749868
 21
13.13363771022558
 31
0.0
  0
LINE
  5
29C
330
1F
100
AcDbEntity
  8
0
 62
   178
420
        0
100
AcDbLine
 10
3.780992619850361
 20
13.17024936257726
 30
0.0
 11
3.761127792025626
 21
13.19613771022558
 31
0.0
  0
LINE
  5
29D
330
1F
100
AcDbEntity
  8
0
 62
   178
420
        0
100
AcDbLine
 10
3.748640239212547
 20
13.22628532958776
 30
0.0
 11
3.74438096749868
 21
13.25863771022558
 31
0.0
  0
LINE
  5
29E
330
1F
100
AcDbEntity
  8
0
 62
   178
420
        0
100
AcDbLine
 10
3.08813096749868
 20
13.13363771022558
 30
0.0
 11
3.055778586860866
 21
13.13789698193945
 31
0.0
  0
LINE
  5
29F
330
1F
100
AcDbEntity
  8
0
 62
   178
420
        0
100
AcDbLine
 10
3.055778586860866
 20
13.13789698193945
 30
0.0
 11
3.02563096749868
 21
13.15038453475253
 31
0.0
  0
LINE
  5
2A0
330
1F
100
AcDbEntity
  8
0
 62
   178
420
        0
100
AcDbLine
 10
3.02563096749868
 20
13.15038453475253
 30
0.0
 11
2.999742619850361
 21
13.17024936257726
 31
0.0
  0
LINE
  5
2A1
330
1F
100
AcDbEntity
  8
0
 62
   178
420
        0
100
AcDbLine
 10
2.967390239212547
 20
13.22628532958776
 30
0.0
 11
2.96313096749868
 21
13.25863771022559
 31
0.0
  0
LINE
  5
2A2
330
1F
100
AcDbEntity
  8
0
 62
   178
420
        0
100
AcDbLine
 10
2.999742619850361
 20
13.8782760578739
 30
0.0
 11
3.02563096749868
 21
13.89814088569863
 31
0.0
  0
LINE
  5
2A3
330
1F
100
AcDbEntity
  8
0
 62
   178
420
        0
100
AcDbLine
 10
3.02563096749868
 20
13.89814088569863
 30
0.0
 11
3.055778586860866
 21
13.91062843851171
 31
0.0
  0
LINE
  5
2A4
330
1F
100
AcDbEntity
  8
0
 62
   178
420
        0
100
AcDbLine
 10
3.08813096749868
 20
13.91488771022558
 30
0.0
 11
3.120483348136494
 21
13.91062843851171
 31
0.0
  0
LINE
  5
2A5
330
1F
100
AcDbEntity
  8
0
 62
   178
420
        0
100
AcDbLine
 10
3.196384142971734
 20
13.85238771022558
 30
0.0
 11
3.208871695784813
 21
13.8222400908634
 31
0.0
  0
LINE
  5
2A6
330
1F
100
AcDbEntity
  8
0
 62
   178
420
        0
100
AcDbLine
 10
3.208871695784813
 20
13.8222400908634
 30
0.0
 11
3.21313096749868
 21
13.78988771022558
 31
0.0
  0
LINE
  5
2A7
330
1F
100
AcDbEntity
  8
0
 62
   178
420
        0
100
AcDbLine
 10
3.74438096749868
 20
13.78988771022558
 30
0.0
 11
3.748640239212547
 21
13.8222400908634
 31
0.0
  0
LINE
  5
2A8
330
1F
100
AcDbEntity
  8
0
 62
   178
420
        0
100
AcDbLine
 10
1.957769315146998
 20
13.17024936257726
 30
0.0
 11
1.93188096749868
 21
13.15038453475253
 31
0.0
  0
LINE
  5
2A9
330
1F
100
AcDbEntity
  8
0
 62
   178
420
        0
100
AcDbLine
 10
1.86938096749868
 20
13.13363771022558
 30
0.0
 11
1.837028586860865
 21
13.13789698193945
 31
0.0
  0
LINE
  5
2AA
330
1F
100
AcDbEntity
  8
0
 62
   178
420
        0
100
AcDbLine
 10
1.990121695784813
 20
13.8222400908634
 30
0.0
 11
1.99438096749868
 21
13.78988771022558
 31
0.0
  0
LINE
  5
2AB
330
1F
100
AcDbEntity
  8
0
 62
   178
420
        0
100
AcDbLine
 10
0.9269736761807774
 20
22.45139797546938
 30
0.0
 11
0.3394913166764102
 21
22.49285774654222
 31
0.0
  0
LINE
  5
2AC
330
1F
100
AcDbEntity
  8
0
 62
   178
420
        0
100
AcDbLine
 10
3.755348768422781
 20
21.67834341117402
 30
0.0
 11
3.212370828306463
 21
21.90644293307897
 31
0.0
  0
LINE
  5
2AD
330
1F
100
AcDbEntity
  8
0
 62
   178
420
        0
100
AcDbLine
 10
3.212370828306463
 20
21.90644293307897
 30
0.0
 11
2.655637023131195
 21
22.09854162001175
 31
0.0
  0
LINE
  5
2AE
330
1F
100
AcDbEntity
  8
0
 62
   178
420
        0
100
AcDbLine
 10
2.655637023131195
 20
22.09854162001175
 30
0.0
 11
2.087531372522067
 21
22.25381687590338
 31
0.0
  0
LINE
  5
2AF
330
1F
100
AcDbEntity
  8
0
 62
   178
420
        0
100
AcDbLine
 10
2.087531372522067
 20
22.25381687590338
 30
0.0
 11
1.510486592092152
 21
22.37160378826983
 31
0.0
  0
LINE
  5
2B0
330
1F
100
AcDbEntity
  8
0
 62
   178
420
        0
100
AcDbLine
 10
1.510486592092152
 20
22.37160378826983
 30
0.0
 11
0.9269736761807774
 21
22.45139797546938
 31
0.0
  0
LINE
  5
2B1
330
1F
100
AcDbEntity
  8
0
 62
   178
420
        0
100
AcDbLine
 10
0.3394913166764102
 20
22.49285774654222
 30
0.0
 11
-0.249444796765621
 21
22.49580556438358
 31
0.0
  0
LINE
  5
2B2
330
1F
100
AcDbEntity
  8
0
 62
   178
420
        0
100
AcDbLine
 10
-0.249444796765621
 20
22.49580556438358
 30
0.0
 11
-0.8373127492924404
 21
22.46022880598492
 31
0.0
  0
LINE
  5
2B3
330
1F
100
AcDbEntity
  8
0
 62
   178
420
        0
100
AcDbLine
 10
-0.8373127492924404
 20
22.46022880598492
 30
0.0
 11
-1.421595200080198
 21
22.38627981648754
 31
0.0
  0
LINE
  5
2B4
330
1F
100
AcDbEntity
  8
0
 62
   178
420
        0
100
AcDbLine
 10
-1.421595200080198
 20
22.38627981648754
 30
0.0
 11
-1.999790161973946
 21
22.27427525681733
 31
0.0
  0
LINE
  5
2B5
330
1F
100
AcDbEntity
  8
0
 62
   178
420
        0
100
AcDbLine
 10
-8.952134929929725
 20
14.42623672172045
 30
0.0
 11
-8.993594701002559
 21
13.83875436221608
 31
0.0
  0
LINE
  5
2B6
330
1F
100
AcDbEntity
  8
0
 62
   178
420
        0
100
AcDbLine
 10
0.9136833455403401
 20
6.559149015922983
 30
0.0
 11
1.811733315717625
 21
6.737782261516175
 31
0.0
  0
LINE
  5
2B7
330
1F
100
AcDbEntity
  8
0
 62
   178
420
        0
100
AcDbLine
 10
4.949747468305814
 20
8.549515577233807
 30
0.0
 11
5.55347338203863
 21
9.237933042478591
 31
0.0
  0
LINE
  5
2B8
330
1F
100
AcDbEntity
  8
0
 62
   178
420
        0
100
AcDbLine
 10
3.499999999999979
 20
7.437085219048575
 30
0.0
 11
4.261330003061024
 21
7.945789663500997
 31
0.0
  0
LINE
  5
2B9
330
1F
100
AcDbEntity
  8
0
 62
   178
420
        0
100
AcDbLine
 10
6.761480784023471
 20
11.68752972982198
 30
0.0
 11
6.940114029616668
 21
12.58557969999926
 31
0.0
  0
LINE
  5
2BA
330
1F
100
AcDbEntity
  8
0
 62
   178
420
        0
100
AcDbLine
 10
6.940114029616668
 20
12.58557969999926
 30
0.0
 11
6.983614134296174
 21
13.2492630455394
 31
0.0
  0
LINE
  5
2BB
330
1F
100
AcDbEntity
  8
0
 62
   178
420
        0
100
AcDbLine
 10
6.467156727578997
 20
10.820479018984
 30
0.0
 11
6.761480784023471
 21
11.68752972982198
 31
0.0
  0
LINE
  5
2BC
330
1F
100
AcDbEntity
  8
0
 62
   178
420
        0
100
AcDbLine
 10
6.062177826491057
 20
9.999263045539633
 30
0.0
 11
6.467156727578997
 21
10.820479018984
 31
0.0
  0
LINE
  5
2BD
330
1F
100
AcDbEntity
  8
0
 62
   178
420
        0
100
AcDbLine
 10
2.678784026555606
 20
7.032106317960642
 30
0.0
 11
3.499999999999979
 21
7.437085219048575
 31
0.0
  0
LINE
  5
2BE
330
1F
100
AcDbEntity
  8
0
 62
   178
420
        0
100
AcDbLine
 10
1.811733315717625
 20
6.737782261516175
 30
0.0
 11
2.678784026555606
 21
7.032106317960642
 31
0.0
  0
LINE
  5
2BF
330
1F
100
AcDbEntity
  8
0
 62
   178
420
        0
100
AcDbLine
 10
5.55347338203863
 20
9.237933042478591
 30
0.0
 11
6.062177826491057
 21
9.999263045539633
 31
0.0
  0
LINE
  5
2C0
330
1F
100
AcDbEntity
  8
0
 62
   178
420
        0
100
AcDbLine
 10
-6.062177826491077
 20
9.999263045539667
 30
0.0
 11
-5.553473382038653
 21
9.237933042478623
 31
0.0
  0
LINE
  5
2C1
330
1F
100
AcDbEntity
  8
0
 62
   178
420
        0
100
AcDbLine
 10
-8.625431702154387
 20
10.92984133015892
 30
0.0
 11
-8.43891577028211
 21
10.37121243500218
 31
0.0
  0
LINE
  5
2C2
330
1F
100
AcDbEntity
  8
0
 62
   178
420
        0
100
AcDbLine
 10
7.666511969162867
 20
18.2135598358025
 30
0.0
 11
7.341767616341913
 21
18.70488003756214
 31
0.0
  0
LINE
  5
2C3
330
1F
100
AcDbEntity
  8
0
 62
   178
420
        0
100
AcDbLine
 10
-4.282245728581101
 20
5.583306279611177
 30
0.0
 11
-3.755348768422797
 21
5.320182679905306
 31
0.0
  0
LINE
  5
2C4
330
1F
100
AcDbEntity
  8
0
 62
   178
420
        0
100
AcDbLine
 10
5.278850217176862
 20
20.78855247487444
 30
0.0
 11
4.790805455107273
 21
21.11819886961079
 31
0.0
  0
LINE
  5
2C5
330
1F
100
AcDbEntity
  8
0
 62
   178
420
        0
100
AcDbLine
 10
-1.811733315717648
 20
20.26074382956314
 30
0.0
 11
-2.678784026555631
 21
19.96641977311867
 31
0.0
  0
LINE
  5
2C6
330
1F
100
AcDbEntity
  8
0
 62
   178
420
        0
100
AcDbLine
 10
-8.775012211277673
 20
11.49947288356573
 30
0.0
 11
-8.625431702154387
 21
10.92984133015892
 31
0.0
  0
LINE
  5
2C7
330
1F
100
AcDbEntity
  8
0
 62
   178
420
        0
100
AcDbLine
 10
-6.119375188146464
 20
20.09875145803781
 30
0.0
 11
-6.537900329632306
 21
19.68439516052263
 31
0.0
  0
LINE
  5
2C8
330
1F
100
AcDbEntity
  8
0
 62
   178
420
        0
100
AcDbLine
 10
4.261330003061046
 20
19.0527364275783
 30
0.0
 11
3.500000000000002
 21
19.56144087203073
 31
0.0
  0
LINE
  5
2C9
330
1F
100
AcDbEntity
  8
0
 62
   178
420
        0
100
AcDbLine
 10
6.467156727579008
 20
16.17804707209529
 30
0.0
 11
6.062177826491071
 21
16.99926304553966
 31
0.0
  0
LINE
  5
2CA
330
1F
100
AcDbEntity
  8
0
 62
   178
420
        0
100
AcDbLine
 10
-6.467156727579011
 20
10.82047901898404
 30
0.0
 11
-6.062177826491077
 21
9.999263045539667
 31
0.0
  0
LINE
  5
2CB
330
1F
100
AcDbEntity
  8
0
 62
   178
420
        0
100
AcDbLine
 10
5.553473382038646
 20
17.7605930486007
 30
0.0
 11
4.949747468305834
 21
18.44901051384549
 31
0.0
  0
LINE
  5
2CC
330
1F
100
AcDbEntity
  8
0
 62
   178
420
        0
100
AcDbLine
 10
-3.755348768422797
 20
5.320182679905306
 30
0.0
 11
-3.212370828306476
 21
5.092083158000342
 31
0.0
  0
LINE
  5
2CD
330
1F
100
AcDbEntity
  8
0
 62
   178
420
        0
100
AcDbLine
 10
0.2494447967656317
 20
4.502720526695736
 30
0.0
 11
0.8373127492924564
 21
4.538297285094398
 31
0.0
  0
LINE
  5
2CE
330
1F
100
AcDbEntity
  8
0
 62
   178
420
        0
100
AcDbLine
 10
8.996542518843922
 20
13.74870784230528
 30
0.0
 11
8.96096576044526
 21
14.3365757948321
 31
0.0
  0
LINE
  5
2CF
330
1F
100
AcDbEntity
  8
0
 62
   178
420
        0
100
AcDbLine
 10
-0.0000000000000195
 20
6.499263045539658
 30
0.0
 11
0.9136833455403401
 21
6.559149015922983
 31
0.0
  0
LINE
  5
2D0
330
1F
100
AcDbEntity
  8
0
 62
   178
420
        0
100
AcDbLine
 10
-6.928429178189943
 20
19.24355317773234
 30
0.0
 11
-7.289289429334772
 21
18.77811326271653
 31
0.0
  0
LINE
  5
2D1
330
1F
100
AcDbEntity
  8
0
 62
   178
420
        0
100
AcDbLine
 10
8.993594701002563
 20
13.15977172886334
 30
0.0
 11
8.996542518843922
 21
13.74870784230528
 31
0.0
  0
LINE
  5
2D2
330
1F
100
AcDbEntity
  8
0
 62
   178
420
        0
100
AcDbLine
 10
8.96096576044526
 20
14.3365757948321
 30
0.0
 11
8.887016770947882
 21
14.92085824561986
 31
0.0
  0
LINE
  5
2D3
330
1F
100
AcDbEntity
  8
0
 62
   178
420
        0
100
AcDbLine
 10
8.887016770947882
 20
14.92085824561986
 30
0.0
 11
8.775012211277668
 21
15.49905320751361
 31
0.0
  0
LINE
  5
2D4
330
1F
100
AcDbEntity
  8
0
 62
   178
420
        0
100
AcDbLine
 10
8.775012211277668
 20
15.49905320751361
 30
0.0
 11
8.625431702154382
 21
16.06868476092042
 31
0.0
  0
LINE
  5
2D5
330
1F
100
AcDbEntity
  8
0
 62
   178
420
        0
100
AcDbLine
 10
8.625431702154382
 20
16.06868476092042
 30
0.0
 11
8.438915770282103
 21
16.62731365607716
 31
0.0
  0
LINE
  5
2D6
330
1F
100
AcDbEntity
  8
0
 62
   178
420
        0
100
AcDbLine
 10
8.438915770282103
 20
16.62731365607716
 30
0.0
 11
8.216263105515553
 21
17.17254775829252
 31
0.0
  0
LINE
  5
2D7
330
1F
100
AcDbEntity
  8
0
 62
   178
420
        0
100
AcDbLine
 10
8.216263105515553
 20
17.17254775829252
 30
0.0
 11
7.958427140747533
 21
17.70205229143494
 31
0.0
  0
LINE
  5
2D8
330
1F
100
AcDbEntity
  8
0
 62
   178
420
        0
100
AcDbLine
 10
7.958427140747533
 20
17.70205229143494
 30
0.0
 11
7.666511969162867
 21
18.2135598358025
 31
0.0
  0
LINE
  5
2D9
330
1F
100
AcDbEntity
  8
0
 62
   178
420
        0
100
AcDbLine
 10
7.341767616341913
 20
18.70488003756214
 30
0.0
 11
6.985584687459115
 21
19.17390898818108
 31
0.0
  0
LINE
  5
2DA
330
1F
100
AcDbEntity
  8
0
 62
   178
420
        0
100
AcDbLine
 10
6.985584687459115
 20
19.17390898818108
 30
0.0
 11
6.599488412498145
 21
19.61863823368613
 31
0.0
  0
LINE
  5
2DB
330
1F
100
AcDbEntity
  8
0
 62
   178
420
        0
100
AcDbLine
 10
6.599488412498145
 20
19.61863823368613
 30
0.0
 11
6.185132114982965
 21
20.03716337517197
 31
0.0
  0
LINE
  5
2DC
330
1F
100
AcDbEntity
  8
0
 62
   178
420
        0
100
AcDbLine
 10
6.185132114982965
 20
20.03716337517197
 30
0.0
 11
5.744290132192672
 21
20.42769222372961
 31
0.0
  0
LINE
  5
2DD
330
1F
100
AcDbEntity
  8
0
 62
   178
420
        0
100
AcDbLine
 10
5.744290132192672
 20
20.42769222372961
 30
0.0
 11
5.278850217176862
 21
20.78855247487444
 31
0.0
  0
LINE
  5
2DE
330
1F
100
AcDbEntity
  8
0
 62
   178
420
        0
100
AcDbLine
 10
4.790805455107273
 20
21.11819886961079
 30
0.0
 11
4.282245728581081
 21
21.41521981146815
 31
0.0
  0
LINE
  5
2DF
330
1F
100
AcDbEntity
  8
0
 62
   178
420
        0
100
AcDbLine
 10
4.282245728581081
 20
21.41521981146815
 30
0.0
 11
3.755348768422781
 21
21.67834341117402
 31
0.0
  0
LINE
  5
2E0
330
1F
100
AcDbEntity
  8
0
 62
   178
420
        0
100
AcDbLine
 10
-1.999790161973946
 20
22.27427525681733
 30
0.0
 11
-2.56942171538075
 21
22.12469474769404
 31
0.0
  0
LINE
  5
2E1
330
1F
100
AcDbEntity
  8
0
 62
   178
420
        0
100
AcDbLine
 10
-2.56942171538075
 20
22.12469474769404
 30
0.0
 11
-3.128050610537496
 21
21.93817881582176
 31
0.0
  0
LINE
  5
2E2
330
1F
100
AcDbEntity
  8
0
 62
   178
420
        0
100
AcDbLine
 10
-3.128050610537496
 20
21.93817881582176
 30
0.0
 11
-3.673284712752855
 21
21.71552615105522
 31
0.0
  0
LINE
  5
2E3
330
1F
100
AcDbEntity
  8
0
 62
   178
420
        0
100
AcDbLine
 10
-3.673284712752855
 20
21.71552615105522
 30
0.0
 11
-4.202789245895277
 21
21.45769018628719
 31
0.0
  0
LINE
  5
2E4
330
1F
100
AcDbEntity
  8
0
 62
   178
420
        0
100
AcDbLine
 10
-4.202789245895277
 20
21.45769018628719
 30
0.0
 11
-4.714296790262831
 21
21.16577501470253
 31
0.0
  0
LINE
  5
2E5
330
1F
100
AcDbEntity
  8
0
 62
   178
420
        0
100
AcDbLine
 10
-4.714296790262831
 20
21.16577501470253
 30
0.0
 11
-5.20561699202247
 21
20.84103066188158
 31
0.0
  0
LINE
  5
2E6
330
1F
100
AcDbEntity
  8
0
 62
   178
420
        0
100
AcDbLine
 10
-5.20561699202247
 20
20.84103066188158
 30
0.0
 11
-5.674645942641409
 21
20.48484773299878
 31
0.0
  0
LINE
  5
2E7
330
1F
100
AcDbEntity
  8
0
 62
   178
420
        0
100
AcDbLine
 10
-5.674645942641409
 20
20.48484773299878
 30
0.0
 11
-6.119375188146464
 21
20.09875145803781
 31
0.0
  0
LINE
  5
2E8
330
1F
100
AcDbEntity
  8
0
 62
   178
420
        0
100
AcDbLine
 10
-6.537900329632306
 20
19.68439516052263
 30
0.0
 11
-6.928429178189943
 21
19.24355317773234
 31
0.0
  0
LINE
  5
2E9
330
1F
100
AcDbEntity
  8
0
 62
   178
420
        0
100
AcDbLine
 10
-7.289289429334772
 20
18.77811326271653
 30
0.0
 11
-7.618935824071118
 21
18.29006850064695
 31
0.0
  0
LINE
  5
2EA
330
1F
100
AcDbEntity
  8
0
 62
   178
420
        0
100
AcDbLine
 10
-7.618935824071118
 20
18.29006850064695
 30
0.0
 11
-7.915956765928483
 21
17.78150877412076
 31
0.0
  0
LINE
  5
2EB
330
1F
100
AcDbEntity
  8
0
 62
   178
420
        0
100
AcDbLine
 10
-7.915956765928483
 20
17.78150877412076
 30
0.0
 11
-8.179080365634352
 21
17.25461181396246
 31
0.0
  0
LINE
  5
2EC
330
1F
100
AcDbEntity
  8
0
 62
   178
420
        0
100
AcDbLine
 10
-8.179080365634352
 20
17.25461181396246
 30
0.0
 11
-8.407179887539314
 21
16.71163387384614
 31
0.0
  0
LINE
  5
2ED
330
1F
100
AcDbEntity
  8
0
 62
   178
420
        0
100
AcDbLine
 10
-8.407179887539314
 20
16.71163387384614
 30
0.0
 11
-8.599278574472093
 21
16.15490006867087
 31
0.0
  0
LINE
  5
2EE
330
1F
100
AcDbEntity
  8
0
 62
   178
420
        0
100
AcDbLine
 10
-8.599278574472093
 20
16.15490006867087
 30
0.0
 11
-8.754553830363719
 21
15.58679441806174
 31
0.0
  0
LINE
  5
2EF
330
1F
100
AcDbEntity
  8
0
 62
   178
420
        0
100
AcDbLine
 10
-8.754553830363719
 20
15.58679441806174
 30
0.0
 11
-8.872340742730172
 21
15.00974963763183
 31
0.0
  0
LINE
  5
2F0
330
1F
100
AcDbEntity
  8
0
 62
   178
420
        0
100
AcDbLine
 10
-8.872340742730172
 20
15.00974963763183
 30
0.0
 11
-8.952134929929725
 21
14.42623672172045
 31
0.0
  0
LINE
  5
2F1
330
1F
100
AcDbEntity
  8
0
 62
   178
420
        0
100
AcDbLine
 10
-8.993594701002559
 20
13.83875436221608
 30
0.0
 11
-8.996542518843922
 21
13.24981824877405
 31
0.0
  0
LINE
  5
2F2
330
1F
100
AcDbEntity
  8
0
 62
   178
420
        0
100
AcDbLine
 10
-8.996542518843922
 20
13.24981824877405
 30
0.0
 11
-8.960965760445262
 21
12.66195029624723
 31
0.0
  0
LINE
  5
2F3
330
1F
100
AcDbEntity
  8
0
 62
   178
420
        0
100
AcDbLine
 10
-8.960965760445262
 20
12.66195029624723
 30
0.0
 11
-8.887016770947884
 21
12.07766784545948
 31
0.0
  0
LINE
  5
2F4
330
1F
100
AcDbEntity
  8
0
 62
   178
420
        0
100
AcDbLine
 10
-8.887016770947884
 20
12.07766784545948
 30
0.0
 11
-8.775012211277673
 21
11.49947288356573
 31
0.0
  0
LINE
  5
2F5
330
1F
100
AcDbEntity
  8
0
 62
   178
420
        0
100
AcDbLine
 10
-8.43891577028211
 20
10.37121243500218
 30
0.0
 11
-8.216263105515566
 21
9.82597833278682
 31
0.0
  0
LINE
  5
2F6
330
1F
100
AcDbEntity
  8
0
 62
   178
420
        0
100
AcDbLine
 10
-8.216263105515566
 20
9.82597833278682
 30
0.0
 11
-7.958427140747545
 21
9.296473799644396
 31
0.0
  0
LINE
  5
2F7
330
1F
100
AcDbEntity
  8
0
 62
   178
420
        0
100
AcDbLine
 10
-7.958427140747545
 20
9.296473799644396
 30
0.0
 11
-7.66651196916288
 21
8.784966255276842
 31
0.0
  0
LINE
  5
2F8
330
1F
100
AcDbEntity
  8
0
 62
   178
420
        0
100
AcDbLine
 10
-7.66651196916288
 20
8.784966255276842
 30
0.0
 11
-7.341767616341929
 21
8.2936460535172
 31
0.0
  0
LINE
  5
2F9
330
1F
100
AcDbEntity
  8
0
 62
   178
420
        0
100
AcDbLine
 10
-7.341767616341929
 20
8.2936460535172
 30
0.0
 11
-6.985584687459133
 21
7.824617102898261
 31
0.0
  0
LINE
  5
2FA
330
1F
100
AcDbEntity
  8
0
 62
   178
420
        0
100
AcDbLine
 10
-6.985584687459133
 20
7.824617102898261
 30
0.0
 11
-6.599488412498165
 21
7.379887857393205
 31
0.0
  0
LINE
  5
2FB
330
1F
100
AcDbEntity
  8
0
 62
   178
420
        0
100
AcDbLine
 10
-6.599488412498165
 20
7.379887857393205
 30
0.0
 11
-6.185132114982988
 21
6.961362715907363
 31
0.0
  0
LINE
  5
2FC
330
1F
100
AcDbEntity
  8
0
 62
   178
420
        0
100
AcDbLine
 10
-6.185132114982988
 20
6.961362715907363
 30
0.0
 11
-5.744290132192695
 21
6.570833867349727
 31
0.0
  0
LINE
  5
2FD
330
1F
100
AcDbEntity
  8
0
 62
   178
420
        0
100
AcDbLine
 10
-5.744290132192695
 20
6.570833867349727
 30
0.0
 11
-5.278850217176886
 21
6.209973616204893
 31
0.0
  0
LINE
  5
2FE
330
1F
100
AcDbEntity
  8
0
 62
   178
420
        0
100
AcDbLine
 10
-5.278850217176886
 20
6.209973616204893
 30
0.0
 11
-4.790805455107295
 21
5.880327221468545
 31
0.0
  0
LINE
  5
2FF
330
1F
100
AcDbEntity
  8
0
 62
   178
420
        0
100
AcDbLine
 10
-4.790805455107295
 20
5.880327221468545
 30
0.0
 11
-4.282245728581101
 21
5.583306279611177
 31
0.0
  0
LINE
  5
300
330
1F
100
AcDbEntity
  8
0
 62
   178
420
        0
100
AcDbLine
 10
-3.212370828306476
 20
5.092083158000342
 30
0.0
 11
-2.655637023131204
 21
4.899984471067564
 31
0.0
  0
LINE
  5
301
330
1F
100
AcDbEntity
  8
0
 62
   178
420
        0
100
AcDbLine
 10
-2.655637023131204
 20
4.899984471067564
 30
0.0
 11
-2.08753137252207
 21
4.744709215175938
 31
0.0
  0
LINE
  5
302
330
1F
100
AcDbEntity
  8
0
 62
   178
420
        0
100
AcDbLine
 10
-2.08753137252207
 20
4.744709215175938
 30
0.0
 11
-1.510486592092152
 21
4.626922302809485
 31
0.0
  0
LINE
  5
303
330
1F
100
AcDbEntity
  8
0
 62
   178
420
        0
100
AcDbLine
 10
-1.510486592092152
 20
4.626922302809485
 30
0.0
 11
-0.9269736761807756
 21
4.547128115609933
 31
0.0
  0
LINE
  5
304
330
1F
100
AcDbEntity
  8
0
 62
   178
420
        0
100
AcDbLine
 10
-0.9269736761807756
 20
4.547128115609933
 30
0.0
 11
-0.3394913166764031
 21
4.505668344537099
 31
0.0
  0
LINE
  5
305
330
1F
100
AcDbEntity
  8
0
 62
   178
420
        0
100
AcDbLine
 10
-0.3394913166764031
 20
4.505668344537099
 30
0.0
 11
0.2494447967656317
 21
4.502720526695736
 31
0.0
  0
LINE
  5
306
330
1F
100
AcDbEntity
  8
0
 62
   178
420
        0
100
AcDbLine
 10
0.8373127492924564
 20
4.538297285094398
 30
0.0
 11
1.421595200080217
 21
4.612246274591778
 31
0.0
  0
LINE
  5
307
330
1F
100
AcDbEntity
  8
0
 62
   178
420
        0
100
AcDbLine
 10
1.421595200080217
 20
4.612246274591778
 30
0.0
 11
1.999790161973968
 21
4.724250834261994
 31
0.0
  0
LINE
  5
308
330
1F
100
AcDbEntity
  8
0
 62
   178
420
        0
100
AcDbLine
 10
1.999790161973968
 20
4.724250834261994
 30
0.0
 11
2.569421715380775
 21
4.873831343385286
 31
0.0
  0
LINE
  5
309
330
1F
100
AcDbEntity
  8
0
 62
   178
420
        0
100
AcDbLine
 10
2.569421715380775
 20
4.873831343385286
 30
0.0
 11
3.128050610537526
 21
5.060347275257564
 31
0.0
  0
LINE
  5
30A
330
1F
100
AcDbEntity
  8
0
 62
   178
420
        0
100
AcDbLine
 10
3.128050610537526
 20
5.060347275257564
 30
0.0
 11
3.673284712752887
 21
5.282999940024114
 31
0.0
  0
LINE
  5
30B
330
1F
100
AcDbEntity
  8
0
 62
   178
420
        0
100
AcDbLine
 10
3.673284712752887
 20
5.282999940024114
 30
0.0
 11
4.20278924589531
 21
5.54083590479214
 31
0.0
  0
LINE
  5
30C
330
1F
100
AcDbEntity
  8
0
 62
   178
420
        0
100
AcDbLine
 10
4.20278924589531
 20
5.54083590479214
 30
0.0
 11
4.714296790262866
 21
5.832751076376811
 31
0.0
  0
LINE
  5
30D
330
1F
100
AcDbEntity
  8
0
 62
   178
420
        0
100
AcDbLine
 10
4.714296790262866
 20
5.832751076376811
 30
0.0
 11
5.205616992022508
 21
6.157495429197766
 31
0.0
  0
LINE
  5
30E
330
1F
100
AcDbEntity
  8
0
 62
   178
420
        0
100
AcDbLine
 10
5.205616992022508
 20
6.157495429197766
 30
0.0
 11
5.674645942641449
 21
6.513678358080567
 31
0.0
  0
LINE
  5
30F
330
1F
100
AcDbEntity
  8
0
 62
   178
420
        0
100
AcDbLine
 10
5.674645942641449
 20
6.513678358080567
 30
0.0
 11
6.119375188146504
 21
6.899774633041542
 31
0.0
  0
LINE
  5
310
330
1F
100
AcDbEntity
  8
0
 62
   178
420
        0
100
AcDbLine
 10
6.119375188146504
 20
6.899774633041542
 30
0.0
 11
6.537900329632345
 21
7.314130930556725
 31
0.0
  0
LINE
  5
311
330
1F
100
AcDbEntity
  8
0
 62
   178
420
        0
100
AcDbLine
 10
6.537900329632345
 20
7.314130930556725
 30
0.0
 11
6.928429178189983
 21
7.754972913347025
 31
0.0
  0
LINE
  5
312
330
1F
100
AcDbEntity
  8
0
 62
   178
420
        0
100
AcDbLine
 10
6.928429178189983
 20
7.754972913347025
 30
0.0
 11
7.28928942933481
 21
8.220412828362837
 31
0.0
  0
LINE
  5
313
330
1F
100
AcDbEntity
  8
0
 62
   178
420
        0
100
AcDbLine
 10
7.28928942933481
 20
8.220412828362837
 30
0.0
 11
7.618935824071157
 21
8.708457590432431
 31
0.0
  0
LINE
  5
314
330
1F
100
AcDbEntity
  8
0
 62
   178
420
        0
100
AcDbLine
 10
7.618935824071157
 20
8.708457590432431
 30
0.0
 11
7.915956765928518
 21
9.217017316958628
 31
0.0
  0
LINE
  5
315
330
1F
100
AcDbEntity
  8
0
 62
   178
420
        0
100
AcDbLine
 10
7.915956765928518
 20
9.217017316958628
 30
0.0
 11
8.179080365634386
 21
9.743914277116934
 31
0.0
  0
LINE
  5
316
330
1F
100
AcDbEntity
  8
0
 62
   178
420
        0
100
AcDbLine
 10
8.179080365634386
 20
9.743914277116934
 30
0.0
 11
8.40717988753934
 21
10.28689221723326
 31
0.0
  0
LINE
  5
317
330
1F
100
AcDbEntity
  8
0
 62
   178
420
        0
100
AcDbLine
 10
8.40717988753934
 20
10.28689221723326
 30
0.0
 11
8.599278574472118
 21
10.84362602240853
 31
0.0
  0
LINE
  5
318
330
1F
100
AcDbEntity
  8
0
 62
   178
420
        0
100
AcDbLine
 10
8.599278574472118
 20
10.84362602240853
 30
0.0
 11
8.754553830363742
 21
11.41173167301766
 31
0.0
  0
LINE
  5
319
330
1F
100
AcDbEntity
  8
0
 62
   178
420
        0
100
AcDbLine
 10
8.754553830363742
 20
11.41173167301766
 30
0.0
 11
8.87234074273019
 21
11.98877645344758
 31
0.0
  0
LINE
  5
31A
330
1F
100
AcDbEntity
  8
0
 62
   178
420
        0
100
AcDbLine
 10
8.87234074273019
 20
11.98877645344758
 30
0.0
 11
8.952134929929736
 21
12.57228936935896
 31
0.0
  0
LINE
  5
31B
330
1F
100
AcDbEntity
  8
0
 62
   178
420
        0
100
AcDbLine
 10
8.952134929929736
 20
12.57228936935896
 30
0.0
 11
8.993594701002563
 21
13.15977172886334
 31
0.0
  0
LINE
  5
31C
330
1F
100
AcDbEntity
  8
0
 62
   178
420
        0
100
AcDbLine
 10
-3.708313418093992
 20
19.42225029606838
 30
0.0
 11
-4.261330003061045
 21
19.0527364275783
 31
0.0
  0
LINE
  5
31D
330
1F
100
AcDbEntity
  8
0
 62
   178
420
        0
100
AcDbLine
 10
-2.678784026555631
 20
19.96641977311867
 30
0.0
 11
-3.275300716201755
 21
19.67225029606834
 31
0.0
  0
LINE
  5
31E
330
1F
100
AcDbEntity
  8
0
 62
   178
420
        0
100
AcDbLine
 10
-0.9136833455403632
 20
20.43937707515633
 30
0.0
 11
-1.811733315717648
 21
20.26074382956314
 31
0.0
  0
LINE
  5
31F
330
1F
100
AcDbEntity
  8
0
 62
   178
420
        0
100
AcDbLine
 10
-0.0000000000000018
 20
20.49926304553966
 30
0.0
 11
-0.9136833455403632
 21
20.43937707515633
 31
0.0
  0
LINE
  5
320
330
1F
100
AcDbEntity
  8
0
 62
   178
420
        0
100
AcDbLine
 10
0.9136833455403597
 20
20.43937707515633
 30
0.0
 11
-0.0000000000000018
 21
20.49926304553966
 31
0.0
  0
LINE
  5
321
330
1F
100
AcDbEntity
  8
0
 62
   178
420
        0
100
AcDbLine
 10
1.811733315717644
 20
20.26074382956314
 30
0.0
 11
0.9136833455403597
 21
20.43937707515633
 31
0.0
  0
LINE
  5
322
330
1F
100
AcDbEntity
  8
0
 62
   178
420
        0
100
AcDbLine
 10
2.678784026555629
 20
19.96641977311867
 30
0.0
 11
1.811733315717644
 21
20.26074382956314
 31
0.0
  0
LINE
  5
323
330
1F
100
AcDbEntity
  8
0
 62
   178
420
        0
100
AcDbLine
 10
3.500000000000002
 20
19.56144087203073
 30
0.0
 11
2.678784026555629
 21
19.96641977311867
 31
0.0
  0
LINE
  5
324
330
1F
100
AcDbEntity
  8
0
 62
   178
420
        0
100
AcDbLine
 10
4.949747468305834
 20
18.44901051384549
 30
0.0
 11
4.261330003061046
 21
19.0527364275783
 31
0.0
  0
LINE
  5
325
330
1F
100
AcDbEntity
  8
0
 62
   178
420
        0
100
AcDbLine
 10
6.062177826491071
 20
16.99926304553966
 30
0.0
 11
5.553473382038646
 21
17.7605930486007
 31
0.0
  0
LINE
  5
326
330
1F
100
AcDbEntity
  8
0
 62
   178
420
        0
100
AcDbLine
 10
6.761480784023478
 20
15.3109963612573
 30
0.0
 11
6.467156727579008
 21
16.17804707209529
 31
0.0
  0
LINE
  5
327
330
1F
100
AcDbEntity
  8
0
 62
   178
420
        0
100
AcDbLine
 10
6.940114029616673
 20
14.41294639108002
 30
0.0
 11
6.761480784023478
 21
15.3109963612573
 31
0.0
  0
LINE
  5
328
330
1F
100
AcDbEntity
  8
0
 62
   178
420
        0
100
AcDbLine
 10
6.983614134296209
 20
13.7492630455394
 30
0.0
 11
6.940114029616673
 21
14.41294639108002
 31
0.0
  0
LINE
  5
329
330
1F
100
AcDbEntity
  8
0
 62
   178
420
        0
100
AcDbLine
 10
6.983614134296209
 20
13.7492630455394
 30
0.0
 11
7.531250000000002
 21
13.7492630455394
 31
0.0
  0
LINE
  5
32A
330
1F
100
AcDbEntity
  8
0
 62
   178
420
        0
100
AcDbLine
 10
7.531250000000002
 20
13.7492630455394
 30
0.0
 11
7.531250000000002
 21
13.2492630455394
 31
0.0
  0
LINE
  5
32B
330
1F
100
AcDbEntity
  8
0
 62
   178
420
        0
100
AcDbLine
 10
7.531250000000002
 20
13.2492630455394
 30
0.0
 11
6.983614134296174
 21
13.2492630455394
 31
0.0
  0
LINE
  5
32C
330
1F
100
AcDbEntity
  8
0
 62
   178
420
        0
100
AcDbLine
 10
4.261330003061024
 20
7.945789663500997
 30
0.0
 11
4.949747468305814
 21
8.549515577233807
 31
0.0
  0
LINE
  5
32D
330
1F
100
AcDbEntity
  8
0
 62
   178
420
        0
100
AcDbLine
 10
-0.9136833455403792
 20
6.559149015922988
 30
0.0
 11
-0.0000000000000195
 21
6.499263045539658
 31
0.0
  0
LINE
  5
32E
330
1F
100
AcDbEntity
  8
0
 62
   178
420
        0
100
AcDbLine
 10
-1.811733315717662
 20
6.737782261516185
 30
0.0
 11
-0.9136833455403792
 21
6.559149015922988
 31
0.0
  0
LINE
  5
32F
330
1F
100
AcDbEntity
  8
0
 62
   178
420
        0
100
AcDbLine
 10
-2.678784026555643
 20
7.032106317960658
 30
0.0
 11
-1.811733315717662
 21
6.737782261516185
 31
0.0
  0
LINE
  5
330
330
1F
100
AcDbEntity
  8
0
 62
   178
420
        0
100
AcDbLine
 10
-3.275300716202221
 20
7.326275795011202
 30
0.0
 11
-2.678784026555643
 21
7.032106317960658
 31
0.0
  0
LINE
  5
331
330
1F
100
AcDbEntity
  8
0
 62
   178
420
        0
100
AcDbLine
 10
-3.275300716202221
 20
7.326275795011202
 30
0.0
 11
-3.549118649054119
 21
6.852009223288233
 31
0.0
  0
LINE
  5
332
330
1F
100
AcDbEntity
  8
0
 62
   178
420
        0
100
AcDbLine
 10
-3.549118649054119
 20
6.852009223288233
 30
0.0
 11
-3.982131350946338
 21
7.102009223288233
 31
0.0
  0
LINE
  5
333
330
1F
100
AcDbEntity
  8
0
 62
   178
420
        0
100
AcDbLine
 10
-3.982131350946338
 20
7.102009223288233
 30
0.0
 11
-3.708313418094423
 21
7.576275795011231
 31
0.0
  0
LINE
  5
334
330
1F
100
AcDbEntity
  8
0
 62
   178
420
        0
100
AcDbLine
 10
-4.261330003061056
 20
7.945789663501022
 30
0.0
 11
-3.708313418094423
 21
7.576275795011231
 31
0.0
  0
LINE
  5
335
330
1F
100
AcDbEntity
  8
0
 62
   178
420
        0
100
AcDbLine
 10
-4.949747468305842
 20
8.549515577233835
 30
0.0
 11
-4.261330003061056
 21
7.945789663501022
 31
0.0
  0
LINE
  5
336
330
1F
100
AcDbEntity
  8
0
 62
   178
420
        0
100
AcDbLine
 10
-5.553473382038653
 20
9.237933042478623
 30
0.0
 11
-4.949747468305842
 21
8.549515577233835
 31
0.0
  0
LINE
  5
337
330
1F
100
AcDbEntity
  8
0
 62
   178
420
        0
100
AcDbLine
 10
-6.761480784023481
 20
11.68752972982202
 30
0.0
 11
-6.467156727579011
 21
10.82047901898404
 31
0.0
  0
LINE
  5
338
330
1F
100
AcDbEntity
  8
0
 62
   178
420
        0
100
AcDbLine
 10
-6.940114029616674
 20
12.58557969999931
 30
0.0
 11
-6.761480784023481
 21
11.68752972982202
 31
0.0
  0
LINE
  5
339
330
1F
100
AcDbEntity
  8
0
 62
   178
420
        0
100
AcDbLine
 10
-7.0
 20
13.49926304553967
 30
0.0
 11
-6.940114029616674
 21
12.58557969999931
 31
0.0
  0
LINE
  5
33A
330
1F
100
AcDbEntity
  8
0
 62
   178
420
        0
100
AcDbLine
 10
-6.940114029616672
 20
14.41294639108003
 30
0.0
 11
-7.0
 21
13.49926304553967
 31
0.0
  0
LINE
  5
33B
330
1F
100
AcDbEntity
  8
0
 62
   178
420
        0
100
AcDbLine
 10
-6.761480784023477
 20
15.31099636125731
 30
0.0
 11
-6.940114029616672
 21
14.41294639108003
 31
0.0
  0
LINE
  5
33C
330
1F
100
AcDbEntity
  8
0
 62
   178
420
        0
100
AcDbLine
 10
-6.467156727579006
 20
16.17804707209529
 30
0.0
 11
-6.761480784023477
 21
15.31099636125731
 31
0.0
  0
LINE
  5
33D
330
1F
100
AcDbEntity
  8
0
 62
   178
420
        0
100
AcDbLine
 10
-6.06217782649107
 20
16.99926304553966
 30
0.0
 11
-6.467156727579006
 21
16.17804707209529
 31
0.0
  0
LINE
  5
33E
330
1F
100
AcDbEntity
  8
0
 62
   178
420
        0
100
AcDbLine
 10
-5.553473382038645
 20
17.7605930486007
 30
0.0
 11
-6.06217782649107
 21
16.99926304553966
 31
0.0
  0
LINE
  5
33F
330
1F
100
AcDbEntity
  8
0
 62
   178
420
        0
100
AcDbLine
 10
-4.949747468305832
 20
18.44901051384549
 30
0.0
 11
-5.553473382038645
 21
17.7605930486007
 31
0.0
  0
LINE
  5
340
330
1F
100
AcDbEntity
  8
0
 62
   178
420
        0
100
AcDbLine
 10
-4.261330003061045
 20
19.0527364275783
 30
0.0
 11
-4.949747468305832
 21
18.44901051384549
 31
0.0
  0
LINE
  5
341
330
1F
100
AcDbEntity
  8
0
 62
   178
420
        0
100
AcDbLine
 10
-3.982131350945881
 20
19.89651686779134
 30
0.0
 11
-3.708313418093992
 21
19.42225029606838
 31
0.0
  0
LINE
  5
342
330
1F
100
AcDbEntity
  8
0
 62
   178
420
        0
100
AcDbLine
 10
-3.982131350945881
 20
19.89651686779134
 30
0.0
 11
-3.549118649053669
 21
20.14651686779134
 31
0.0
  0
LINE
  5
343
330
1F
100
AcDbEntity
  8
0
 62
   178
420
        0
100
AcDbLine
 10
-3.549118649053669
 20
20.14651686779134
 30
0.0
 11
-3.275300716201755
 21
19.67225029606834
 31
0.0
  0
ENDSEC
  0
SECTION
  2
OBJECTS
  0
DICTIONARY
  5
C
330
0
100
AcDbDictionary
281
     1
  3
ACAD_GROUP
350
D
  3
ACAD_LAYOUT
350
1A
  3
ACAD_MATERIAL
350
3B
  3
ACAD_MLEADERSTYLE
350
345
  3
ACAD_MLINESTYLE
350
17
  3
ACAD_PLOTSETTINGS
350
19
  3
ACAD_PLOTSTYLENAME
350
E
  3
ACAD_TABLESTYLE
350
344
  3
ACAD_VISUALSTYLE
350
2A
  0
DICTIONARY
  5
D
102
{ACAD_REACTORS
330
C
102
}
330
C
100
AcDbDictionary
281
     1
  0
DICTIONARY
  5
1A
102
{ACAD_REACTORS
330
C
102
}
330
C
100
AcDbDictionary
281
     1
  3
Layout1
350
1E
  3
Layout2
350
26
  3
Model
350
22
  0
DICTIONARY
  5
3B
102
{ACAD_REACTORS
330
C
102
}
330
C
100
AcDbDictionary
281
     1
  3
ByBlock
350
3D
  3
ByLayer
350
3C
  3
Global
350
3E
  0
DICTIONARY
  5
345
102
{ACAD_REACTORS
330
C
102
}
330
C
100
AcDbDictionary
281
     1
  0
DICTIONARY
  5
17
102
{ACAD_REACTORS
330
C
102
}
330
C
100
AcDbDictionary
281
     1
  3
Standard
350
18
  0
DICTIONARY
  5
19
102
{ACAD_REACTORS
330
C
102
}
330
C
100
AcDbDictionary
281
     1
  0
ACDBDICTIONARYWDFLT
  5
E
102
{ACAD_REACTORS
330
C
102
}
330
C
100
AcDbDictionary
281
     1
  3
Normal
350
F
100
AcDbDictionaryWithDefault
340
F
  0
DICTIONARY
  5
344
102
{ACAD_REACTORS
330
C
102
}
330
C
100
AcDbDictionary
281
     1
  0
DICTIONARY
  5
2A
102
{ACAD_REACTORS
330
C
102
}
330
C
100
AcDbDictionary
281
     1
  3
2dWireframe
350
2F
  3
3D Hidden
350
31
  3
3dWireframe
350
30
  3
Basic
350
32
  3
Brighten
350
36
  3
ColorChange
350
3A
  3
Conceptual
350
34
  3
Dim
350
35
  3
Facepattern
350
39
  3
Flat
350
2B
  3
FlatWithEdges
350
2C
  3
Gouraud
350
2D
  3
GouraudWithEdges
350
2E
  3
Linepattern
350
38
  3
Realistic
350
33
  3
Thicken
350
37
  0
LAYOUT
  5
1E
102
{ACAD_REACTORS
330
1A
102
}
330
1A
100
AcDbPlotSettings
  1

  2
none_device
  4

  6

 40
0.0
 41
0.0
 42
0.0
 43
0.0
 44
0.0
 45
0.0
 46
0.0
 47
0.0
 48
0.0
 49
0.0
140
0.0
141
0.0
142
1.0
143
1.0
 70
   688
 72
     0
 73
     0
 74
     5
  7

 75
    16
 76
     0
 77
     2
 78
   300
147
1.0
148
0.0
149
0.0
100
AcDbLayout
  1
Layout1
 70
     1
 71
     1
 10
0.0
 20
0.0
 11
12.0
 21
9.0
 12
0.0
 22
0.0
 32
0.0
 14
1.000000000000000E+20
 24
1.000000000000000E+20
 34
1.000000000000000E+20
 15
-1.000000000000000E+20
 25
-1.000000000000000E+20
 35
-1.000000000000000E+20
146
0.0
 13
0.0
 23
0.0
 33
0.0
 16
1.0
 26
0.0
 36
0.0
 17
0.0
 27
1.0
 37
0.0
 76
     0
330
1B
  0
LAYOUT
  5
26
102
{ACAD_REACTORS
330
1A
102
}
330
1A
100
AcDbPlotSettings
  1

  2
none_device
  4

  6

 40
0.0
 41
0.0
 42
0.0
 43
0.0
 44
0.0
 45
0.0
 46
0.0
 47
0.0
 48
0.0
 49
0.0
140
0.0
141
0.0
142
1.0
143
1.0
 70
   688
 72
     0
 73
     0
 74
     5
  7

 75
    16
 76
     0
 77
     2
 78
   300
147
1.0
148
0.0
149
0.0
100
AcDbLayout
  1
Layout2
 70
     1
 71
     2
 10
0.0
 20
0.0
 11
0.0
 21
0.0
 12
0.0
 22
0.0
 32
0.0
 14
0.0
 24
0.0
 34
0.0
 15
0.0
 25
0.0
 35
0.0
146
0.0
 13
0.0
 23
0.0
 33
0.0
 16
1.0
 26
0.0
 36
0.0
 17
0.0
 27
1.0
 37
0.0
 76
     0
330
23
  0
LAYOUT
  5
22
102
{ACAD_REACTORS
330
1A
102
}
330
1A
100
AcDbPlotSettings
  1

  2
none_device
  4

  6

 40
0.0
 41
0.0
 42
0.0
 43
0.0
 44
0.0
 45
0.0
 46
0.0
 47
0.0
 48
0.0
 49
0.0
140
0.0
141
0.0
142
1.0
143
1.0
 70
  1712
 72
     0
 73
     0
 74
     0
  7

 75
     0
 76
     0
 77
     2
 78
   300
147
1.0
148
0.0
149
0.0
100
AcDbLayout
  1
Model
 70
     1
 71
     0
 10
0.0
 20
0.0
 11
12.0
 21
9.0
 12
0.0
 22
0.0
 32
0.0
 14
1.000000000000000E+20
 24
1.000000000000000E+20
 34
1.000000000000000E+20
 15
-1.000000000000000E+20
 25
-1.000000000000000E+20
 35
-1.000000000000000E+20
146
0.0
 13
0.0
 23
0.0
 33
0.0
 16
1.0
 26
0.0
 36
0.0
 17
0.0
 27
1.0
 37
0.0
 76
     0
330
1F
331
29
  0
MATERIAL
  5
3D
102
{ACAD_REACTORS
330
3B
102
}
330
3B
100
AcDbMaterial
  1
ByBlock
 72
     1
 94
      127
  0
MATERIAL
  5
3C
102
{ACAD_REACTORS
330
3B
102
}
330
3B
100
AcDbMaterial
  1
ByLayer
 72
     1
 94
      127
  0
MATERIAL
  5
3E
102
{ACAD_REACTORS
330
3B
102
}
330
3B
100
AcDbMaterial
  1
Global
 72
     1
 94
      127
  0
MLINESTYLE
  5
18
102
{ACAD_REACTORS
330
17
102
}
330
17
100
AcDbMlineStyle
  2
Standard
 70
     0
  3

 62
   256
 51
90.0
 52
90.0
 71
     2
 49
0.5
 62
   256
  6
BYLAYER
 49
-0.5
 62
   256
  6
BYLAYER
  0
ACDBPLACEHOLDER
  5
F
102
{ACAD_REACTORS
330
E
102
}
330
E
  0
VISUALSTYLE
  5
2F
102
{ACAD_REACTORS
330
2A
102
}
330
2A
100
AcDbVisualStyle
  2
2dWireframe
 70
     4
177
     2
291
     0
 71
     0
176
     1
 72
     2
176
     1
 73
     0
176
     1
 90
        0
176
     1
 40
-0.6
176
     1
 41
-30.0
176
     1
 62
     5
 63
     7
421
 16777215
176
     1
 74
     1
176
     1
 91
        4
176
     1
 64
     7
176
     1
 65
   257
176
     1
 75
     1
176
     1
175
     1
176
     1
 42
1.0
176
     1
 92
        0
176
     1
 66
   257
176
     1
 43
1.0
176
     1
 76
     1
176
     1
 77
     6
176
     1
 78
     2
176
     1
 67
     7
176
     1
 79
     5
176
     1
170
     0
176
     1
171
     0
176
     1
290
     0
176
     1
 93
        1
176
     1
 44
0.0
176
     1
173
     0
176
     1
  0
VISUALSTYLE
  5
31
102
{ACAD_REACTORS
330
2A
102
}
330
2A
100
AcDbVisualStyle
  2
3D Hidden
 70
     6
177
     2
291
     0
 71
     1
176
     1
 72
     2
176
     1
 73
     2
176
     1
 90
        0
176
     1
 40
-0.6
176
     1
 41
-30.0
176
     1
 62
     5
 63
     7
421
 16777215
176
     1
 74
     2
176
     1
 91
        2
176
     1
 64
     7
176
     1
 65
   257
176
     1
 75
     2
176
     1
175
     1
176
     1
 42
40.0
176
     1
 92
        0
176
     1
 66
   257
176
     1
 43
1.0
176
     1
 76
     1
176
     1
 77
     6
176
     1
 78
     2
176
     1
 67
     7
176
     1
 79
     3
176
     1
170
     0
176
     1
171
     0
176
     1
290
     0
176
     1
 93
        1
176
     1
 44
0.0
176
     1
173
     0
176
     1
  0
VISUALSTYLE
  5
30
102
{ACAD_REACTORS
330
2A
102
}
330
2A
100
AcDbVisualStyle
  2
3dWireframe
 70
     5
177
     2
291
     0
 71
     0
176
     1
 72
     2
176
     1
 73
     0
176
     1
 90
        0
176
     1
 40
-0.6
176
     1
 41
-30.0
176
     1
 62
     5
 63
     7
421
 16777215
176
     1
 74
     1
176
     1
 91
        4
176
     1
 64
     7
176
     1
 65
   257
176
     1
 75
     1
176
     1
175
     1
176
     1
 42
1.0
176
     1
 92
        0
176
     1
 66
   257
176
     1
 43
1.0
176
     1
 76
     1
176
     1
 77
     6
176
     1
 78
     2
176
     1
 67
     7
176
     1
 79
     5
176
     1
170
     0
176
     1
171
     0
176
     1
290
     0
176
     1
 93
        1
176
     1
 44
0.0
176
     1
173
     0
176
     1
  0
VISUALSTYLE
  5
32
102
{ACAD_REACTORS
330
2A
102
}
330
2A
100
AcDbVisualStyle
  2
Basic
 70
     7
177
     2
291
     1
 71
     1
176
     1
 72
     0
176
     1
 73
     1
176
     1
 90
        0
176
     1
 40
-0.6
176
     1
 41
-30.0
176
     1
 62
     5
 63
     7
421
 16777215
176
     1
 74
     0
176
     1
 91
        4
176
     1
 64
     7
176
     1
 65
   257
176
     1
 75
     1
176
     1
175
     1
176
     1
 42
1.0
176
     1
 92
        8
176
     1
 66
     7
176
     1
 43
1.0
176
     1
 76
     1
176
     1
 77
     6
176
     1
 78
     2
176
     1
 67
     7
176
     1
 79
     5
176
     1
170
     0
176
     1
171
     0
176
     1
290
     0
176
     1
 93
        1
176
     1
 44
0.0
176
     1
173
     0
176
     1
  0
VISUALSTYLE
  5
36
102
{ACAD_REACTORS
330
2A
102
}
330
2A
100
AcDbVisualStyle
  2
Brighten
 70
    12
177
     2
291
     1
 71
     2
176
     1
 72
     2
176
     1
 73
     0
176
     1
 90
        0
176
     1
 40
-0.6
176
     1
 41
-30.0
176
     1
 62
     5
 63
     7
421
 16777215
176
     1
 74
     1
176
     1
 91
        4
176
     1
 64
     7
176
     1
 65
   257
176
     1
 75
     1
176
     1
175
     1
176
     1
 42
1.0
176
     1
 92
        8
176
     1
 66
     7
176
     1
 43
1.0
176
     1
 76
     1
176
     1
 77
     6
176
     1
 78
     2
176
     1
 67
     7
176
     1
 79
     5
176
     1
170
     0
176
     1
171
     0
176
     1
290
     0
176
     1
 93
        1
176
     1
 44
50.0
176
     1
173
     0
176
     1
  0
VISUALSTYLE
  5
3A
102
{ACAD_REACTORS
330
2A
102
}
330
2A
100
AcDbVisualStyle
  2
ColorChange
 70
    16
177
     2
291
     1
 71
     2
176
     1
 72
     2
176
     1
 73
     3
176
     1
 90
        0
176
     1
 40
-0.6
176
     1
 41
-30.0
176
     1
 62
     5
 63
     8
421
  8421504
176
     1
 74
     1
176
     1
 91
        4
176
     1
 64
     7
176
     1
 65
   257
176
     1
 75
     1
176
     1
175
     1
176
     1
 42
1.0
176
     1
 92
        8
176
     1
 66
     8
424
  8421504
176
     1
 43
1.0
176
     1
 76
     1
176
     1
 77
     6
176
     1
 78
     2
176
     1
 67
     7
176
     1
 79
     5
176
     1
170
     0
176
     1
171
     0
176
     1
290
     0
176
     1
 93
        1
176
     1
 44
0.0
176
     1
173
     0
176
     1
  0
VISUALSTYLE
  5
34
102
{ACAD_REACTORS
330
2A
102
}
330
2A
100
AcDbVisualStyle
  2
Conceptual
 70
     9
177
     2
291
     0
 71
     3
176
     1
 72
     2
176
     1
 73
     0
176
     1
 90
        0
176
     1
 40
-0.6
176
     1
 41
-30.0
176
     1
 62
     5
 63
     7
421
 16777215
176
     1
 74
     2
176
     1
 91
        2
176
     1
 64
     7
176
     1
 65
   257
176
     1
 75
     1
176
     1
175
     1
176
     1
 42
40.0
176
     1
 92
        8
176
     1
 66
     7
176
     1
 43
1.0
176
     1
 76
     1
176
     1
 77
     6
176
     1
 78
     2
176
     1
 67
     7
176
     1
 79
     3
176
     1
170
     0
176
     1
171
     0
176
     1
290
     0
176
     1
 93
        1
176
     1
 44
0.0
176
     1
173
     0
176
     1
  0
VISUALSTYLE
  5
35
102
{ACAD_REACTORS
330
2A
102
}
330
2A
100
AcDbVisualStyle
  2
Dim
 70
    11
177
     2
291
     1
 71
     2
176
     1
 72
     2
176
     1
 73
     0
176
     1
 90
        0
176
     1
 40
-0.6
176
     1
 41
-30.0
176
     1
 62
     5
 63
     7
421
 16777215
176
     1
 74
     1
176
     1
 91
        4
176
     1
 64
     7
176
     1
 65
   257
176
     1
 75
     1
176
     1
175
     1
176
     1
 42
1.0
176
     1
 92
        8
176
     1
 66
     7
176
     1
 43
1.0
176
     1
 76
     1
176
     1
 77
     6
176
     1
 78
     2
176
     1
 67
     7
176
     1
 79
     5
176
     1
170
     0
176
     1
171
     0
176
     1
290
     0
176
     1
 93
        1
176
     1
 44
-50.0
176
     1
173
     0
176
     1
  0
VISUALSTYLE
  5
39
102
{ACAD_REACTORS
330
2A
102
}
330
2A
100
AcDbVisualStyle
  2
Facepattern
 70
    15
177
     2
291
     1
 71
     2
176
     1
 72
     2
176
     1
 73
     0
176
     1
 90
        0
176
     1
 40
-0.6
176
     1
 41
-30.0
176
     1
 62
     5
 63
     7
421
 16777215
176
     1
 74
     1
176
     1
 91
        4
176
     1
 64
     7
176
     1
 65
   257
176
     1
 75
     1
176
     1
175
     1
176
     1
 42
1.0
176
     1
 92
        8
176
     1
 66
     7
176
     1
 43
1.0
176
     1
 76
     1
176
     1
 77
     6
176
     1
 78
     2
176
     1
 67
     7
176
     1
 79
     5
176
     1
170
     0
176
     1
171
     0
176
     1
290
     0
176
     1
 93
        1
176
     1
 44
0.0
176
     1
173
     0
176
     1
  0
VISUALSTYLE
  5
2B
102
{ACAD_REACTORS
330
2A
102
}
330
2A
100
AcDbVisualStyle
  2
Flat
 70
     0
177
     2
291
     1
 71
     2
176
     1
 72
     1
176
     1
 73
     1
176
     1
 90
        2
176
     1
 40
-0.6
176
     1
 41
30.0
176
     1
 62
     5
 63
     7
421
 16777215
176
     1
 74
     0
176
     1
 91
        4
176
     1
 64
     7
176
     1
 65
   257
176
     1
 75
     1
176
     1
175
     1
176
     1
 42
1.0
176
     1
 92
        8
176
     1
 66
     7
176
     1
 43
1.0
176
     1
 76
     1
176
     1
 77
     6
176
     1
 78
     2
176
     1
 67
     7
176
     1
 79
     5
176
     1
170
     0
176
     1
171
     0
176
     1
290
     0
176
     1
 93
       13
176
     1
 44
0.0
176
     1
173
     0
176
     1
  0
VISUALSTYLE
  5
2C
102
{ACAD_REACTORS
330
2A
102
}
330
2A
100
AcDbVisualStyle
  2
FlatWithEdges
 70
     1
177
     2
291
     1
 71
     2
176
     1
 72
     1
176
     1
 73
     1
176
     1
 90
        2
176
     1
 40
-0.6
176
     1
 41
30.0
176
     1
 62
     5
 63
     7
421
 16777215
176
     1
 74
     1
176
     1
 91
        4
176
     1
 64
     7
176
     1
 65
   257
176
     1
 75
     1
176
     1
175
     1
176
     1
 42
1.0
176
     1
 92
        0
176
     1
 66
   257
176
     1
 43
1.0
176
     1
 76
     1
176
     1
 77
     6
176
     1
 78
     2
176
     1
 67
     7
176
     1
 79
     5
176
     1
170
     0
176
     1
171
     0
176
     1
290
     0
176
     1
 93
       13
176
     1
 44
0.0
176
     1
173
     0
176
     1
  0
VISUALSTYLE
  5
2D
102
{ACAD_REACTORS
330
2A
102
}
330
2A
100
AcDbVisualStyle
  2
Gouraud
 70
     2
177
     2
291
     1
 71
     2
176
     1
 72
     2
176
     1
 73
     1
176
     1
 90
        2
176
     1
 40
-0.6
176
     1
 41
30.0
176
     1
 62
     5
 63
     7
421
 16777215
176
     1
 74
     0
176
     1
 91
        4
176
     1
 64
     7
176
     1
 65
   257
176
     1
 75
     1
176
     1
175
     1
176
     1
 42
1.0
176
     1
 92
        0
176
     1
 66
     7
176
     1
 43
1.0
176
     1
 76
     1
176
     1
 77
     6
176
     1
 78
     2
176
     1
 67
     7
176
     1
 79
     5
176
     1
170
     0
176
     1
171
     0
176
     1
290
     0
176
     1
 93
       13
176
     1
 44
0.0
176
     1
173
     0
176
     1
  0
VISUALSTYLE
  5
2E
102
{ACAD_REACTORS
330
2A
102
}
330
2A
100
AcDbVisualStyle
  2
GouraudWithEdges
 70
     3
177
     2
291
     1
 71
     2
176
     1
 72
     2
176
     1
 73
     1
176
     1
 90
        2
176
     1
 40
-0.6
176
     1
 41
30.0
176
     1
 62
     5
 63
     7
421
 16777215
176
     1
 74
     1
176
     1
 91
        4
176
     1
 64
     7
176
     1
 65
   257
176
     1
 75
     1
176
     1
175
     1
176
     1
 42
1.0
176
     1
 92
        0
176
     1
 66
   257
176
     1
 43
1.0
176
     1
 76
     1
176
     1
 77
     6
176
     1
 78
     2
176
     1
 67
     7
176
     1
 79
     5
176
     1
170
     0
176
     1
171
     0
176
     1
290
     0
176
     1
 93
       13
176
     1
 44
0.0
176
     1
173
     0
176
     1
  0
VISUALSTYLE
  5
38
102
{ACAD_REACTORS
330
2A
102
}
330
2A
100
AcDbVisualStyle
  2
Linepattern
 70
    14
177
     2
291
     1
 71
     2
176
     1
 72
     2
176
     1
 73
     0
176
     1
 90
        0
176
     1
 40
-0.6
176
     1
 41
-30.0
176
     1
 62
     5
 63
     7
421
 16777215
176
     1
 74
     1
176
     1
 91
        4
176
     1
 64
     7
176
     1
 65
   257
176
     1
 75
     7
176
     1
175
     7
176
     1
 42
1.0
176
     1
 92
        8
176
     1
 66
     7
176
     1
 43
1.0
176
     1
 76
     1
176
     1
 77
     6
176
     1
 78
     2
176
     1
 67
     7
176
     1
 79
     5
176
     1
170
     0
176
     1
171
     0
176
     1
290
     0
176
     1
 93
        1
176
     1
 44
0.0
176
     1
173
     0
176
     1
  0
VISUALSTYLE
  5
33
102
{ACAD_REACTORS
330
2A
102
}
330
2A
100
AcDbVisualStyle
  2
Realistic
 70
     8
177
     2
291
     0
 71
     2
176
     1
 72
     2
176
     1
 73
     0
176
     1
 90
        0
176
     1
 40
-0.6
176
     1
 41
-30.0
176
     1
 62
     5
 63
     7
421
 16777215
176
     1
 74
     1
176
     1
 91
        0
176
     1
 64
     7
176
     1
 65
   257
176
     1
 75
     1
176
     1
175
     1
176
     1
 42
1.0
176
     1
 92
        8
176
     1
 66
     8
424
  7895160
176
     1
 43
1.0
176
     1
 76
     1
176
     1
 77
     6
176
     1
 78
     2
176
     1
 67
     7
176
     1
 79
     5
176
     1
170
     0
176
     1
171
     0
176
     1
290
     0
176
     1
 93
       13
176
     1
 44
0.0
176
     1
173
     0
176
     1
  0
VISUALSTYLE
  5
37
102
{ACAD_REACTORS
330
2A
102
}
330
2A
100
AcDbVisualStyle
  2
Thicken
 70
    13
177
     2
291
     1
 71
     2
176
     1
 72
     2
176
     1
 73
     0
176
     1
 90
        0
176
     1
 40
-0.6
176
     1
 41
-30.0
176
     1
 62
     5
 63
     7
421
 16777215
176
     1
 74
     1
176
     1
 91
        4
176
     1
 64
     7
176
     1
 65
   257
176
     1
 75
     1
176
     1
175
     1
176
     1
 42
1.0
176
     1
 92
       12
176
     1
 66
     7
176
     1
 43
1.0
176
     1
 76
     1
176
     1
 77
     6
176
     1
 78
     2
176
     1
 67
     7
176
     1
 79
     5
176
     1
170
     0
176
     1
171
     0
176
     1
290
     0
176
     1
 93
        1
176
     1
 44
0.0
176
     1
173
     0
176
     1
  0
ENDSEC
  0
EOF
